<svg width="22" height="19" viewBox="0 0 22 19" fill="none" xmlns="http://www.w3.org/2000/svg">
<path d="M21.5 2V14C21.5 14.3978 21.342 14.7794 21.0607 15.0607C20.7794 15.342 20.3978 15.5 20 15.5H14C13.4033 15.5 12.831 15.7371 12.409 16.159C11.9871 16.581 11.75 17.1533 11.75 17.75C11.75 17.9489 11.671 18.1397 11.5303 18.2803C11.3897 18.421 11.1989 18.5 11 18.5C10.8011 18.5 10.6103 18.421 10.4697 18.2803C10.329 18.1397 10.25 17.9489 10.25 17.75C10.25 17.1533 10.0129 16.581 9.59099 16.159C9.16903 15.7371 8.59674 15.5 8 15.5H2C1.60218 15.5 1.22064 15.342 0.93934 15.0607C0.658035 14.7794 0.5 14.3978 0.5 14V2C0.5 1.60218 0.658035 1.22064 0.93934 0.93934C1.22064 0.658035 1.60218 0.5 2 0.5H7.25C8.04565 0.5 8.80871 0.81607 9.37132 1.37868C9.93393 1.94129 10.25 2.70435 10.25 3.5V11.75C10.25 11.9489 10.329 12.1397 10.4697 12.2803C10.6103 12.421 10.8011 12.5 11 12.5C11.1989 12.5 11.3897 12.421 11.5303 12.2803C11.671 12.1397 11.75 11.9489 11.75 11.75V3.5C11.75 2.70435 12.0661 1.94129 12.6287 1.37868C13.1913 0.81607 13.9544 0.5 14.75 0.5H20C20.3978 0.5 20.7794 0.658035 21.0607 0.93934C21.342 1.22064 21.5 1.60218 21.5 2Z" fill="#CBCBCB"/>
</svg>
