<svg width="24" height="24" viewBox="0 0 24 24" fill="none" xmlns="http://www.w3.org/2000/svg">
<path d="M24 11.2491C24 11.448 23.921 11.6388 23.7803 11.7794C23.6397 11.9201 23.4489 11.9991 23.25 11.9991H0.75C0.551088 11.9991 0.360322 11.9201 0.21967 11.7794C0.0790176 11.6388 0 11.448 0 11.2491C0 11.0502 0.0790176 10.8594 0.21967 10.7188C0.360322 10.5781 0.551088 10.4991 0.75 10.4991H3.3675L7.82062 4.3669C7.95557 4.18162 8.13118 4.02973 8.33397 3.9229C8.53676 3.81606 8.76134 3.75712 8.99046 3.75061C9.21958 3.74409 9.44714 3.79017 9.65568 3.8853C9.86422 3.98043 10.0482 4.12209 10.1934 4.2994L11.3981 5.69627L11.4169 5.71783C11.4867 5.80553 11.5754 5.87634 11.6763 5.92502C11.7773 5.9737 11.8879 5.99897 12 5.99897C12.1121 5.99897 12.2227 5.9737 12.3237 5.92502C12.4246 5.87634 12.5133 5.80553 12.5831 5.71783L12.6019 5.69627L13.8066 4.2994C13.9518 4.12209 14.1358 3.98043 14.3443 3.8853C14.5529 3.79017 14.7804 3.74409 15.0095 3.75061C15.2387 3.75712 15.4632 3.81606 15.666 3.9229C15.8688 4.02973 16.0444 4.18162 16.1794 4.3669L20.6325 10.4991H23.25C23.4489 10.4991 23.6397 10.5781 23.7803 10.7188C23.921 10.8594 24 11.0502 24 11.2491ZM16.875 13.4991C16.0449 13.4992 15.2441 13.8053 14.6254 14.3587C14.0068 14.9122 13.6138 15.6742 13.5216 16.4991H10.4784C10.386 15.6749 9.99334 14.9136 9.37539 14.3605C8.75745 13.8074 7.95748 13.5012 7.12815 13.5003C6.29882 13.4994 5.49819 13.8039 4.87904 14.3556C4.25989 14.9074 3.86557 15.6678 3.77133 16.4918C3.67709 17.3157 3.88953 18.1455 4.3681 18.8229C4.84667 19.5002 5.55788 19.9776 6.36599 20.164C7.17411 20.3503 8.02256 20.2326 8.74944 19.8333C9.47632 19.434 10.0307 18.7811 10.3069 17.9991H13.6931C13.8994 18.5824 14.262 19.0979 14.7414 19.4891C15.2208 19.8802 15.7986 20.1321 16.4115 20.2171C17.0243 20.3021 17.6488 20.217 18.2166 19.971C18.7843 19.7251 19.2736 19.3278 19.6308 18.8226C19.988 18.3174 20.1995 17.7237 20.2421 17.1064C20.2847 16.4891 20.1568 15.872 19.8723 15.3225C19.5879 14.773 19.1578 14.3123 18.6292 13.9907C18.1006 13.6691 17.4937 13.4991 16.875 13.4991Z" fill="#CBCBCB"/>
</svg>
