<svg width="24" height="26" viewBox="0 0 39 37" fill="none" xmlns="http://www.w3.org/2000/svg">
<path d="M19.4995 31.6225C21.2733 31.6225 22.8933 31.4294 24.3708 31.0956L21.0764 27.8012C20.5645 27.8406 20.0451 27.8725 19.4995 27.8725C9.46638 27.8725 5.5795 20.6612 4.63825 18.4975C5.34503 16.9203 6.29959 15.4663 7.46575 14.1906L4.8445 11.5694C1.96075 14.695 0.867628 17.8431 0.847003 17.905C0.717666 18.2901 0.717666 18.7068 0.847003 19.0919C0.886378 19.2156 5.18763 31.6225 19.4995 31.6225ZM19.4995 5.3725C16.0551 5.3725 13.2258 6.115 10.867 7.21187L3.95013 0.296875L1.29888 2.94813L35.0489 36.6981L37.7001 34.0469L31.477 27.8238C36.3783 24.1656 38.1276 19.1706 38.1539 19.0919C38.2832 18.7068 38.2832 18.2901 38.1539 17.905C38.1126 17.7794 33.8114 5.3725 19.4995 5.3725ZM28.822 25.1687L24.547 20.8937C24.9033 20.1625 25.1245 19.3581 25.1245 18.4975C25.1245 15.4206 22.5764 12.8725 19.4995 12.8725C18.6389 12.8725 17.8345 13.0937 17.1051 13.4519L13.7151 10.0619C15.5761 9.42327 17.5321 9.10562 19.4995 9.1225C29.5326 9.1225 33.4195 16.3337 34.3608 18.4975C33.7945 19.795 32.1745 22.8887 28.822 25.1687Z" fill="#CBCBCB"/>
</svg>
