<svg width="315" height="309" viewBox="0 0 315 309" fill="none" xmlns="http://www.w3.org/2000/svg">
<path d="M25.0061 81.2202C17.1665 79.7713 11.2364 75.3094 6.31389 69.3121C4.99929 67.7097 3.97257 65.7809 1.42974 66.0112C0.806028 66.0688 0.566139 65.3204 0 65.2148C0 64.9845 0 64.7638 0 64.5335C0.239889 64.3128 0.479779 64.0921 0.719668 63.8714C3.0322 62.9886 5.15282 63.2669 6.97598 64.9941C8.65521 66.587 10.2961 68.2278 11.8985 69.907C15.516 73.6973 19.8628 76.5664 24.0753 79.5986C24.5263 79.9248 25.1116 80.1167 25.3803 80.6445C25.5338 80.942 25.6298 81.345 25.0157 81.2106L25.0061 81.2202Z" fill="#07192B"/>
<path d="M25.0051 81.2241C25.4274 80.8211 25.0435 80.6675 24.7749 80.4948C18.72 76.7237 13.1546 72.329 8.44319 66.9746C6.31297 64.5566 3.92367 63.3475 0.71875 63.8849C4.26911 59.6052 8.28006 56.1125 14.2005 55.7574C17.5398 55.5559 20.8311 55.8534 24.1128 56.5251C29.0353 57.5326 33.7755 59.0295 38.3238 61.1597C41.9126 62.5895 44.1291 65.5065 46.3265 68.462C51.2778 75.1309 53.907 82.6634 55.6054 90.7813C58.4841 104.493 61.6794 118.148 67.1297 131.159C68.4347 134.278 70.2291 137.042 72.1578 139.767C75.3915 144.325 79.3449 148.038 84.4689 150.36C88.4703 152.164 92.7211 153.076 97.0583 153.651C104.159 154.592 111.241 154.314 118.293 153.181C119.138 153.047 119.992 153.229 120.817 152.961C121.604 152.826 122.419 153.076 123.206 152.807C127.092 152.404 130.844 151.31 134.673 150.61C137.753 150.053 140.728 149.017 143.856 148.691C147.406 148.499 150.794 149.967 154.382 149.593C156.493 149.372 158.576 149.564 160.725 150.053C164.726 150.965 168.459 149.516 171.904 147.616C174.044 146.436 176.068 146.167 178.381 146.867C181.624 147.856 184.954 148.451 188.341 148.777C190.174 148.95 191.959 148.633 193.724 148.336C198.272 147.558 202.85 146.954 206.88 145.649C206.784 145.678 206.333 145.658 205.978 145.227C206.381 144.219 207.292 144.545 208.041 144.449C213.693 144.353 219.287 143.605 224.891 142.895C228.537 142.434 232.154 141.83 235.791 141.292C238.814 140.851 240.752 138.807 241.673 136.044C242.47 133.654 243.093 131.14 242.498 128.549C242.422 128.223 242.441 127.878 242.441 127.532C242.566 117.131 241.827 106.748 242.105 96.3467C242.211 92.3261 242.796 88.3728 243.938 84.5154C245.636 77.5298 248.381 71.1679 254.416 66.7347C254.906 66.3701 255.347 65.9383 255.808 65.5353C260.577 62.5031 266.065 61.8602 271.458 61.0638C279.547 59.8739 287.674 58.9911 295.802 58.0795C299.842 57.6285 304.006 57.475 308.065 58.4538C309.495 58.9527 310.972 59.3749 312.354 59.9891C313.947 60.6895 314.743 62.6854 314.081 64.2399C313.717 65.1035 312.92 65.3818 312.009 65.1035C311.548 64.9596 311.116 64.7101 310.704 64.5278C310.195 65.0555 310.829 65.852 310.147 66.2646C309.744 65.9383 309.61 65.4298 309.783 65.0363C310.31 63.8177 309.524 63.5778 308.65 63.3379C308.161 63.2036 307.672 63.0596 307.163 63.0021C304.918 62.7622 304.726 63.0692 304.755 65.2378C304.85 71.0432 303.996 76.599 299.189 80.6004C295.85 83.3831 291.944 85.1391 287.742 86.2905C284.431 87.1925 281.13 87.7683 277.714 87.1158C277.33 87.039 276.927 87.1062 276.544 87.2405C276.323 87.2597 276.093 87.2789 275.872 87.2981C273.415 86.3193 271.285 84.7361 268.848 83.1816C268.915 85.7916 269.289 88.0657 269.635 90.3303C270.777 97.7189 271.17 105.155 270.844 112.611C270.661 116.891 269.913 121.142 269.107 125.345C268.08 130.718 266.794 136.034 264.933 141.206C262.553 147.808 258.734 153.46 253.936 158.507C253.121 159.37 252.257 160.186 251.422 161.021C251.077 161.366 250.588 161.664 250.827 162.297C247.67 163.468 244.341 163.717 241.03 163.88C224.775 164.667 208.751 163.074 193.014 158.852C191.392 158.42 189.838 157.749 188.255 157.183C186.969 156.012 185.28 155.484 183.812 154.505C187.362 158.632 189.109 163.525 190.174 168.63C190.222 168.496 190.087 168.179 190.347 167.987C191.325 171.461 191.632 175.05 192.227 178.59C193.177 184.223 193.993 189.875 194.703 195.536C194.914 197.187 194.876 198.885 195.125 200.545C195.49 202.81 195.02 205.113 195.384 207.387C195.259 216.934 195.989 226.472 195.739 236.029C195.538 243.706 194.338 251.267 192.947 258.809C192.88 259.193 192.889 259.74 192.371 259.951C187.689 259.164 185.347 256.027 184.177 251.737C183.457 249.108 183.006 246.45 183.035 243.716C183.083 238.745 183.015 233.765 183.054 228.794C183.111 221.147 182.305 213.585 181.202 206.034C180.578 201.735 180.214 197.398 179.312 193.128C178.007 186.996 176.414 180.941 174.83 174.877C173.765 170.799 173.228 166.596 172.211 163.036C173.938 170.031 175.406 177.602 176.203 185.288C176.865 191.631 177.383 197.983 177.69 204.364C177.949 209.622 178.026 214.871 177.901 220.11C177.604 232.7 177.009 245.27 175.07 257.744C174.735 259.922 174.379 262.091 174.092 264.279C173.641 267.724 172.767 271.034 170.887 274.028C170.167 275.17 169.553 276.388 168.958 277.607C167.854 279.881 167.451 282.213 168.305 284.66C169.15 287.078 168.756 289.323 167.442 291.473C167.125 291.981 166.665 292.48 166.885 293.181C164.429 296.482 161.416 299.207 158.077 301.586C155.86 301.164 154.373 299.744 153.183 297.95C151.475 295.388 150.275 292.576 149.393 289.65C148.73 287.452 147.742 285.447 146.38 283.614C146.178 283.345 145.986 283.057 145.785 282.789C143.808 280.006 142.407 277.147 144.259 273.683C146.284 269.921 149.383 267.906 153.624 267.656C154.987 267.58 156.234 268.165 157.29 268.443C153.144 266.611 149.134 267.964 145.19 269.921C144.499 270.266 143.712 271.005 143.021 270.458C142.282 269.863 142.964 268.981 143.242 268.299C147.435 258.042 149.757 247.266 151.964 236.461C153.404 229.428 154.785 222.394 155.419 215.226C155.956 209.095 156.532 202.973 156.944 196.832C157.203 193.003 157.453 189.165 157.961 185.355C158.441 181.776 158.576 178.159 158.863 174.551C159.334 168.649 159.66 162.729 159.996 156.818C159.046 168.141 158.221 179.473 157.002 190.777C156.148 198.693 155.457 206.629 154.795 214.564C153.989 224.16 152.166 233.592 150.016 242.967C148.721 248.638 147.416 254.319 145.545 259.846C144.278 263.598 142.618 267.196 141.236 270.9C140.862 271.907 140.267 272.819 139.5 273.587C135.719 277.367 133.742 282.04 132.821 287.222C132.744 287.663 132.735 288.133 132.591 288.556C132.322 289.323 132.802 290.542 131.564 290.763C130.739 290.907 128.916 288.824 129.05 287.922C130.24 280.313 132.111 273.02 138.847 268.155C139.519 267.666 139.951 267.033 140.219 266.265C143.107 258.118 146.36 250.097 148.26 241.624C149.498 236.097 150.093 230.474 150.803 224.87C151.83 216.742 152.031 208.548 152.703 200.391C153.365 192.408 154.229 184.434 154.632 176.422C154.891 171.25 155.611 166.068 156.704 160.973C157.011 159.534 157.251 158.085 157.434 156.626C157.654 154.765 157.011 154.122 155.102 154.371C151.897 154.793 148.769 155.551 145.708 156.588C136.256 159.783 126.546 161.913 116.748 163.698C110.626 164.811 104.457 165.521 98.2578 166.059C87.8466 166.97 77.6081 165.982 67.5519 163.17C63.1955 161.952 58.8487 160.714 54.5883 159.188C50.5198 155.129 46.9598 150.658 43.8413 145.831C39.7823 139.556 36.5102 132.925 34.3225 125.767C34.2457 125.508 34.2361 125.22 34.1977 124.951C33.7371 120.125 33.4876 115.269 32.9023 110.452C31.9044 102.296 31.5493 94.1301 32.7776 85.9643C32.8447 85.5133 32.9311 85.0719 33.0462 84.6401C33.3629 83.4598 33.8907 82.673 35.33 83.1336C35.9729 83.3447 36.683 83.124 37.1723 83.2679C34.7351 83.076 32.1347 82.6346 29.5055 82.8649C28.9585 81.7326 27.7687 82.1356 26.8955 81.771C26.291 81.5215 25.6385 81.3968 25.0051 81.2241Z" fill="#132944"/>
<path d="M233.586 99.459C233.586 99.459 233.576 99.5645 233.567 99.6221C233 101.445 233.327 103.316 233.25 105.168C233.173 106.972 233.02 108.757 232.05 110.35C231.839 110.571 231.59 110.072 231.523 110.273C230.486 113.248 228.615 115.675 226.14 117.489C221.802 120.665 216.995 122.872 211.526 123.266C209.155 123.438 206.805 122.987 204.482 122.556C202.036 122.095 199.608 121.625 197.103 121.663C190.857 121.279 185.042 122.901 179.496 125.617C177.72 126.49 175.936 127.315 174.112 128.073C169.017 130.002 163.855 131.499 158.309 130.424C146.026 128.188 138.964 119.552 136.853 109.669C136.661 108.776 136.594 107.884 136.603 106.982C136.603 105.437 136.603 103.892 136.594 102.357C136.517 100.965 136.968 99.6797 137.457 98.4227C138.11 96.7626 138.1 95.1122 137.544 93.4521C136.766 91.0916 135.567 88.9038 134.55 86.6489C130.318 77.2836 127.708 67.5633 128.121 57.1809C128.14 56.7299 128.15 56.2789 128.246 55.8375C129.042 50.1377 131.527 45.2632 135.711 41.3578C142.802 34.7656 151.121 31.1097 160.919 30.7643C164.997 30.6203 169.027 30.8314 173.066 31.2057C177.644 32.0789 181.827 34.0843 186.184 35.6196C191.586 37.5195 197.075 38.5751 202.698 36.3681C204.079 35.8211 205.288 35.0055 206.584 34.3146C208.714 33.5374 210.47 33.9596 212.111 35.6196C216.525 40.1103 220.555 44.8793 223.366 50.5695C223.971 51.7786 224.201 53.1411 224.902 54.3118C225.881 58.4091 227.262 62.4201 227.79 66.6421C228.443 71.9197 228.692 77.1972 228.078 82.494C227.992 83.2137 228.03 83.8662 228.673 84.3076C229.604 84.9313 229.786 86.3034 231.033 86.6009C231.676 87.762 232.041 89.0286 232.53 90.2568C232.53 90.2664 232.54 90.2856 232.54 90.2952C232.991 92.1759 233.327 94.0663 233.221 96.0046C233.212 96.0525 233.212 96.1005 233.212 96.1485C233.173 97.2712 233.711 98.3363 233.586 99.459Z" fill="#CCA69B"/>
<path d="M197.13 121.225C199.625 121.1 202.053 121.608 204.471 122.107C214.076 124.103 222.107 121.253 228.728 114.191C229.832 113.011 230.753 111.639 231.338 110.084C231.367 110.007 231.233 109.355 231.693 109.835C231.789 109.931 231.751 110.161 231.77 110.324C231.549 113.452 230.379 116.196 228.44 118.634C226.329 119.929 224.545 121.656 222.405 122.933C216.494 126.464 210.17 128.987 203.607 131.012C193.685 134.073 183.466 135.81 173.256 137.288C160.12 139.197 147.032 138.9 134.365 133.891C127.169 131.041 121.018 126.857 115.817 121.167C114.666 119.91 114.483 118.73 115.011 117.166C116.124 113.826 118.427 111.495 121.152 109.48C123.33 107.868 125.653 106.447 127.764 104.941C122.995 105.948 118.897 108.626 114.704 111.092C113.457 111.83 112.142 112.291 110.712 112.358C109.935 112.397 109.244 112.118 108.832 111.427C108.39 110.679 108.716 109.998 109.167 109.384C110.271 107.868 111.787 106.85 113.485 106.198C117.237 104.768 120.922 103.127 124.818 102.091C121.92 102.811 119.176 103.981 116.393 105.046C115.942 105.219 115.414 105.699 115.021 105.162C114.598 104.595 115.069 104.068 115.462 103.684C117.842 101.362 120.74 99.8264 123.599 98.2335C124.434 97.773 125.336 97.4179 126.161 96.8518C122.716 95.8059 117.324 96.1129 112.747 97.4851C109.753 98.3775 107.047 99.9512 104.149 101.064C102.853 101.563 101.51 101.947 100.685 100.527C99.8501 99.078 100.685 97.8017 101.875 97.0341C104.965 95.0382 108.467 94.165 112.075 93.7428C114.55 93.4549 117.036 93.4933 119.521 93.5605C121.939 93.6181 124.319 94.1458 126.708 94.4529C119.156 93.2343 111.643 92.6969 104.331 95.7291C102.911 96.324 102.47 95.4221 102.182 94.3761C101.664 92.4666 101.328 90.4995 101.145 88.542C100.819 85.1164 100.253 81.7292 100.234 78.2556C100.215 74.0239 100.8 69.917 101.817 65.8485C103.832 57.8266 103.41 50.0638 99.5622 42.608C98.7082 40.9576 98.7754 39.096 98.6122 37.3016C98.1325 31.7746 99.5046 26.545 101.289 21.373C102.45 18.0049 104.283 14.9248 105.425 11.5471C108.361 7.6897 111.25 3.7939 114.973 0.62736C115.971 -0.217051 116.834 -0.178668 117.851 0.560191C120.154 2.23942 122.131 4.24489 123.993 6.36551C128.454 11.4608 132.868 16.604 136.851 22.0927C137.292 22.6972 137.522 22.7835 138.271 22.4285C140.43 21.4306 142.838 21.2674 145.141 20.826C147.953 20.2983 150.822 20.068 153.672 19.713C154.9 19.2908 156.205 19.8281 157.424 19.3963C160.35 19.262 163.286 19.1276 166.213 18.9837C168.151 18.8014 170.08 18.7918 172.018 18.9837C178.371 19.0029 184.55 20.2023 190.672 21.7856C193.157 22.0255 195.47 22.9083 197.783 23.7431C204.682 26.2379 210.737 30.0378 215.688 35.4977C217.962 38.0117 219.967 40.7273 221.8 43.5772C221.829 43.6539 221.858 43.7307 221.896 43.8074C222.99 47.2619 224.305 50.6587 224.88 54.257C224.285 53.9116 224.19 53.2495 223.94 52.7025C221.042 46.2447 216.734 40.804 211.792 35.8047C210.343 34.3462 208.798 33.972 206.918 34.5765C205.824 34.1351 204.701 34.1351 203.617 34.5381C196.65 37.0714 189.789 36.3709 182.929 34.0104C179.954 32.9836 176.922 32.1296 173.832 31.5059C173.554 31.4483 173.285 31.3716 173.026 31.5539C168.19 31.0933 163.334 30.7575 158.498 31.3236C147.214 32.6286 137.992 37.5223 131.621 47.1851C129.913 49.7759 129.27 52.7697 128.608 55.7347C128.445 55.5812 128.301 55.4181 128.512 55.1974C128.282 55.2262 128.301 55.4181 128.263 55.5716C126.027 64.8122 127.476 73.5633 131.515 82.0554C132.926 85.0108 134.423 87.9183 135.718 90.9313C136.735 93.2822 136.735 95.5948 136.141 98.032C134.212 105.9 135.67 112.982 140.535 119.593C143.779 123.988 147.818 127.068 152.655 129.304C153.892 129.88 155.217 130.187 156.522 130.532C157.155 130.705 157.769 130.743 158.076 129.976C161.271 130.206 164.476 130.484 167.614 129.592C169.763 128.978 171.884 128.258 174.024 127.596C176.413 127.375 178.476 126.137 180.702 125.427C186.479 123.575 192.236 121.695 198.416 121.829C197.869 121.752 197.245 122.04 197.092 121.177L197.13 121.225Z" fill="#132944"/>
<path d="M54.619 159.193C55.2811 158.463 55.9144 159.125 56.4709 159.317C62.5065 161.351 68.6093 163.165 74.856 164.374C78.4352 165.065 82.0911 165.314 85.7086 165.746C89.8635 166.236 93.9416 165.804 98.0198 165.554C103.556 165.228 109.083 164.528 114.572 163.597C121.999 162.33 129.369 160.776 136.642 158.837C140.557 157.792 144.405 156.506 148.262 155.287C150.632 154.539 153.089 154.193 155.516 153.809C157.474 153.502 158.386 154.587 158.03 156.525C156.62 164.086 155.305 171.657 154.998 179.382C154.72 186.406 153.732 193.372 153.261 200.386C152.839 206.671 152.302 212.937 151.909 219.232C151.707 222.514 151.16 225.805 150.757 229.087C150.085 234.508 149.299 239.882 147.898 245.159C147.264 247.549 146.583 249.938 145.767 252.279C144.318 256.482 142.716 260.637 141.257 264.83C140.643 266.605 139.943 268.064 138.244 269.263C135.231 271.374 133.37 274.531 131.998 277.947C130.712 281.152 130.146 284.54 129.484 287.898C129.397 288.33 129.368 288.608 129.752 288.915C130.414 289.443 131 290.047 131.787 290.767C132.238 287.821 132.621 285.029 133.581 282.342C134.78 279.003 136.431 275.961 138.993 273.476C140.557 271.95 141.027 269.897 141.862 267.997C144.318 262.422 146.286 256.664 147.706 250.763C149.26 244.324 150.623 237.838 151.947 231.342C153.204 225.172 153.933 218.935 154.394 212.649C154.768 207.612 155.66 202.612 155.958 197.575C156.207 193.41 156.716 189.294 157.081 185.149C157.464 180.725 157.983 176.321 158.376 171.907C158.673 168.548 158.865 165.171 159.105 161.812C159.23 160.018 159.345 158.223 159.47 156.419C159.499 156.016 159.614 155.642 160.065 155.335C160.784 156.487 160.612 157.801 160.391 158.905C159.882 161.419 160.189 163.952 159.873 166.476C159.374 170.371 159.441 174.344 159.076 178.259C158.702 182.337 158.539 186.434 157.829 190.493C157.512 192.316 157.675 194.188 157.474 196.049C157.052 199.791 157.138 203.591 156.678 207.324C156.083 212.112 155.824 216.939 155.133 221.717C153.808 230.9 151.678 239.91 149.74 248.969C148.473 254.88 146.641 260.579 144.472 266.193C143.954 267.536 143.512 268.918 142.917 270.626C148.128 267.69 153.204 265.55 159.028 268.985C157.618 269.311 156.668 268.601 155.632 268.371C149.711 267.056 143.867 271.998 143.829 277.41C143.819 279.176 144.76 280.625 145.729 281.843C148.185 284.914 149.577 288.426 150.747 292.082C151.458 294.308 152.676 296.284 153.885 298.252C154.864 299.844 156.678 300.478 158.069 301.591C155.91 303.491 153.617 305.208 151.007 306.465C149.155 307.156 147.312 306.782 145.547 306.235C140.72 304.738 136.46 302.061 132.122 299.576C131.451 299.192 131.029 298.664 131.105 297.791C131.153 297.254 130.894 296.908 130.29 297.282C125.789 299.192 121.222 297.925 116.683 297.542C114.898 297.388 113.411 296.38 112.106 295.181C110.456 293.655 108.757 292.178 106.905 290.901C106.099 290.345 105.763 289.712 106.157 288.771C107.164 281.171 111.54 275.587 117.048 270.731C119.677 268.409 122.527 266.356 125.981 265.358C126.749 265.137 127.171 264.648 127.411 263.861C129.8 256.041 132.909 248.431 134.445 240.352C135.538 234.614 136.623 228.885 137.573 223.128C138.82 215.566 140.854 208.264 143.983 201.25C146.804 194.936 148.56 188.257 150.2 181.569C151.956 174.421 153.521 167.224 154.384 159.893C154.682 157.83 154.634 157.389 154 156.794C149.251 159.375 144.079 160.805 138.964 162.426C130.405 165.142 121.826 167.819 112.912 169.124C109.227 169.661 105.543 170.429 101.791 170.419C97.9334 170.63 94.076 170.64 90.2186 170.419C81.6305 170.179 73.2632 168.721 65.1165 165.996C61.0384 164.633 57.488 162.417 54.6094 159.193H54.619Z" fill="#07192B"/>
<path d="M105.435 11.5703C106.145 12.5395 105.311 13.2495 104.965 13.9788C102.71 18.7862 100.791 23.6895 99.6397 28.8999C98.7281 33.0068 98.9872 37.0754 99.5341 41.1535C99.6877 42.3241 100.494 43.4084 100.993 44.5407C103.248 49.7223 103.9 55.115 103.228 60.7093C102.71 65.0081 101.223 69.1438 100.858 73.4522C100.532 77.2616 100.59 81.119 101.165 84.9285C101.607 87.8647 102.01 90.8202 102.48 93.7468C102.806 95.7619 103.104 95.877 104.965 95.1958C108.045 94.0635 111.212 93.4014 114.522 93.3534C118.917 93.2862 123.283 93.363 127.534 94.7352C125.164 94.4473 122.813 94.0635 120.433 93.9004C114.254 93.4686 108.161 93.6892 102.624 97.0093C102.336 97.182 102.039 97.3643 101.808 97.5947C101.002 98.3815 100.292 99.3506 100.993 100.425C101.645 101.423 102.662 101.183 103.718 100.761C107.623 99.1779 111.356 97.2012 115.54 96.2609C119.541 95.3589 123.427 96.2705 127.428 96.328C123.302 99.2547 118.418 100.963 115.117 104.983C118.85 103.899 122.41 102.364 126.267 101.778C124.022 102.575 121.738 103.304 119.522 104.177C116.749 105.281 113.899 106.211 111.385 107.891C110.617 108.399 109.974 109.023 109.408 109.723C109.072 110.146 108.66 110.683 109.063 111.259C109.437 111.786 110.051 112.103 110.684 111.988C111.951 111.758 113.208 111.518 114.34 110.798C116.48 109.445 118.639 108.102 120.875 106.922C123.36 105.607 126.104 104.954 129.175 103.947C127.927 105.645 126.498 106.365 125.202 107.238C122.439 109.1 119.627 110.875 117.449 113.456C116.211 114.915 115.645 116.69 115.06 118.455C114.877 118.993 114.916 119.569 115.367 120.039C118.792 123.647 122.247 127.322 126.603 129.74C131.766 132.618 137.322 134.662 143.117 136.092C149.537 137.675 156.033 138.05 162.577 137.752C169.14 137.455 175.617 136.428 182.104 135.267C189.416 133.962 196.661 132.494 203.79 130.421C211.63 128.128 219.057 124.952 225.697 120.106C226.416 119.578 227.04 118.897 227.683 118.273C228.048 117.918 228.24 117.995 228.316 118.475C228.604 119.348 228.096 120.029 227.664 120.653C226.196 122.793 224.622 124.875 222.549 126.477C220.275 128.243 218.174 130.2 215.919 131.985C210.574 136.198 204.471 138.702 198.09 140.727C192.966 142.358 187.698 143.346 182.421 144.277C181.404 144.459 180.367 144.469 179.446 144.44C182.651 144.68 185.933 145.045 189.224 145.333C192.064 145.553 194.914 145.63 197.745 145.256C198.733 145.074 199.722 145.112 200.719 145.112C202.341 145.217 203.972 144.757 205.604 144.843C205.7 144.862 205.796 144.882 205.882 144.901C206.669 144.939 207.446 144.978 208.473 145.026C205.757 146.283 203.07 147.204 200.345 147.655C197.083 148.192 193.849 148.931 190.567 149.238C187.545 149.526 184.541 148.873 181.586 148.183C179.945 147.799 178.295 147.463 176.692 146.954C175.253 146.494 174.063 146.993 172.873 147.636C170.637 148.845 168.354 149.919 165.849 150.418C163.45 150.898 161.051 151.042 158.729 150.015C158.365 149.852 158.029 149.718 157.597 149.775C153.836 150.255 150.084 150.342 146.418 149.123C145.564 148.835 144.595 149.382 143.827 148.681C147.848 147.655 151.868 146.628 155.899 145.611C156.513 145.457 156.781 144.834 157.434 144.747C145.113 143.442 132.984 141.667 121.882 135.785C116.941 133.165 112.172 130.287 107.681 126.919C99.4862 120.778 94.602 112.295 90.5815 103.189C87.2998 95.7523 85.8029 87.8743 85.0832 79.8332C84.757 78.5858 85.1888 77.2904 84.8337 76.043C84.5075 62.5708 86.9448 49.5592 91.4259 36.893C94.5732 27.9883 99.0064 19.8033 104.745 12.3092C104.946 12.0405 105.196 11.8102 105.416 11.5703H105.435Z" fill="#07192B"/>
<path d="M166.891 293.182C165.663 292.655 166.546 291.973 166.853 291.484C167.783 290.016 168.503 288.5 168.273 286.725C168.177 285.957 167.918 285.189 167.678 284.45C166.738 281.524 167.592 278.875 169.021 276.381C171.132 272.705 173.08 269.002 173.56 264.684C174.069 260.058 174.903 255.472 175.469 250.847C175.997 246.548 176.218 242.23 176.717 237.941C176.918 236.213 176.995 234.448 177.024 232.721C177.187 224.315 177.801 215.9 177.379 207.494C177.091 201.717 176.813 195.931 176.189 190.164C175.805 186.595 175.345 183.025 175.009 179.446C174.759 176.778 174.097 174.14 173.57 171.501C172.984 168.536 172.332 165.571 171.746 162.606C171.641 162.068 171.727 161.493 171.948 160.859C172.408 162.414 173.013 163.94 173.31 165.513C174.433 171.482 176.064 177.325 177.523 183.207C178.885 188.696 180.286 194.185 180.881 199.846C181.467 205.479 182.465 211.063 183.127 216.686C183.443 219.364 183.501 222.079 183.52 224.785C183.578 231.281 183.511 237.787 183.549 244.283C183.578 248.63 184.499 252.766 186.907 256.47C187.781 257.823 189.153 258.446 190.621 258.936C191.264 259.147 192.156 258.974 192.358 259.953C192.396 260.385 192.837 260.135 193.02 260.346C191.005 261.603 189.22 263.139 187.474 264.751C186.274 265.864 185.123 267.015 183.914 268.109C183.04 268.906 182.973 269.683 183.674 270.614C185.67 273.272 187.829 275.805 190.285 278.05C193.077 280.603 195.975 283.001 199.439 284.633C200.341 285.055 201.147 285.746 200.025 286.83C196.129 288.375 192.118 289.287 187.896 288.826C182.263 288.231 176.679 287.415 171.439 285.122C170.441 284.681 170.413 285.247 170.374 285.899C170.211 288.816 168.829 291.129 166.872 293.173L166.891 293.182Z" fill="#07192B"/>
<path d="M120.836 153.165C118.399 153.548 115.971 154.047 113.524 154.287C108.525 154.767 103.516 154.873 98.5166 154.297C94.5345 153.836 90.6099 153.117 86.8292 151.754C81.5133 149.845 77.2432 146.601 73.5393 142.264C67.0431 134.664 64.2892 125.453 61.4585 116.241C58.9637 108.113 57.1213 99.8036 55.2214 91.5131C54.4058 87.9531 53.926 84.3068 52.5634 80.8812C49.464 73.1183 43.3996 65.154 36.4141 60.2027C38.1701 60.0684 41.0487 60.0684 43.9946 60.5289C44.7142 60.6441 46.2303 60.7496 46.8061 61.0279C50.011 62.5536 51.0665 64.7606 52.5922 67.9367C57.7546 78.703 60.2687 90.304 63.4544 101.694C65.978 110.704 67.0911 120.069 70.5071 128.84C71.9657 132.573 73.6161 136.219 75.3241 139.846C78.078 145.69 83.0294 148.712 89.0266 150.171C93.9875 151.38 99.006 152.407 104.149 152.426C105.502 152.829 106.903 152.33 108.256 152.704C109.935 152.733 111.615 152.762 113.294 152.79C115.261 153.059 117.238 152.829 119.205 152.925C119.742 152.954 120.337 152.704 120.826 153.155L120.836 153.165Z" fill="#68517B"/>
<path d="M200.168 286.396C200.648 285.427 199.813 285.206 199.256 284.956C194.967 283.028 191.542 279.938 188.308 276.656C186.427 274.747 184.556 272.789 183.088 270.496C182.522 269.613 182.455 268.932 183.309 268.155C185.592 266.072 187.809 263.923 190.045 261.783C190.889 260.967 192.031 260.814 193.038 260.344C198.498 261.303 202.931 264.057 206.424 268.279C208.286 270.534 208.766 273.375 209.053 276.205C209.389 277.338 208.948 278.527 209.303 279.66C209.764 280.446 210.704 280.542 211.347 281.061C211.145 282.519 209.898 283.066 208.823 283.498C206.319 284.515 203.747 285.359 201.271 286.473C200.907 286.636 200.513 286.732 200.168 286.396Z" fill="#132944"/>
<path d="M250.829 162.296C250.004 162.228 249.697 162.046 250.464 161.307C253.266 158.601 255.953 155.819 258.266 152.652C262.075 147.451 264.608 141.704 266.297 135.514C267.746 130.198 268.869 124.815 269.656 119.384C270.625 112.686 270.826 105.931 270.097 99.1759C269.492 93.5625 268.85 87.9587 268.216 82.2109C270.193 83.4776 272.102 84.6386 273.935 85.9052C274.588 86.3562 275.73 86.1451 275.864 87.2966C275.864 88.1794 275.864 89.0718 275.864 89.9546C276.459 95.3185 276.075 100.702 276.19 106.075C276.209 106.862 276.142 107.649 276.257 108.426C276.363 108.724 276.372 109.021 276.305 109.328C276.133 114.73 275.336 120.056 274.108 125.314C273.791 126.677 273.369 128.02 273.196 129.412C272.515 132.722 271.181 135.812 270.145 139.007C268.408 144.323 265.913 149.226 262.593 153.717C259.58 157.805 255.886 160.981 250.839 162.296H250.829Z" fill="#07192B"/>
<path d="M223.995 28.2882C223.4 33.2779 222.805 38.2772 222.201 43.2669C222.172 43.478 222.018 43.6699 221.922 43.8618C221.874 43.8234 221.826 43.7754 221.788 43.7274C221.356 42.4992 220.915 41.2998 220.023 40.3018C219.197 39.3711 219.303 38.1524 219.466 37.0585C219.888 34.295 219.591 31.5219 219.783 28.7679C219.975 26.0716 219.783 23.3752 219.888 20.6213C217.403 22.0127 215.09 23.7974 212.97 25.8029C209.343 29.2477 209.371 29.2765 205.322 26.5514C204.948 26.3019 204.593 26.014 204.199 25.7933C202.607 24.8913 201.916 23.5767 202.088 21.7248C202.223 20.2663 202.04 18.7886 202.127 17.3204C206.627 15.4685 211.204 13.8276 216.04 13.0696C219.552 12.513 221.088 13.3958 222.594 16.6008C223.314 18.1361 223.861 19.7097 223.995 21.4081C224.177 23.7015 224.168 25.9948 223.995 28.2882Z" fill="#132944"/>
<path d="M202.118 17.3203C202.972 18.7309 202.588 20.2949 202.492 21.7439C202.367 23.5862 203.106 24.6609 204.574 25.5437C205.831 26.2922 207.069 27.079 208.192 28.0098C208.911 28.6047 209.257 28.4224 209.871 27.9138C212.788 25.4574 215.446 22.6842 218.756 20.7171C219.447 20.3141 220.09 19.7096 221.27 19.9399C219.812 21.3313 220.455 22.8474 220.407 24.3539C220.311 27.1078 220.215 29.8521 220.186 32.6061C220.176 33.9494 220.176 35.2832 219.927 36.6362C219.649 38.1715 219.61 39.7452 221.069 40.9638C221.884 41.6451 222.124 42.6718 221.769 43.7465C219.975 42.4991 219.198 40.4456 217.893 38.8048C213.066 32.7404 207.222 28.1153 200.007 25.1503C196.936 23.8933 193.712 23.1448 190.68 21.8398C194.47 20.2949 198.183 18.5581 202.098 17.3203H202.118Z" fill="#07192B"/>
<path d="M276.533 87.2372C276.869 86.5175 277.502 86.5079 278.126 86.6327C283.624 87.7266 288.566 85.8075 293.412 83.6676C296.453 82.3243 299.198 80.5107 301.251 77.7184C302.93 75.4442 303.602 72.8822 303.986 70.2051C304.293 68.0077 304.85 65.8007 303.832 63.5937C303.573 63.018 304.36 62.7589 304.802 62.6533C306.826 62.1448 308.697 62.7109 310.511 63.5745C310.732 63.6801 311.087 63.9104 310.655 64.1502C309.686 64.678 310.261 65.5512 310.127 66.2709C309.676 72.4408 307.057 77.6704 303.036 82.2187C299.543 86.1721 295.072 88.4175 289.804 89.022C287.616 89.2043 285.438 89.1947 283.25 89.022C280.928 88.7437 278.663 88.2255 276.523 87.2372H276.533Z" fill="#07192B"/>
<path d="M29.5132 82.8628C30.0889 81.9992 30.9717 82.1047 31.7969 82.2103C34.0711 82.5174 36.326 82.882 38.5906 83.5057C37.4295 83.5057 36.2301 83.6784 35.1074 83.4577C33.9751 83.237 33.7352 83.688 33.5625 84.5996C33.0443 87.3055 32.7373 90.0403 32.6029 92.7846C32.459 95.6633 32.4302 98.5516 32.6029 101.43C32.8332 105.24 33.3034 109.03 33.668 112.83C33.8696 114.893 34.0807 116.965 34.2534 119.029C34.3973 120.708 34.4933 122.387 34.5988 124.076C34.618 124.421 34.5604 124.757 34.2246 124.959C32.4494 120.266 31.7969 115.315 30.9045 110.421C30.2136 106.602 29.5995 102.735 29.3117 98.9066C28.9086 93.5906 28.8415 88.2075 29.5132 82.8628Z" fill="#07192B"/>
<path d="M308.047 58.454C304.832 58.4348 301.608 58.3869 298.393 58.406C294.152 58.4444 290.016 59.3464 285.823 59.8454C281.246 60.3827 276.65 60.8337 272.092 61.5054C266.699 62.2923 261.259 62.9927 256.288 65.5068C256.154 65.5739 255.962 65.526 255.789 65.5356C257.718 63.722 260.097 62.6857 262.525 61.7933C270.24 58.953 278.252 57.4945 286.409 56.6788C292.271 56.0839 298.106 56.0743 303.92 57.1202C305.35 57.3793 306.818 57.5616 308.047 58.454Z" fill="#68517B"/>
<path d="M130.291 297.28C130.79 296.762 131.394 296.225 131.317 297.539C131.269 298.374 131.615 298.729 132.258 299.104C136.422 301.589 140.606 304.055 145.202 305.657C147.073 306.31 149.021 306.569 151.017 306.454C146.286 308.574 141.364 308.891 136.336 307.912C134.129 307.48 131.922 306.914 130.032 305.609C127.709 304.016 127.172 301.877 128.448 299.804C128.899 299.084 129.485 298.643 130.319 298.509C130.77 298.432 130.981 298.154 130.991 297.683C130.991 297.108 130.578 297.309 130.291 297.271V297.28Z" fill="#305D85"/>
<path d="M106.167 288.758C106.167 289.516 106.378 290.044 107.136 290.495C108.921 291.56 110.447 293.009 111.944 294.458C113.805 296.252 115.974 297.116 118.584 297.327C122.499 297.643 126.395 298.142 130.291 297.279C127.681 298.421 124.984 299.294 122.144 299.658C119.073 299.917 116.012 299.86 112.942 299.687C109.967 299.044 107.079 298.133 104.555 296.386C102.559 295.005 102.454 293.575 104.047 291.723C104.843 290.792 105.822 290.015 106.167 288.767V288.758Z" fill="#305D85"/>
<path d="M200.166 286.404C203.505 284.763 207.295 284.168 210.433 282.019C210.817 281.76 211.143 281.482 211.345 281.059C211.997 281.002 212.275 280.484 212.573 280.013C213.033 279.284 213.628 278.737 214.521 279.083C215.413 279.428 216.018 280.129 216.008 281.146C216.008 282.249 215.586 283.209 214.837 284.044C212.045 287.153 208.399 288.448 204.417 289.129C200.598 289.782 196.759 289.494 192.94 289.235C191.271 289.12 189.553 289.417 187.922 288.832C192.173 288.832 196.203 287.776 200.175 286.395L200.166 286.404Z" fill="#305D85"/>
<path d="M243.273 84.9434C242.487 86.6322 242.18 88.4745 241.575 90.2209V90.2497C241.249 90.4224 240.894 90.4896 240.51 90.4992C238.169 90.5568 235.818 90.5568 233.476 90.4992C233.15 90.4992 232.833 90.432 232.546 90.2977C232.546 90.2977 232.536 90.2689 232.536 90.2593C232.047 89.0311 231.682 87.7645 231.039 86.6034C233.006 85.7974 234.983 85.0489 237.123 84.8378C238.955 84.6843 240.798 84.6267 242.631 84.857C242.851 84.8858 243.062 84.9146 243.273 84.9434Z" fill="#18283A"/>
<path d="M190.347 168C190.309 168.326 190.27 168.662 190.184 169.43C188.514 163.576 186.873 158.136 182.594 154C183.371 153.597 183.908 154 184.34 154.221C185.722 154.96 187.017 155.852 188.37 156.648C188.927 156.975 188.639 157.071 188.265 157.176C187.775 157.579 188.178 157.973 188.265 158.376C188.965 161.581 189.656 164.785 190.357 167.99L190.347 168Z" fill="#07192B"/>
<path d="M177.415 55.7108C181.436 59.8081 184.017 64.769 185.821 70.1233C187.059 73.7888 187.644 77.627 187.913 81.4845C188.038 83.2117 187.222 83.8834 185.456 83.893C183.652 83.893 181.964 82.991 180.141 83.2788C178.519 83.5763 176.907 83.1541 175.285 83.1541C172.8 83.1541 170.343 83.346 167.877 83.5859C166.975 83.6723 166.208 83.5475 165.642 82.7415C161.842 77.3967 159.98 71.5626 161.679 65.0472C163.137 59.4626 166.544 55.5956 172.349 54.1467C174.172 53.6957 176.475 54.377 177.415 55.7012V55.7108Z" fill="#D7EBE7"/>
<path d="M218.773 79.1338C218.696 79.3929 218.485 79.7 218.561 79.9015C218.955 80.957 218.254 81.2065 217.506 81.4463C215.846 82.4347 213.879 82.2716 212.123 82.9145C208.927 83.4998 208.025 82.9049 207.133 79.3353C206.356 76.2264 205.675 73.0982 205.022 69.9604C204.197 65.9879 204.024 61.9385 203.947 57.8892C203.909 55.807 204.408 53.7727 205.588 51.9687C206.912 50.8748 208.256 51.1243 209.647 51.8536C213.572 53.9166 215.5 57.5918 217.036 61.4204C219.195 66.8035 219.511 72.4841 219.108 78.2126C219.089 78.5197 219.089 78.9035 218.763 79.1242L218.773 79.1338Z" fill="#D7EBE7"/>
<path d="M209.723 97.7827C207.66 101.621 205.29 105.229 201.711 107.858C199.773 109.278 197.786 109.787 195.253 109.115C189.803 107.676 187.394 103.626 185.648 98.8861C185.034 97.2069 184.708 95.4221 184.247 93.6853C183.873 92.7738 184.189 92.3612 185.139 92.5819C186.032 92.7834 186.78 93.3111 187.557 93.7717C192.729 96.8807 198.237 98.7326 204.369 98.3584C205.731 98.272 207.046 98.1089 208.332 97.6483C208.764 97.4948 209.349 96.919 209.733 97.7827H209.723Z" fill="#07192B"/>
<path d="M158.107 130.018C158.184 130.306 158.788 130.383 158.443 130.815C158.097 131.256 157.694 131.343 157.099 131.218C154.153 130.556 151.399 129.452 148.828 127.898C142.226 123.906 137.803 118.168 135.644 110.799C134.492 106.874 134.319 102.738 135.49 98.8232C136.546 95.3017 136.037 92.2407 134.434 89.1125C131.537 83.4319 128.802 77.6938 127.401 71.3991C126.134 65.6993 126.758 60.1627 128.389 54.2422C128.504 55.0194 128.562 55.3937 128.61 55.7679C127.881 68.0694 131.297 79.3826 136.747 90.2256C137.582 91.8856 138.33 93.5936 138.426 95.5032C138.474 96.5875 138.359 97.595 137.87 98.6121C137.342 99.706 136.939 100.896 137.025 102.172C136.776 103.89 136.805 105.598 137.006 107.315C137.851 117.583 145.21 126.343 155.487 129.308C156.351 129.558 157.224 129.788 158.088 130.018H158.107Z" fill="#132944"/>
<path d="M177.419 55.7067C174.597 53.1638 170.27 54.6607 167.382 57.0117C162.219 61.2241 160.866 66.8087 161.95 73.2666C162.517 76.6538 164.081 79.5037 165.693 82.4111C166.182 83.2843 166.835 83.2939 167.689 83.2076C171.843 82.7854 175.998 82.5839 180.144 83.2748C180.211 83.4763 181.055 84.004 180.067 83.7929C178.32 83.4283 176.584 83.5818 174.847 83.5434C171.201 83.4475 167.602 83.9272 164.071 84.8004C164.033 84.6085 164.004 84.5126 164.023 84.5126C166.345 83.3995 164.925 82.1425 164.109 81.0102C160.463 75.9725 159.149 70.2727 160.607 64.3619C161.845 59.3338 164.618 55.035 170.212 53.5573C172.937 52.8376 175.298 53.8739 177.601 55.1021C178.09 55.3612 178.148 55.6971 177.428 55.7163L177.419 55.7067Z" fill="#68517B"/>
<path d="M173.047 31.5989C173.709 31.052 174.419 31.3015 175.129 31.4838C179.524 32.664 183.919 33.8731 188.323 35.0245C193.332 36.3295 198.254 35.8498 203.119 34.2377C204.405 33.8155 205.816 33.0478 206.938 34.6215C203.244 37.1548 199.137 38.3734 194.694 38.0184C191.087 37.7305 187.594 36.7709 184.235 35.3988C180.579 33.8923 176.885 32.5297 173.047 31.5989Z" fill="#132944"/>
<path d="M203.88 87.9794C202.191 87.893 200.233 87.5476 198.995 85.6188C198.487 84.832 198.218 83.978 198.755 83.0856C199.254 82.27 200.051 82.0877 200.953 82.1644C202.978 82.3468 204.858 83.1336 206.777 83.7093C207.66 83.978 208.284 84.7936 208.265 85.7724C208.255 86.7991 207.468 87.2789 206.585 87.6531C205.827 87.9698 205.05 87.9506 203.87 87.9794H203.88Z" fill="#68517B"/>
<path d="M218.773 79.127C218.917 71.9207 218.764 64.7624 215.041 58.247C213.649 55.8097 211.999 53.6507 209.466 52.2594C208.19 51.5589 206.942 51.3574 205.599 51.9715C205.061 51.4054 205.618 51.3766 205.954 51.2326C208.065 50.3307 210.032 50.7913 211.874 51.9619C214.513 53.6315 216.154 56.0976 217.161 58.9955C218.553 62.9968 219.416 67.0749 219.656 71.345C219.829 74.358 219.599 77.2654 219.071 80.2017C218.678 79.9234 218.946 79.4628 218.773 79.127Z" fill="#68517B"/>
<path d="M209.718 97.7825C208.125 97.8785 206.734 98.7709 205.093 98.8284C199.173 99.0395 193.617 97.8401 188.483 94.8175C187.466 94.2226 186.42 93.6756 185.403 93.0807C184.655 92.6489 184.261 92.7928 184.223 93.6852C183.916 92.8696 183.59 92.0635 182.141 91.8429C183.474 91.104 184.252 91.3727 184.991 91.7469C187.044 92.7928 189.117 93.8099 191.122 94.9518C196.841 98.1855 202.752 98.8572 208.97 96.5159C210.697 95.8634 212.213 95.0957 213 93.2726C213.115 95.7003 210.966 96.4199 209.699 97.7921L209.718 97.7825Z" fill="#68517B"/>
<path d="M197.122 121.224C197.593 121.781 198.331 121.33 198.946 121.733C198.13 122.241 197.314 122.567 196.403 122.548C192.181 122.471 188.189 123.575 184.236 124.88C181.405 125.811 178.584 126.751 175.753 127.672C175.187 127.855 174.611 128.277 174.055 127.643C179.054 125.513 183.775 122.663 189.235 121.704C191.845 121.243 194.474 120.984 197.122 121.224Z" fill="#07192B"/>
<path d="M242.584 104.208C242.516 112.229 243.044 120.242 243.054 128.264C243.054 130.423 242.996 132.505 242.593 134.616C241.72 139.087 239.12 141.371 234.619 141.957C229.486 142.628 224.39 143.559 219.238 144.096C215.476 144.49 211.734 144.883 207.953 144.922C208.193 143.972 209.066 144.087 209.719 143.933C216.695 142.273 223.671 140.632 230.637 138.963C233.228 138.339 235.665 137.293 238.122 136.276C239.072 135.873 239.647 135.268 239.734 134.136C240.108 129.358 240.578 124.589 240.405 119.781C240.377 118.227 240.607 116.653 240.204 115.108C240.117 114.705 240.06 114.292 240.079 113.88C240.079 110.733 240.089 107.576 240.079 104.428C240.031 103.545 240.05 102.653 240.185 101.78C240.213 101.674 240.233 101.559 240.252 101.454C240.568 99.9951 240.492 98.5173 240.453 97.03C241.077 94.8039 241.192 92.5009 241.576 90.246V90.2172C242.181 88.4708 242.488 86.6284 243.274 84.9396C243.495 84.7957 243.716 84.6517 243.937 84.5078C244.09 87.0794 243.198 89.5071 242.91 92.0211C242.449 96.0801 242.632 100.149 242.593 104.208H242.584Z" fill="#68517B"/>
<path d="M240.246 101.461C238.02 100.789 235.909 99.7911 233.587 99.4648C233.712 98.3421 233.175 97.277 233.213 96.1543C235.679 96.0104 238.126 95.9624 240.448 97.0275C240.486 98.5244 240.563 100.002 240.246 101.461Z" fill="#1C2835"/>
<path d="M212.117 82.9143C213.739 81.7916 215.648 81.734 217.5 81.4461C220.254 81.3214 222.922 81.6572 225.397 82.9334C224.371 83.2117 223.459 82.7319 222.528 82.5208C219.362 81.8204 216.282 82.5208 213.192 83.0102C212.808 83.0678 212.443 83.2981 212.117 82.9143Z" fill="#68517B"/>
<path d="M137.028 107.323C136.548 105.605 136.529 103.888 137.056 102.18C137.056 103.897 137.037 105.605 137.028 107.323Z" fill="#1C6986"/>
<path d="M132.613 24.1572C132.574 24.6658 132.373 24.7809 132.037 24.6946C128.707 23.8598 125.752 25.5006 122.652 26.1435C117.327 27.247 112.894 30.0681 108.959 33.7528C108.134 34.5301 107.232 35.2017 105.966 35.029C105.121 34.9139 104.814 34.5876 104.968 33.6856C105.611 29.8954 106.609 26.2299 108.249 22.7467C110.456 18.0545 112.779 13.4486 115.964 9.32248C117.231 7.68163 117.567 7.5377 118.939 8.95785C123.286 13.4486 127.22 18.3231 131.653 22.7371C132.075 23.1593 132.334 23.7542 132.603 24.1668L132.613 24.1572Z" fill="#07192B"/>
<path d="M120.845 96.6475C118.216 98.1924 115.673 99.7949 113.188 101.512C111.375 102.77 109.753 104.228 108.074 105.629C107.152 106.406 106.749 106.195 106.366 105.236C106.155 104.717 105.943 104.199 105.732 103.671C104.658 100.994 104.638 100.966 107.2 99.8237C111.518 97.895 115.894 96.1486 120.836 96.6379L120.845 96.6475Z" fill="#132944"/>
<path d="M180.652 64.7324C181.698 66.1909 181.621 68.1196 180.46 69.2711C179.347 70.3746 178.032 70.4609 176.487 69.2999C173.1 66.757 171.325 63.2642 170.864 59.0998C170.739 58.0155 171.008 56.8928 172.054 56.2883C172.946 55.7701 173.906 55.9332 174.808 56.413C175.153 56.5953 175.614 56.7488 175.192 57.2574C174.587 57.9867 174.539 58.6872 175.297 59.3205C176.094 59.9826 176.631 59.5508 177.082 58.8407C177.332 58.4473 177.581 58.6584 177.706 58.9174C178.061 59.6371 177.015 59.3109 177.025 59.8002C177.073 60.5487 176.449 61.0956 176.468 61.8633C176.506 64.0031 178.128 65.145 180.652 64.7324Z" fill="#784D6B"/>
<path d="M180.75 64.6144C180.683 64.6912 180.606 64.7583 180.529 64.8159C179.167 65.7371 178.015 65.5644 176.902 64.269C175.847 63.0407 175.808 61.3327 176.768 60.1045C176.931 59.903 177.152 59.7591 177.411 59.7015C178.668 59.4424 179.743 59.6919 180.52 60.9393C181.278 62.1579 181.796 63.3478 180.76 64.6144H180.75Z" fill="white"/>
<path d="M177.222 59.0419C177.107 59.2338 176.934 59.3874 176.732 59.4929C176.013 59.8863 175.389 59.7424 174.794 59.0419C174.401 58.5813 174.247 58.0056 174.324 57.4683C174.449 56.6814 175.255 56.1249 176.022 56.3456C176.368 56.4415 176.675 56.6718 176.934 57.0748C177.346 57.7273 177.634 58.3702 177.222 59.0515V59.0419Z" fill="white"/>
<path d="M197.283 108.756C193.646 108.209 190.326 106.856 188.407 103.162C187.975 102.327 187.966 101.885 189.021 101.655C192.121 100.964 197.667 103.267 199.327 105.992C199.749 106.683 200.191 107.556 199.845 108.199C199.404 109.044 198.31 108.593 197.283 108.756Z" fill="#784D6B"/>
<path d="M213.67 62.139C214.802 62.0143 214.38 62.9258 214.447 63.4152C214.629 64.6435 214.447 65.8525 213.257 66.5242C212.048 67.2151 210.964 66.7065 210.024 65.8525C207.385 63.4344 206.166 60.335 205.974 56.8614C205.878 55.0863 207.059 54.0116 208.536 54.2418C209.208 54.3474 209.995 54.3378 209.688 55.5564C209.486 56.3529 210.072 56.871 211.05 56.7463C212.01 56.6215 212.509 57.0438 212.144 58.0801C212.087 58.176 212.01 58.272 211.914 58.3104C210.983 58.6846 209.889 58.9437 210.177 60.335C210.407 61.4481 211.655 62.2062 213.008 62.1006C213.228 62.0814 213.449 62.0526 213.66 62.1582L213.67 62.139Z" fill="#784D6B"/>
<path d="M213.67 62.1384C212.701 63.0788 211.751 62.7045 210.878 62.0233C210.033 61.3804 209.4 60.5455 209.774 59.4133C210.139 58.2906 211.002 57.8684 212.163 58.0603C214.658 59.039 215.052 60.1137 213.679 62.1288L213.67 62.1384Z" fill="white"/>
<path d="M211.934 56.6856C211.857 56.8488 211.723 56.9927 211.579 57.0983C210.965 57.5492 210.379 57.4821 209.765 56.9063C209.257 56.4362 209.084 55.7645 209.247 55.1599C209.362 54.7185 209.765 54.3923 210.226 54.3443C210.686 54.2963 211.128 54.4499 211.502 54.9201C211.943 55.4766 212.27 56.0331 211.943 56.6952L211.934 56.6856Z" fill="white"/>
</svg>
