<svg width="114" height="199" viewBox="0 0 114 199" fill="none" xmlns="http://www.w3.org/2000/svg">
<path d="M71.7266 18.6373C77.3398 15.6742 91.7221 11.0246 94.9021 12.181C96.9017 15.9873 94.9021 32.9715 94.9021 32.9715L73.7261 22.4919L71.7266 18.6373Z" fill="#5F4769"/>
<path opacity="0.48" d="M94.7387 32.8006C94.7869 32.3429 94.9555 30.9456 95.1001 29.0665C95.0519 29.0665 95.0037 29.0665 94.9555 29.0424C93.9437 28.8497 93.2691 27.862 93.0523 26.8742C92.8355 25.8865 92.956 24.8265 92.9078 23.8147C92.8114 21.9115 92.2091 19.8397 92.9319 18.1774C91.8237 20.2492 91.0769 22.4897 90.7155 24.8024C89.2219 24.5374 88.4269 22.4415 89.3905 21.261C87.1259 20.466 84.5964 19.8638 82.4523 18.7556C80.8382 17.9365 80.5732 16.5874 80.1396 15.0938C76.7668 16.2501 73.5627 17.551 71.5391 18.611L73.5386 22.4656L94.4496 32.8247C94.546 32.8247 94.6423 32.8006 94.7387 32.8006Z" fill="#1A131E"/>
<path opacity="0.48" d="M92.9297 18.1706C93.0261 18.002 93.1224 17.8093 93.2188 17.6406C93.0983 17.8093 93.002 17.9779 92.9297 18.1706Z" fill="#1A131E"/>
<path d="M44.3953 143.758C22.9302 145.661 16.4015 157.562 19.7502 161.85C21.822 164.5 25.9656 157.345 28.977 156.911C31.9884 156.502 44.853 157.08 49.9362 151.371C54.9953 145.661 44.3953 143.758 44.3953 143.758Z" fill="#8974A3"/>
<path d="M48.7783 149.431C52.2865 148.439 54.8164 146.524 54.429 145.154C54.0416 143.784 50.8837 143.478 47.3755 144.47C43.8674 145.461 41.3375 147.376 41.7248 148.746C42.1122 150.116 45.2702 150.423 48.7783 149.431Z" fill="#65CAC6"/>
<path d="M74.0391 148.992C79.1223 148.992 84.9764 151.16 85.8677 153.329C86.7591 155.497 76.1832 154.22 76.1832 154.22L74.0391 148.992Z" fill="#8974A3"/>
<path d="M34.6831 153.289C38.2562 152.566 40.9772 151.113 40.7608 150.043C40.5443 148.974 37.4723 148.694 33.8993 149.417C30.3262 150.14 27.6052 151.593 27.8216 152.663C28.0381 153.732 31.1101 154.013 34.6831 153.289Z" fill="#65CAC6"/>
<path opacity="0.48" d="M49.9124 151.387C50.4905 150.736 50.876 150.11 51.0928 149.556L49.0692 145.412C47.0455 144.232 44.4196 143.75 44.4196 143.75C37.6259 144.352 32.3259 145.966 28.375 148.014C30.6877 148.665 33.7714 149.532 36.7587 150.375C42.685 152.061 44.1787 153.555 48.9246 152.35C49.2619 152.061 49.5992 151.748 49.9124 151.387Z" fill="#1A131E"/>
<path d="M98.9782 59.1296C98.665 54.2151 100.568 48.1682 98.665 39.1341C96.7618 30.0759 89.6068 21.4995 75.4895 17.8618C61.3721 14.224 44.2193 13.7422 34.848 17.8618C31.8366 10.0804 23.0915 -0.230567 20.8752 0.708982C18.6588 1.67262 4.20421 20.8731 2.92738 32.4609C-3.74582 48.1923 1.96375 75.9693 11.9856 87.557C19.1406 95.8443 33.6434 101.313 46.9898 103.385C44.4121 106.059 41.3043 109.456 38.3411 112.323C33.0893 117.406 25.1634 121.525 24.9947 129.475C24.8261 137.425 45.4721 149.953 49.9289 151.398C49.6157 152.988 39.9312 156.481 34.5348 156.481C29.1384 156.481 27.8616 156.795 24.9947 159.661C28.6566 157.758 29.5961 159.493 32.4629 160.625C35.3298 161.757 38.028 162.697 40.5575 162.215C39.9312 165.708 37.8593 170.478 37.8593 170.478C32.9448 170.791 26.2716 174.598 24.9947 177.946C22.6097 176.983 20.7065 177.465 20.5379 179.223C20.3693 180.982 23.7902 184.933 32.9929 185.728C31.4752 187.486 30.3188 190.498 30.1743 191.751C30.0538 193.027 34.6552 198.255 44.3398 198.255C54.0244 198.255 61.9744 192.69 64.3353 187.462C72.4299 188.257 82.0422 186.354 83.7527 185.559C81.4881 183.487 81.0786 179.392 79.8981 177.609C78.6213 175.706 74.6704 173.634 72.4299 173.321C75.0317 166.021 76.1399 159.348 76.1399 159.348C82.259 159.348 82.8372 155.373 83.8972 155.686C84.9572 156 86.234 156.481 86.7159 155.518C87.1977 154.554 85.9449 152.988 84.6681 152.82C83.3913 152.651 77.3445 152.338 77.3445 152.338C77.3445 152.338 78.1395 146.315 78.1395 142.653C84.0177 138.991 88.9804 129.644 89.0527 126.295C89.1009 123.284 80.0667 109.191 72.0204 102.493C85.3427 98.9521 99.0745 90.737 101.965 82.3052C105.651 71.657 99.2914 64.0442 98.9782 59.1296ZM83.7768 185.511C81.5122 183.439 81.1027 179.344 79.9222 177.561C78.6454 175.658 74.6945 173.586 72.454 173.273M89.0768 126.295C89.125 123.284 80.0908 109.191 72.0445 102.493ZM34.8239 17.8377C31.8125 10.0563 23.0675 -0.254658 20.8511 0.684891ZM98.665 39.11C96.7618 30.0518 89.6068 21.4754 75.4895 17.8377C61.3721 14.1999 44.2193 13.7181 34.848 17.8377M48.9653 131.523C48.9653 131.523 47.2066 129.764 44.8457 128.343C47.3753 125.645 50.4107 121.525 50.8685 119.454C49.9048 126.295 48.9653 131.523 48.9653 131.523Z" fill="#5F4769"/>
<path d="M34.2683 18.0565C33.0638 14.9488 30.7992 11.1424 28.0769 7.60103C25.5474 4.34874 23.0901 1.93964 21.6687 1.33737C21.2592 1.16873 21.1146 1.21691 21.1146 1.21691L20.6328 0.108729C21.0424 -0.059908 21.5483 -0.0358166 22.1265 0.205093C25.451 1.60237 32.6301 10.4438 35.4006 17.5747L34.2683 18.0565Z" fill="#7D6487"/>
<path opacity="0.48" d="M79.9717 81.755C79.9717 81.755 65.9507 88.2355 56.8925 91.2469C47.8343 94.2582 37.2825 93.1019 25.3333 81.2973C13.3842 69.4927 14.1551 39.4512 18.901 32.8021C16.5642 22.2021 17.7447 7.28974 21.021 0.640625C20.9488 0.640625 20.9006 0.664717 20.8283 0.688808C18.6119 1.65245 4.15733 20.853 2.88051 32.4407C-3.7927 48.1722 1.91687 75.9491 11.9387 87.5368C19.0938 95.8242 33.5965 101.293 46.943 103.365C45.1843 105.196 43.1848 107.364 41.137 109.46C44.5579 109.411 51.1348 112.495 50.8457 119.457C49.8821 126.275 48.9425 131.527 48.9425 131.527L54.0257 135.622C54.0257 135.622 54.628 112.037 55.7844 110.64C56.8203 109.387 60.9157 106.81 65.0594 109.243C67.9021 122.637 66.9626 154.534 61.8312 174.072C60.2412 175.83 58.0248 176.144 58.0248 176.144C60.0966 179.468 61.6866 182.648 61.2048 185.659C60.723 188.671 59.3016 191.225 56.9166 192.959C55.2543 194.188 52.5802 196.187 50.9421 197.32C57.5189 195.561 62.5539 191.393 64.3848 187.394C72.4794 188.189 82.0917 186.286 83.8022 185.491C83.5854 185.033 83.3685 184.527 83.1276 183.997C82.5976 184.19 82.0194 184.359 81.3449 184.527C77.394 185.491 70.4317 184.383 68.7453 181.203C67.0589 178.023 65.6617 174.698 68.7453 174.048C71.829 173.421 73.3467 173.566 73.3467 173.566C73.0335 173.397 72.7444 173.301 72.4794 173.253C72.8408 172.265 73.154 171.277 73.4671 170.314C71.7567 172.048 68.938 173.879 66.3603 170.868C69.3958 158.581 73.9249 123.697 67.9503 108.713C69.203 108.255 70.7689 108.665 71.853 109.532C71.853 109.532 76.7676 123.24 77.394 128.805C77.394 128.612 77.4421 128.419 77.5144 128.227C77.8035 134.129 78.4781 139.598 78.189 142.633C84.0672 138.971 89.0299 129.624 89.1022 126.275C86.9822 132.635 81.2244 137.718 79.9958 138.032C78.8394 138.345 78.6708 132.659 77.6349 128.01C78.3817 126.564 80.8631 124.902 83.1276 123.505C83.1276 123.505 81.2244 123.288 78.3576 124.998C78.189 124.492 74.5512 112.471 74.0694 108.641C75.5149 107.87 77.4662 107.87 78.3817 108.906C76.334 106.472 74.1658 104.232 72.0699 102.497C85.3922 98.956 99.1241 90.741 102.015 82.3091C102.16 81.8755 102.304 81.4418 102.425 81.0082L79.9717 81.755Z" fill="#1A131E"/>
<path opacity="0.48" d="M78.1408 143.949C78.1649 143.492 78.1649 143.058 78.1649 142.648C78.1167 143.251 78.1167 143.66 78.1408 143.949Z" fill="#1A131E"/>
<path d="M102.041 64.7652C105.751 62.308 111.147 61.537 112.52 62.0189C113.894 62.5007 113.58 64.452 112.52 64.7652C111.46 65.0543 107.269 64.5243 103.125 66.8612C98.9813 69.1739 102.041 64.7652 102.041 64.7652Z" fill="#5F4769"/>
<path d="M102.159 70.0421C106.35 68.9821 111.458 70.0903 112.518 71.0058C113.578 71.9212 112.614 73.6558 111.554 73.5594C110.494 73.463 106.905 71.5599 102.375 72.3549C97.8463 73.1499 102.159 70.0421 102.159 70.0421Z" fill="#5F4769"/>
<path d="M36.726 68.3358C36.5574 70.7208 34.1965 72.624 34.8228 78.0204C35.4492 83.4167 39.4242 90.7163 50.3856 92.3063C61.347 93.8963 69.4416 85.9463 73.4166 86.2836C77.3916 86.5968 90.0876 88.4999 95.484 86.7654C100.88 85.0067 106.156 77.3699 104.687 69.2994C103.121 60.5544 100.23 61.518 100.085 60.723C99.9167 59.928 100.712 45.3289 97.2185 36.897C93.7253 28.4652 88.6421 25.9356 87.2208 25.6224C85.149 27.2124 82.3062 28.5615 77.3676 28.6338C68.478 28.8024 59.5884 21.9606 51.5661 23.382C42.3392 25.0202 30.6792 30.9947 30.2215 44.3411C29.7637 57.6876 35.4492 64.6739 36.726 68.3358Z" fill="#FFD3A4"/>
<path d="M36.726 68.6483C36.5574 71.0333 34.1965 72.9365 34.8228 78.3328C35.4492 83.7292 39.4242 91.0288 50.3856 92.6188C61.347 94.2088 69.4416 86.2588 73.4166 86.5961C77.3916 86.9092 90.0876 88.8124 95.484 87.0779C100.88 85.3192 106.156 77.6824 104.687 69.6119C103.121 60.8669 100.23 61.8305 100.085 61.0355C99.9167 60.2405 100.712 45.6414 97.2185 37.2095C93.7253 28.7777 88.6421 26.2481 87.2208 25.9349C85.149 27.5249 82.3062 28.874 77.3676 28.9463C68.478 29.1149 59.5884 22.2731 51.5661 23.6945C42.3392 25.3327 30.6792 31.3072 30.2215 44.6536C29.7637 58 35.4492 65.0105 36.726 68.6483Z" fill="#FFD3A4"/>
<path opacity="0.82" d="M97.2184 37.2095C93.7252 28.8018 88.642 26.2481 87.2207 25.9349C85.1488 27.5249 82.3061 28.874 77.3674 28.9463C68.4779 29.1149 59.5883 22.2731 51.566 23.6945C42.3391 25.3327 30.6791 31.3072 30.2214 44.6536C29.7636 58.0001 35.4732 64.9864 36.7259 68.6242C36.7259 68.7687 36.7018 68.9374 36.6778 69.0819C39.2314 67.7328 41.6405 65.3237 44.0255 64.0951C51.9274 60.0237 61.2506 58.6264 69.9474 60.5537C71.0556 60.7946 72.1397 61.0837 73.272 61.0837C74.7897 61.0596 76.2352 60.5055 77.6324 59.9032C80.1379 58.8191 83.1252 57.5905 85.3897 59.0842C85.8957 59.3973 86.3293 59.8551 86.9075 59.9996C87.7988 60.2164 88.642 59.6142 89.4611 59.1805C92.6893 57.5182 96.5198 58.5541 100.085 59.4696C100.061 55.3019 100.109 44.1477 97.2184 37.2095Z" fill="#FFC79B"/>
<path d="M70.2031 61.3732C71.7931 57.3018 71.8894 48.0027 66.3244 42.0522C60.7594 36.1017 53.2189 39.2817 52.5203 47.6895C52.1107 52.58 53.6526 55.9286 55.0257 57.8559C56.0135 59.2532 56.9048 59.9036 56.9048 59.9036C56.9048 59.9036 61.193 59.3254 64.0599 59.9036C66.9267 60.4818 70.2031 61.3732 70.2031 61.3732Z" fill="#DCE8E9"/>
<path d="M66.2675 42.1292C59.0402 37.5519 54.2702 42.1051 53.9329 49.766C53.7643 52.4642 54.1016 55.066 55.1134 57.8124L54.9448 57.9329C53.427 55.861 52.5598 53.3315 52.367 50.7778C52.1743 48.2242 52.3911 45.5501 53.5475 43.2374C54.6798 40.9005 56.9684 39.0455 59.6184 38.8769C62.2684 38.6842 64.7016 40.1055 66.4362 42.0087C66.4121 41.9846 66.2675 42.1292 66.2675 42.1292Z" fill="#B3DAD6"/>
<path d="M66.3396 42.0516C62.2923 38.2452 56.8236 38.2452 54.1495 43.4971C52.0777 47.9057 52.5595 53.6153 55.0409 57.8553C51.8127 53.9766 51.1141 47.6166 53.3064 43.0634C56.125 37.4743 62.5814 37.2334 66.3396 42.0516Z" fill="#A7494D"/>
<path d="M71.0161 61.7099C66.6074 60.0477 58.1033 58.8431 54.056 61.7099L54.0078 61.6617C57.0674 58.6745 63.0419 59.0117 66.8965 59.9995C68.342 60.3849 69.7392 60.8908 71.0161 61.6617C71.0401 61.6377 71.0161 61.7099 71.0161 61.7099Z" fill="#BD9980"/>
<path d="M66.2455 43.64C66.4659 42.7077 64.8916 41.5374 62.7292 41.0262C60.5668 40.5149 58.6352 40.8562 58.4147 41.7885C58.1943 42.7208 59.7686 43.891 61.931 44.4023C64.0934 44.9136 66.0251 44.5723 66.2455 43.64Z" fill="#C1443D"/>
<path d="M60.7957 41.4805C61.3498 41.4805 61.9521 41.5528 62.5543 41.6974C64.6743 42.2033 65.5898 43.191 65.5416 43.456C65.5175 43.5765 65.0357 43.9137 63.8553 43.9137C63.3012 43.9137 62.6989 43.8415 62.0966 43.6969C59.9766 43.191 59.0611 42.2033 59.1093 41.9383C59.1334 41.8178 59.5911 41.4805 60.7957 41.4805ZM60.7957 40.7578C59.5189 40.7578 58.5552 41.1192 58.4107 41.7696C58.1939 42.7092 59.7598 43.8896 61.928 44.3955C62.6025 44.5642 63.2771 44.6365 63.8553 44.6365C65.1321 44.6365 66.0957 44.2751 66.2402 43.6246C66.4571 42.6851 64.8912 41.5046 62.723 40.9987C62.0484 40.8542 61.3739 40.7578 60.7957 40.7578Z" fill="#A7494D"/>
<path d="M86.3835 60.7917C85.7571 59.274 84.5525 54.3112 84.0225 48.8667C83.6612 45.2048 83.613 41.3021 84.2394 38.098C86.263 37.6162 91.6112 39.7362 93.0567 44.6748C94.5021 49.6135 94.7912 57.0335 93.7312 58.7922C92.5026 58.8403 91.4667 57.8767 90.1416 58.7922C88.8407 59.7317 86.3835 60.7917 86.3835 60.7917Z" fill="#DCE8E9"/>
<path d="M84.027 48.8688C83.4247 45.3033 83.232 41.6174 83.8825 38.0278C83.9065 37.8833 84.027 37.7628 84.1474 37.7387C85.2797 37.5219 86.2916 37.811 87.2311 38.1724C90.0257 39.2806 92.3866 41.6897 93.037 44.677C91.977 41.9547 89.7125 39.8106 86.9902 38.8228C86.147 38.5097 85.1834 38.2928 84.3161 38.4374L84.5811 38.1483C83.9306 41.6897 83.9788 45.3033 84.027 48.8688Z" fill="#A7494D"/>
<path d="M86.3594 61.3458C87.5398 58.7922 91.8762 57.7322 94.3817 58.6236C94.6708 58.744 94.9599 58.8886 95.2008 59.1054L95.1767 59.1777C94.9117 59.0813 94.5985 59.009 94.3335 58.9608C91.9967 58.7199 89.2503 59.3704 87.2989 60.6472C86.9617 60.864 86.6726 61.129 86.4076 61.4181C86.4076 61.394 86.3594 61.3458 86.3594 61.3458Z" fill="#BD9980"/>
<path d="M92.0213 42.5383C92.2555 41.7195 91.0349 40.6524 89.2951 40.1548C87.5553 39.6572 85.955 39.9175 85.7209 40.7363C85.4867 41.555 86.7073 42.6221 88.4471 43.1198C90.1869 43.6174 91.7872 43.357 92.0213 42.5383Z" fill="#C1443D"/>
<path d="M87.6046 40.5007C88.0864 40.5007 88.5923 40.573 89.1223 40.7175C90.8087 41.1993 91.5073 42.0907 91.411 42.3557C91.3628 42.5244 90.9291 42.7412 90.1101 42.7412C89.6282 42.7412 89.1223 42.6689 88.5923 42.5244C87.8455 42.3075 87.1709 41.9703 86.7373 41.5848C86.4 41.2716 86.2796 41.0066 86.3037 40.8862C86.3518 40.7416 86.7855 40.5007 87.6046 40.5007ZM87.6046 39.8984C86.6168 39.8984 85.87 40.1875 85.7255 40.7416C85.4846 41.5607 86.7132 42.6448 88.4478 43.1266C89.05 43.2953 89.6282 43.3675 90.1341 43.3675C91.1219 43.3675 91.8687 43.0784 92.0132 42.5244C92.2541 41.7053 91.0255 40.6212 89.291 40.1393C88.6887 39.9707 88.1105 39.8984 87.6046 39.8984Z" fill="#A7494D"/>
<path d="M87.1242 41.2584C87.076 41.0657 86.9314 40.9693 86.7628 40.873C86.7387 40.8489 86.7146 40.8489 86.6905 40.8248C86.1123 40.6321 85.4619 40.7284 84.9801 41.0657C84.7873 41.1862 84.7392 41.4512 84.9078 41.6439C85.2451 42.0052 85.7992 42.1257 86.2569 41.9571C86.281 41.933 86.3292 41.933 86.3532 41.9089C86.4978 41.8848 86.6423 41.8607 86.7628 41.8125C86.8833 41.7643 86.9796 41.7162 87.0519 41.5957C87.1242 41.5234 87.1483 41.3789 87.1242 41.2584Z" fill="white"/>
<path d="M59.757 42.3834C59.7088 42.1907 59.5642 42.0943 59.3956 41.998C59.3715 41.9739 59.3474 41.9739 59.3233 41.9498C58.7451 41.7571 58.0947 41.8534 57.6129 42.1907C57.4201 42.3112 57.372 42.5762 57.5406 42.7689C57.8779 43.1302 58.432 43.2507 58.8897 43.0821C58.9138 43.058 58.962 43.058 58.9861 43.0339C59.1306 43.0098 59.2752 42.9857 59.3956 42.9375C59.5161 42.8893 59.6124 42.8412 59.6847 42.7207C59.757 42.6243 59.7811 42.5039 59.757 42.3834Z" fill="white"/>
<path d="M81.1345 61.199C81.3272 62.0663 85.784 62.3554 86.7236 61.4881C86.82 60.4281 85.4468 59.609 84.3386 59.5367C83.2304 59.4644 80.8936 60.1149 81.1345 61.199Z" fill="#C1443D"/>
<path d="M84.2654 62.3379C83.3499 62.3379 82.4104 62.2174 81.784 62.0247C81.2058 61.832 80.8926 61.5911 80.8203 61.2779C80.7481 60.9406 80.8444 60.6274 81.0853 60.3383C81.7358 59.5674 83.4222 59.2061 84.3617 59.2543C85.2049 59.3024 86.0963 59.7361 86.6022 60.3143C86.9154 60.6756 87.0599 61.1093 87.0358 61.5429V61.6634L86.9395 61.7356C86.4817 62.1693 85.3735 62.3379 84.2654 62.3379ZM81.4226 61.1574C81.4467 61.2056 81.6635 61.3984 82.3381 61.5429C83.7835 61.8561 85.7831 61.7597 86.4094 61.3743C86.3854 61.1574 86.289 60.9406 86.1204 60.7238C85.7349 60.2661 84.9881 59.9288 84.3135 59.8806C83.5426 59.8324 82.049 60.1697 81.5431 60.7479C81.3985 60.9165 81.4226 61.0611 81.4226 61.1574Z" fill="#A7494D"/>
<path d="M66.3438 64.7585C67.6928 66.3485 68.6565 71.9858 69.2829 74.443C69.9092 76.9003 72.6074 79.0444 76.992 76.6594C81.3765 74.2744 83.7374 70.9498 83.7856 70.2994C82.557 70.2994 78.4856 69.8898 77.8111 69.9862C77.1365 70.0826 72.5351 68.5889 71.981 68.3239C71.4269 68.083 68.1506 66.0594 67.5724 65.4089C66.9942 64.7344 66.9942 64.7344 66.9942 64.7344H66.3438V64.7585Z" fill="#4B1B2E"/>
<path d="M90.4089 68.0212L89.4453 67.6839L89.6621 67.6358C89.3489 68.0453 89.0357 68.4789 88.6262 68.8403C87.8312 69.5871 86.7953 70.0208 85.7593 70.2858C79.857 71.6108 70.5338 70.0208 66.7034 64.9616L66.9925 65.1062C66.7034 65.058 66.077 65.323 65.7879 65.3953C65.3302 65.5398 64.8484 65.6362 64.3906 65.5398C64.8484 65.5157 65.2579 65.2989 65.6434 65.058C66.1252 64.793 66.5347 64.3835 67.1611 64.3594L67.2815 64.5039C70.5579 68.1417 76.3398 69.563 81.0857 69.828C83.0853 69.9003 85.2053 69.9244 87.0603 69.2017C88.0239 68.8403 88.7466 68.1658 89.4212 67.3948L89.5416 67.2985L89.638 67.3707L90.4089 68.0212Z" fill="#994F4D"/>
<path d="M76.1941 77.0845C74.9173 72.5794 71.5205 71.7122 68.75 72.1217C68.9427 73.0372 69.1355 73.8563 69.28 74.4585C69.8823 76.7713 72.2914 78.7949 76.1941 77.0845Z" fill="#C04A60"/>
<path d="M44.3352 198.234C48.7679 198.234 52.8393 197.077 56.1639 195.295C47.997 196.499 45.5879 192.187 42.2634 191.729C38.9388 191.271 36.9392 197.053 32.5547 194.765C34.8433 196.475 38.7461 198.234 44.3352 198.234Z" fill="#8974A3"/>
<path d="M77.3777 186.941C73.0654 187.375 82.9427 186.797 84.5327 185.52C86.1227 184.243 86.9177 182.196 85.9541 182.027C85.0145 181.882 83.4486 186.339 77.3777 186.941Z" fill="#8974A3"/>
<path d="M24.5124 66.6011C14.9965 65.6374 10.371 71.8529 9.74462 72.9611C9.11825 74.0693 9.74462 75.5388 11.5033 74.8884C13.2619 74.2379 15.7915 68.5284 24.5124 68.6729C25.6206 68.3356 25.6206 66.6734 24.5124 66.6011Z" fill="#5F4769"/>
<path opacity="0.64" d="M9.77254 72.9688C9.45935 74.101 10.0857 74.9442 11.2662 74.3178C11.483 74.1733 11.6516 74.0047 11.8444 73.8119C12.3262 73.2819 12.8562 72.6797 13.3862 72.1015C16.1807 69.1142 20.493 67.6687 24.4921 68.6324V68.7287C23.7212 68.7287 22.9503 68.7528 22.1794 68.8492C19.8908 69.1142 17.6503 69.9333 15.7712 71.2824C14.4944 72.1737 13.4585 73.306 12.3262 74.366C11.5794 75.2092 9.67617 75.5465 9.43526 74.0769C9.36299 73.6674 9.48344 73.2819 9.67617 72.9206C9.70026 72.9206 9.77254 72.9688 9.77254 72.9688Z" fill="#1A131E"/>
<path d="M27.6712 71.2266C19.2634 74.0452 15.6016 81.5134 15.6016 83.4166C15.6016 85.3198 18.0829 85.4884 18.902 84.3802C19.7211 83.2721 19.8657 76.382 27.6712 74.2138C29.0925 74.0452 30.2248 71.2747 27.6712 71.2266Z" fill="#5F4769"/>
<path d="M24.4878 66.6274C21.8619 66.8683 19.3565 67.1815 16.9233 68.121C15.4778 68.6751 14.1769 69.3738 12.9001 70.241C11.7919 71.012 10.7078 71.9033 9.74415 72.9392L9.67188 72.9151C10.4187 71.7106 11.4305 70.6988 12.5146 69.8074C14.7069 68.0488 17.4292 66.8924 20.2478 66.5792C21.6451 66.3624 23.0665 66.4347 24.4637 66.531C24.5119 66.5551 24.4878 66.6274 24.4878 66.6274Z" fill="#7D6487"/>
<path d="M27.6959 71.2689C26.4191 71.9916 25.1182 72.7144 23.9136 73.5575C23.5041 73.8466 23.0222 74.2321 22.6127 74.5212C22.2995 74.8103 21.9141 75.1235 21.5768 75.3885C21.4563 75.5089 20.7336 76.1835 20.5891 76.3039C18.8063 78.0867 17.1681 80.0862 16.0359 82.3508C15.8913 82.688 15.7468 83.0253 15.6504 83.3867H15.5781C15.6022 82.8085 15.7949 82.2785 15.9877 81.7485C17.8427 77.2435 21.6732 73.678 26.1059 71.7507C26.4914 71.6062 27.2864 71.293 27.6718 71.1484C27.6718 71.1966 27.6959 71.2689 27.6959 71.2689Z" fill="#7D6487"/>
<path opacity="0.64" d="M15.6525 83.4228C15.8934 84.6515 17.3147 84.9165 18.182 84.2178C18.2302 84.1456 18.3025 84.0974 18.3506 84.0251C18.447 83.8565 18.4711 83.6878 18.5193 83.4469C18.8325 82.0737 19.1938 80.7246 19.8202 79.4478C21.2657 76.4846 24.3734 74.3164 27.6498 74.1719L27.6739 74.2682C26.1802 74.7019 24.7589 75.3523 23.5543 76.316C21.6993 77.7373 20.5188 79.8333 19.7961 82.0255C19.5311 82.7724 19.3866 83.5192 19.0734 84.2419C18.2302 85.7115 15.4838 85.3019 15.5561 83.4228H15.6525Z" fill="#1A131E"/>
<path opacity="0.48" d="M22.3953 28.5864C26.1775 24.8764 29.4057 20.9496 31.2608 20.2509C29.1889 20.2509 27.4785 11 25.3344 11C24.2744 11 22.6603 14.1559 22.3953 18.1791C22.1303 22.2987 23.1903 27.2855 22.3953 28.5864Z" fill="#1A131E"/>
<path opacity="0.48" d="M42.2979 126.784C40.3947 125.363 38.8047 125.507 38.8047 125.507C42.6111 127.892 47.8388 130.518 47.8629 130.542C47.1161 129.916 46.0802 129.097 44.8515 128.374C47.2847 125.772 50.1756 121.869 50.8261 119.749L50.8984 119.484C48.1761 122.496 44.5143 127.097 42.2979 126.784Z" fill="#1A131E"/>
<path opacity="0.48" d="M55.0283 153.18C53.6792 153.011 52.3542 152.265 51.7519 151.036C51.4388 150.434 51.3424 149.735 51.1015 149.109C50.2342 146.796 47.8492 145.495 45.7051 144.266C40.2124 141.135 35.081 137.352 30.4555 133.016C28.5764 131.257 26.6732 129.21 26.2637 126.656C26.1432 125.885 26.4564 124.705 26.7455 123.5C26.6973 123.572 26.6732 123.62 26.625 123.693C26.5528 123.789 26.5046 123.91 26.4323 124.006C26.3841 124.078 26.3359 124.175 26.3118 124.247C26.2396 124.367 26.1914 124.488 26.1191 124.608C26.095 124.68 26.0468 124.729 26.0228 124.801C25.9505 124.945 25.8782 125.114 25.83 125.259C25.8059 125.307 25.7818 125.379 25.7577 125.427C25.6855 125.596 25.6373 125.765 25.565 125.933C25.5409 125.981 25.5409 126.03 25.5168 126.078C25.4687 126.246 25.4205 126.415 25.3723 126.584C25.3723 126.608 25.3482 126.656 25.3482 126.68C25.3 126.873 25.2518 127.041 25.2037 127.234C25.2037 127.282 25.1796 127.306 25.1796 127.355C25.1314 127.547 25.1073 127.74 25.0832 127.933C25.0832 127.981 25.0591 128.005 25.0591 128.053C25.035 128.246 25.0109 128.463 24.9868 128.655C24.9868 128.68 24.9868 128.728 24.9868 128.752C24.9628 128.969 24.9627 129.185 24.9627 129.426C24.7941 137.376 45.4401 149.904 49.8969 151.349C49.5838 152.939 39.8992 156.432 34.5028 156.432C29.1064 156.432 27.8296 156.746 24.9627 159.612C28.6246 157.709 29.5641 159.444 32.431 160.576C35.2978 161.708 37.996 162.648 40.5255 162.166C40.5014 162.311 40.4774 162.455 40.4292 162.6C40.4292 162.648 40.4051 162.672 40.4051 162.72C40.381 162.841 40.3569 162.985 40.3087 163.106C40.3087 163.13 40.3087 163.154 40.2846 163.154C40.2605 163.298 40.2124 163.443 40.1642 163.587C40.1642 163.636 40.1401 163.66 40.1401 163.708C40.116 163.828 40.0678 163.949 40.0437 164.069C40.0437 164.093 40.0196 164.142 40.0196 164.166C39.9714 164.31 39.9474 164.455 39.8992 164.623C39.8992 164.672 39.8751 164.696 39.8751 164.744C39.851 164.864 39.8028 164.985 39.7546 165.105C39.7546 165.153 39.7305 165.177 39.7305 165.226C39.6823 165.37 39.6342 165.515 39.586 165.659C39.586 165.683 39.5619 165.732 39.5619 165.756C39.5137 165.876 39.4896 165.997 39.4414 166.117C39.4174 166.165 39.4173 166.189 39.3933 166.237C39.3451 166.382 39.2969 166.527 39.2487 166.671C39.2487 166.695 39.2246 166.719 39.2246 166.743C39.1764 166.864 39.1283 166.984 39.1042 167.105C39.0801 167.153 39.0801 167.177 39.056 167.225C39.0078 167.37 38.9596 167.49 38.9114 167.611C38.8633 167.755 38.8151 167.876 38.7669 167.996C38.7669 168.02 38.7428 168.068 38.7428 168.092C38.6946 168.213 38.6464 168.333 38.6223 168.43C38.6223 168.43 38.6223 168.43 38.6223 168.454C38.5742 168.574 38.526 168.695 38.4778 168.815C38.4778 168.839 38.4537 168.863 38.4537 168.863C38.4055 168.96 38.3814 169.056 38.3333 169.152V169.177C38.2851 169.273 38.261 169.393 38.2128 169.49C38.2128 169.49 38.1887 169.538 38.1646 169.61C37.996 170.044 37.8755 170.309 37.8273 170.405C37.8273 170.429 37.8273 170.429 37.8273 170.429C37.8033 170.429 37.7792 170.429 37.7551 170.429C37.1046 171.61 35.6832 173.585 33.226 174.549C31.0578 175.392 29.3955 174.91 28.1428 174.26C27.8537 174.477 27.5887 174.669 27.3478 174.886L27.3237 174.91C27.2514 174.982 27.155 175.055 27.0828 175.103L27.0587 175.127C26.9141 175.247 26.7937 175.392 26.6491 175.512C26.625 175.537 26.6009 175.537 26.6009 175.561C26.5528 175.609 26.4805 175.681 26.4323 175.729C26.4082 175.753 26.36 175.802 26.3359 175.85C26.2878 175.898 26.2396 175.946 26.1914 175.994C26.1432 176.067 26.0709 176.115 26.0228 176.187C25.9746 176.235 25.9264 176.283 25.9023 176.356C25.8541 176.404 25.8059 176.476 25.7577 176.524C25.7337 176.572 25.7096 176.597 25.6614 176.645C25.6132 176.717 25.565 176.765 25.5168 176.837C25.4927 176.862 25.4687 176.886 25.4687 176.934C25.4205 177.03 25.3482 177.127 25.3 177.199C25.2759 177.223 25.2759 177.247 25.2518 177.271C25.2037 177.343 25.1796 177.416 25.1314 177.488C25.1073 177.512 25.1073 177.536 25.0832 177.56C25.035 177.657 24.9868 177.753 24.9627 177.849C22.5777 176.886 20.6746 177.367 20.5059 179.126C20.3373 180.885 23.7582 184.836 32.961 185.631C31.9251 186.811 31.0578 188.594 30.5759 190.015C30.7928 190.039 30.9855 190.063 31.2023 190.088C32.455 188.979 39.056 180.716 41.1278 178.644C43.1996 176.572 44.621 174.838 44.7896 173.561C44.9101 172.573 45.3437 171.947 45.8256 170.429C47.3674 170.285 48.9092 169.996 50.4028 169.682C51.6797 169.417 53.0288 169.08 53.9201 168.141C54.6188 167.394 54.932 166.358 55.197 165.37C55.8233 163.178 56.4015 160.6 55.0283 158.769C56.7629 156.914 58.0879 154.698 58.9551 152.313C57.7506 152.939 56.3774 153.325 55.0283 153.18Z" fill="#1A131E"/>
<path d="M48.9942 131.469C54.4628 135.805 61.1601 141.611 59.9556 149.344C59.7869 150.38 59.4496 151.392 59.016 152.356L58.8955 152.307C59.1124 151.272 59.281 150.26 59.3051 149.248C59.5701 144.165 56.3419 139.901 53.0896 136.239C51.7164 134.697 50.271 133.203 48.9219 131.565L48.9942 131.469Z" fill="#7D6487"/>
<path opacity="0.48" d="M86.3305 155.949C85.1018 155.13 83.56 154.793 81.7532 154.624C79.7536 154.407 77.3686 152.359 77.3686 152.359C76.8868 154.576 76.1641 159.346 76.1641 159.346C82.2832 159.346 82.8614 155.371 83.9214 155.684C84.7646 155.901 85.7282 156.262 86.3305 155.949Z" fill="#1A131E"/>
<path d="M98.5977 39.1329C95.4658 28.2197 86.3835 21.8115 75.8076 19.041C68.3875 17.1137 60.7507 16.0537 53.0898 15.7887C50.7529 15.7164 47.9343 15.7646 45.5975 15.9092C44.8506 15.9814 44.0556 16.0537 43.3088 16.1019C42.6343 16.1742 41.6706 16.3187 41.0202 16.391C40.3697 16.4873 39.4061 16.6801 38.7556 16.8005C37.9124 17.0173 36.8042 17.2583 35.9611 17.5474L34.8529 17.9087L34.8047 17.7883C45.5734 13.4037 60.3412 14.5601 71.5916 16.8246C82.1435 18.8483 92.5026 23.8833 97.104 34.122C97.2968 34.5797 97.5858 35.3024 97.7545 35.7361C97.9231 36.3142 98.3086 37.3502 98.429 37.9765L98.7181 39.1088L98.5977 39.1329Z" fill="#7D6487"/>
<path opacity="0.38" d="M64.3602 187.412C64.3842 185.653 64.2397 183.894 64.047 182.136C63.8302 180.425 63.6856 178.618 63.1797 176.98C64.2397 172.403 65.372 167.826 66.1429 163.176C67.227 157.057 67.9497 150.817 68.287 144.602C68.6243 139.181 68.5279 133.665 68.3593 128.244C68.0943 121.234 67.7088 114.175 66.3356 107.309C65.9983 105.791 65.6611 104.249 64.9865 102.828C66.3356 105.671 66.7933 108.827 67.3233 111.886C68.5761 120.366 68.9374 129.039 68.9615 137.591C68.9615 150.89 66.8897 164.14 63.4206 176.956V176.884C63.5892 177.318 63.6374 177.751 63.7338 178.185C63.9506 179.486 64.0951 180.811 64.1915 182.112C64.312 183.894 64.4324 185.653 64.3602 187.412Z" fill="#7D548C"/>
<path d="M40.5241 162.13C45.2941 160.829 50.3773 160.54 55.0028 158.781L55.051 158.854C51.9432 161.07 48.0164 161.696 44.2823 162.058C43.0296 162.178 41.7768 162.226 40.5 162.226C40.5241 162.226 40.5241 162.13 40.5241 162.13Z" fill="#281D2E"/>
<path d="M89.0298 126.294C88.6685 124.993 87.8494 123.885 87.1748 122.753C86.4762 121.645 85.7053 120.44 84.9825 119.38C82.5012 115.598 79.8993 111.936 77.5625 108.033L77.6348 107.961C81.2243 112.056 84.4766 116.465 87.1266 121.235C87.5603 122.03 87.9698 122.849 88.3553 123.668C88.7166 124.511 89.1021 125.355 89.1503 126.27C89.1262 126.294 89.0298 126.294 89.0298 126.294Z" fill="#7D6487"/>
<path d="M83.7355 185.561C82.3864 184.79 81.5432 183.368 80.8928 181.995C80.2905 180.766 79.881 179.225 79.2064 178.116C78.9173 177.635 78.4114 177.153 77.9055 176.719C76.8455 175.828 75.641 175.033 74.4123 174.334C73.786 173.973 73.1355 173.635 72.4609 173.346L72.485 173.25C74.9905 173.66 78.5801 175.49 80.0496 177.586C81.1337 179.538 81.4228 181.802 82.531 183.73C82.8683 184.38 83.3019 184.982 83.8319 185.488C83.8078 185.488 83.7355 185.561 83.7355 185.561Z" fill="#7D6487"/>
<path d="M52.1226 119.305C51.713 123.737 51.6407 128.218 51.448 132.675L50.4844 132.603C51.0144 128.17 51.3998 123.713 52.1226 119.305Z" fill="#281D2E"/>
<path d="M33.8777 185.387L32.9141 185.315C33.2754 180.497 37.0095 177.028 39.7559 174.498C40.6714 173.655 41.4664 172.908 42.0445 172.234C42.4782 171.174 43.1286 167.873 43.7068 164.982C43.9236 163.826 44.1646 162.645 44.3814 161.609L45.3209 161.802C45.1041 162.838 44.8632 164.018 44.6464 165.175C43.9959 168.475 43.3936 171.607 42.9118 172.691L42.8877 172.764L42.8396 172.812C42.2132 173.559 41.3459 174.354 40.4305 175.221C37.6359 177.774 34.215 180.954 33.8777 185.387Z" fill="#281D2E"/>
</svg>
