<svg width="119" height="208" viewBox="0 0 119 208" fill="none" xmlns="http://www.w3.org/2000/svg">
<path d="M74.9844 19.4855C80.8524 16.3878 95.8876 11.5272 99.212 12.736C101.302 16.7152 99.212 34.4704 99.212 34.4704L77.0747 23.5151L74.9844 19.4855Z" fill="#203957"/>
<path opacity="0.48" d="M99.0419 34.2841C99.0922 33.8056 99.2685 32.3449 99.4196 30.3805C99.3693 30.3805 99.3189 30.3805 99.2685 30.3553C98.2108 30.1539 97.5056 29.1213 97.2789 28.0887C97.0523 27.0561 97.1782 25.948 97.1278 24.8903C97.0271 22.9007 96.3975 20.7348 97.153 18.9971C95.9945 21.1629 95.2138 23.5051 94.836 25.9228C93.2746 25.6458 92.4435 23.4547 93.4509 22.2207C91.0835 21.3896 88.4391 20.76 86.1977 19.6015C84.5103 18.7452 84.2333 17.3349 83.78 15.7734C80.2541 16.9823 76.9046 18.3423 74.7891 19.4504L76.8794 23.4799L98.7396 34.3093C98.8404 34.3093 98.9411 34.2841 99.0419 34.2841Z" fill="#020410"/>
<path opacity="0.48" d="M97.1484 18.9916C97.2492 18.8153 97.3499 18.6138 97.4507 18.4375C97.3247 18.6138 97.224 18.7901 97.1484 18.9916Z" fill="#020410"/>
<path d="M46.411 150.281C23.9715 152.271 17.1465 164.712 20.6471 169.195C22.813 171.965 27.1448 164.485 30.2929 164.032C33.4409 163.604 46.8895 164.208 52.2035 158.24C57.4922 152.271 46.411 150.281 46.411 150.281Z" fill="#8974A3"/>
<path d="M50.9897 156.215C54.6571 155.178 57.3019 153.176 56.8969 151.744C56.492 150.312 53.1907 149.992 49.5232 151.029C45.8558 152.066 43.2111 154.067 43.6161 155.499C44.021 156.932 47.3223 157.252 50.9897 156.215Z" fill="#65CAC6"/>
<path d="M77.3984 155.758C82.7124 155.758 88.8322 158.024 89.7641 160.291C90.6959 162.558 79.6399 161.223 79.6399 161.223L77.3984 155.758Z" fill="#8974A3"/>
<path d="M36.2546 160.249C39.9898 159.493 42.8344 157.974 42.6081 156.856C42.3818 155.738 39.1704 155.445 35.4351 156.201C31.6999 156.957 28.8553 158.477 29.0816 159.594C29.3079 160.712 32.5193 161.005 36.2546 160.249Z" fill="#65CAC6"/>
<path opacity="0.48" d="M52.1791 158.257C52.7835 157.577 53.1865 156.922 53.4132 156.343L51.2977 152.011C49.1821 150.777 46.437 150.273 46.437 150.273C39.335 150.903 33.7943 152.59 29.6641 154.731C32.0818 155.411 35.3054 156.318 38.4283 157.199C44.6237 158.962 46.1852 160.524 51.1465 159.264C51.4991 158.962 51.8517 158.635 52.1791 158.257Z" fill="#020410"/>
<path d="M103.469 61.8167C103.142 56.6791 105.131 50.3577 103.142 40.9135C101.152 31.4441 93.6724 22.4784 78.9142 18.6755C64.156 14.8726 46.2246 14.3689 36.4278 18.6755C33.2797 10.5409 24.1377 -0.238156 21.8207 0.744044C19.5037 1.75143 4.39293 21.8236 3.05815 33.9374C-3.91799 50.3829 2.05076 79.4208 12.5276 91.5346C20.0074 100.198 35.1685 105.915 49.1208 108.081C46.4261 110.876 43.1772 114.427 40.0795 117.424C34.5893 122.738 26.3035 127.045 26.1273 135.356C25.951 143.667 47.5342 156.763 52.1933 158.274C51.8659 159.936 41.7417 163.588 36.1004 163.588C30.459 163.588 29.1242 163.915 26.1273 166.912C29.9553 164.923 30.9375 166.736 33.9345 167.92C36.9315 169.103 39.7521 170.085 42.3965 169.582C41.7417 173.234 39.5758 178.22 39.5758 178.22C34.4382 178.547 27.462 182.527 26.1273 186.027C23.634 185.02 21.6444 185.524 21.4681 187.362C21.2918 189.201 24.868 193.331 34.4885 194.162C32.9019 196 31.6931 199.148 31.542 200.458C31.416 201.793 36.2263 207.258 46.3505 207.258C56.4747 207.258 64.7857 201.44 67.2537 195.975C75.7158 196.806 85.7644 194.817 87.5525 193.986C85.1852 191.82 84.7571 187.538 83.523 185.675C82.1882 183.685 78.0579 181.519 75.7158 181.192C78.4357 173.561 79.5942 166.585 79.5942 166.585C85.9911 166.585 86.5955 162.429 87.7036 162.757C88.8118 163.084 90.1466 163.588 90.6502 162.58C91.1539 161.573 89.8443 159.936 88.5096 159.76C87.1748 159.583 80.8534 159.256 80.8534 159.256C80.8534 159.256 81.6845 152.96 81.6845 149.132C87.8296 145.304 93.0176 135.532 93.0932 132.031C93.1435 128.883 83.6993 114.15 75.2876 107.149C89.2147 103.447 103.57 94.859 106.592 86.0444C110.445 74.9128 103.797 66.9544 103.469 61.8167ZM87.5777 193.935C85.2104 191.769 84.7822 187.488 83.5482 185.624C82.2134 183.635 78.0831 181.469 75.741 181.141M93.1183 132.031C93.1687 128.883 83.7245 114.15 75.3128 107.149ZM36.4026 18.6503C33.2545 10.5157 24.1125 -0.26334 21.7955 0.71886ZM103.142 40.8883C101.152 31.4189 93.6724 22.4532 78.9142 18.6503C64.156 14.8474 46.2246 14.3437 36.4278 18.6503M51.186 137.497C51.186 137.497 49.3475 135.658 46.8794 134.172C49.5238 131.351 52.697 127.045 53.1755 124.879C52.1682 132.031 51.186 137.497 51.186 137.497Z" fill="#203957"/>
<path d="M35.8248 18.8762C34.5656 15.6274 32.1982 11.6482 29.3524 7.94608C26.708 4.54616 24.1391 2.0277 22.6532 1.39808C22.2251 1.22179 22.074 1.27216 22.074 1.27216L21.5703 0.113665C21.9985 -0.0626276 22.5273 -0.0374426 23.1318 0.214404C26.6072 1.67511 34.1123 10.9179 37.0085 18.3725L35.8248 18.8762Z" fill="#747692"/>
<path opacity="0.48" d="M83.6021 85.4685C83.6021 85.4685 68.9446 92.2432 59.4752 95.3912C50.0058 98.5393 38.9749 97.3304 26.4833 84.99C13.9918 72.6495 14.7977 41.2443 19.759 34.2933C17.3161 23.2121 18.5502 7.62283 21.9753 0.671875C21.8997 0.671875 21.8494 0.697061 21.7738 0.722245C19.4568 1.72963 4.34606 21.8018 3.01127 33.9156C-3.96487 50.3611 2.00389 79.399 12.4807 91.5128C19.9605 100.176 35.1217 105.893 49.074 108.059C47.2355 109.973 45.1452 112.24 43.0045 114.431C46.5807 114.38 53.4561 117.604 53.1539 124.882C52.1465 132.01 51.1643 137.5 51.1643 137.5L56.4782 141.781C56.4782 141.781 57.1079 117.126 58.3167 115.665C59.3997 114.355 63.681 111.661 68.0128 114.204C70.9846 128.207 70.0024 161.551 64.6381 181.976C62.9759 183.814 60.6589 184.142 60.6589 184.142C62.8248 187.617 64.4869 190.942 63.9833 194.09C63.4796 197.238 61.9937 199.907 59.5004 201.721C57.7626 203.005 54.9672 205.095 53.2546 206.279C60.13 204.441 65.3936 200.084 67.3076 195.903C75.7696 196.734 85.8183 194.745 87.6064 193.913C87.3798 193.435 86.497 193.432 86.2451 192.878C85.6911 193.079 85.7428 192.73 85.0376 192.906C80.9073 193.913 73.629 192.755 71.866 189.431C70.1031 186.106 68.6424 182.631 71.866 181.951C75.0897 181.296 76.6763 181.447 76.6763 181.447C76.3489 181.271 76.0467 181.17 75.7697 181.12C76.1474 180.087 76.4748 179.055 76.8022 178.047C75.0141 179.86 72.0675 181.774 69.3728 178.626C72.546 165.782 77.2807 129.315 71.035 113.65C72.3446 113.172 73.9815 113.6 75.1148 114.506C75.1148 114.506 80.2525 128.836 80.9073 134.654C80.9073 134.453 80.9577 134.251 81.0332 134.05C81.3354 140.22 82.0406 145.937 81.7384 149.11C87.8835 145.282 93.0715 135.51 93.1471 132.01C90.9308 138.658 84.9117 143.972 83.6273 144.3C82.4184 144.627 82.2421 138.684 81.1592 133.823C81.9399 132.312 84.5339 130.574 86.9013 129.113C86.9013 129.113 84.9117 128.887 81.9147 130.675C81.7384 130.146 77.9355 117.579 77.4318 113.575C78.9429 112.769 80.9829 112.769 81.9399 113.852C79.7992 111.308 77.5326 108.966 75.3415 107.152C89.2686 103.45 103.624 94.8624 106.646 86.0477C106.797 85.5944 106.948 85.1411 107.074 84.6878L83.6021 85.4685Z" fill="#020410"/>
<path opacity="0.48" d="M81.6884 150.485C81.7136 150.006 81.7136 149.553 81.7136 149.125C81.6632 149.755 81.6632 150.183 81.6884 150.485Z" fill="#020410"/>
<path d="M106.676 67.7086C110.555 65.1397 116.196 64.3338 117.631 64.8375C119.067 65.3412 118.74 67.3812 117.631 67.7086C116.523 68.0108 112.141 67.4567 107.809 69.8996C103.478 72.3174 106.676 67.7086 106.676 67.7086Z" fill="#203957"/>
<path d="M106.797 73.218C111.18 72.1099 116.519 73.2684 117.627 74.2254C118.735 75.1824 117.728 76.9957 116.619 76.895C115.511 76.7942 111.759 74.8046 107.024 75.6357C102.289 76.4668 106.797 73.218 106.797 73.218Z" fill="#203957"/>
<path d="M38.3897 71.44C38.2134 73.9333 35.7453 75.9229 36.4001 81.5642C37.0549 87.2056 41.2104 94.8365 52.6694 96.4987C64.1284 98.1609 72.5904 89.85 76.7459 90.2025C80.9013 90.5299 94.1736 92.5195 99.815 90.7062C105.456 88.8678 110.972 80.8842 109.436 72.4474C107.799 63.3054 104.776 64.3127 104.625 63.4817C104.449 62.6506 105.28 47.3887 101.628 38.5741C97.9765 29.7594 92.6626 27.1151 91.1767 26.7877C89.0108 28.4498 86.039 29.8602 80.8761 29.9357C71.583 30.112 62.2899 22.9596 53.9034 24.4455C44.2577 26.158 32.0683 32.4038 31.5898 46.3561C31.1113 60.3084 37.0549 67.6119 38.3897 71.44Z" fill="#DDC8C1"/>
<path d="M38.3897 71.7681C38.2134 74.2614 35.7453 76.251 36.4001 81.8923C37.0549 87.5337 41.2104 95.1646 52.6694 96.8268C64.1284 98.489 72.5904 90.1781 76.7459 90.5307C80.9013 90.8581 94.1736 92.8476 99.815 91.0343C105.456 89.1959 110.972 81.2123 109.436 72.7755C107.799 63.6335 104.776 64.6409 104.625 63.8098C104.449 62.9787 105.28 47.7168 101.628 38.9022C97.9765 30.0876 92.6626 27.4432 91.1767 27.1158C89.0108 28.778 86.039 30.1883 80.8761 30.2639C71.583 30.4402 62.2899 23.2877 53.9034 24.7736C44.2577 26.4862 32.0683 32.7319 31.5898 46.6842C31.1113 60.6365 37.0549 67.9652 38.3897 71.7681Z" fill="#C09A8F"/>
<path opacity="0.82" d="M101.628 38.9022C97.9764 30.1128 92.6624 27.4432 91.1766 27.1158C89.0107 28.778 86.0389 30.1883 80.876 30.2639C71.5829 30.4402 62.2898 23.2877 53.9033 24.7736C44.2576 26.4862 32.0682 32.7319 31.5897 46.6842C31.1112 60.6365 37.08 67.9401 38.3896 71.7429C38.3896 71.894 38.3644 72.0703 38.3392 72.2214C41.0088 70.8111 43.5272 68.2926 46.0205 67.0082C54.2811 62.752 64.0275 61.2913 73.1192 63.3061C74.2777 63.5579 75.411 63.8601 76.5947 63.8601C78.1813 63.835 79.6924 63.2557 81.1531 62.6261C83.7723 61.4928 86.8952 60.2084 89.2625 61.7698C89.7914 62.0972 90.2447 62.5757 90.8491 62.7268C91.781 62.9535 92.6624 62.3239 93.5187 61.8706C96.8935 60.1328 100.898 61.2158 104.625 62.1728C104.6 57.8158 104.65 46.1554 101.628 38.9022Z" fill="#B48C81"/>
<path d="M73.3917 64.1626C75.0538 59.9064 75.1546 50.1851 69.3369 43.9645C63.5193 37.7439 55.6365 41.0683 54.9061 49.8577C54.478 54.9702 56.0898 58.4709 57.5253 60.4857C58.5579 61.9464 59.4897 62.6264 59.4897 62.6264C59.4897 62.6264 63.9726 62.0219 66.9696 62.6264C69.9665 63.2308 73.3917 64.1626 73.3917 64.1626Z" fill="#DCE8E9"/>
<path d="M69.2764 44.0432C61.721 39.2581 56.7344 44.018 56.3819 52.0268C56.2056 54.8474 56.5581 57.5674 57.6159 60.4384L57.4396 60.5643C55.853 58.3985 54.9463 55.7541 54.7449 53.0845C54.5434 50.4149 54.77 47.6194 55.9789 45.2017C57.1626 42.7588 59.5551 40.8196 62.3254 40.6433C65.0957 40.4418 67.6394 41.9277 69.4527 43.9173C69.4275 43.8921 69.2764 44.0432 69.2764 44.0432Z" fill="#B3DAD6"/>
<path d="M69.3481 43.9643C65.1171 39.9851 59.4002 39.9851 56.6047 45.4753C54.4388 50.0841 54.9425 56.0529 57.5366 60.4854C54.1618 56.4306 53.4315 49.7819 55.7233 45.022C58.6699 39.1792 65.4193 38.9273 69.3481 43.9643Z" fill="#784D6B"/>
<path d="M74.2413 64.5148C69.6325 62.777 60.7423 61.5178 56.5113 64.5148L56.4609 64.4644C59.6594 61.3415 65.9052 61.6941 69.9347 62.7267C71.4458 63.1296 72.9065 63.6585 74.2413 64.4644C74.2665 64.4392 74.2413 64.5148 74.2413 64.5148Z" fill="#DDC8C1"/>
<path d="M69.2519 45.6239C69.4823 44.6493 67.8366 43.426 65.576 42.8915C63.3155 42.357 61.2961 42.7138 61.0657 43.6884C60.8352 44.663 62.481 45.8864 64.7415 46.4209C67.0021 46.9554 69.0215 46.5986 69.2519 45.6239Z" fill="#784D6B"/>
<path d="M90.3073 63.5515C89.6525 61.9649 88.3933 56.7768 87.8392 51.0851C87.4615 47.2571 87.4111 43.1771 88.0659 39.8276C90.1814 39.3239 95.7724 41.5401 97.2835 46.703C98.7945 51.8658 99.0968 59.6227 97.9886 61.4612C96.7042 61.5115 95.6213 60.5042 94.2361 61.4612C92.8762 62.4434 90.3073 63.5515 90.3073 63.5515Z" fill="#DCE8E9"/>
<path d="M87.841 51.0884C87.2114 47.361 87.01 43.5078 87.6899 39.7553C87.7151 39.6042 87.841 39.4783 87.967 39.4531C89.1506 39.2264 90.2084 39.5286 91.1906 39.9064C94.112 41.0649 96.5801 43.5834 97.2601 46.7062C96.152 43.8604 93.7846 41.619 90.9388 40.5864C90.0573 40.259 89.0499 40.0323 88.1433 40.1834L88.4203 39.8812C87.7403 43.5834 87.7907 47.361 87.841 51.0884Z" fill="#784D6B"/>
<path d="M90.2812 64.132C91.5153 61.4624 96.0485 60.3543 98.6677 61.2861C98.9699 61.412 99.2722 61.5631 99.524 61.7898L99.4988 61.8654C99.2218 61.7646 98.8944 61.6891 98.6174 61.6387C96.1745 61.3869 93.3034 62.0668 91.2635 63.4016C90.9109 63.6283 90.6087 63.9053 90.3316 64.2075C90.3316 64.1824 90.2812 64.132 90.2812 64.132Z" fill="#DDC8C1"/>
<path d="M96.2016 44.4747C96.4464 43.6188 95.1704 42.5032 93.3516 41.983C91.5328 41.4628 89.8599 41.7349 89.6151 42.5909C89.3703 43.4468 90.6463 44.5623 92.4651 45.0825C94.2839 45.6027 95.9568 45.3306 96.2016 44.4747Z" fill="#784D6B"/>
<path d="M91.081 43.1341C91.0306 42.9327 90.8795 42.8319 90.7032 42.7312C90.6781 42.706 90.6529 42.706 90.6277 42.6808C90.0233 42.4793 89.3433 42.5801 88.8396 42.9327C88.6381 43.0586 88.5877 43.3356 88.764 43.5371C89.1166 43.9149 89.6959 44.0408 90.1744 43.8645C90.1996 43.8393 90.2499 43.8393 90.2751 43.8141C90.4262 43.7889 90.5773 43.7638 90.7032 43.7134C90.8292 43.663 90.9299 43.6126 91.0055 43.4867C91.081 43.4112 91.1062 43.2601 91.081 43.1341Z" fill="white"/>
<path d="M62.4716 44.306C62.4213 44.1045 62.2702 44.0038 62.0939 43.9031C62.0687 43.8779 62.0435 43.8779 62.0183 43.8527C61.4139 43.6512 60.7339 43.7519 60.2302 44.1045C60.0287 44.2305 59.9784 44.5075 60.1547 44.709C60.5072 45.0867 61.0865 45.2127 61.565 45.0364C61.5902 45.0112 61.6405 45.0112 61.6657 44.986C61.8168 44.9608 61.968 44.9356 62.0939 44.8853C62.2198 44.8349 62.3205 44.7845 62.3961 44.6586C62.4716 44.5579 62.4968 44.4319 62.4716 44.306Z" fill="white"/>
<path d="M82.4251 63.5734C82.7225 64.9116 89.5995 65.3577 91.0493 64.0194C91.198 62.3838 89.0791 61.1199 87.3691 61.0084C85.6592 60.8969 82.0534 61.9006 82.4251 63.5734Z" fill="#784D6B"/>
<path d="M69.3516 67.6971C70.7619 69.3592 71.7693 75.2524 72.4241 77.8213C73.0789 80.3901 75.8996 82.6315 80.4832 80.1383C85.0668 77.645 87.5349 74.1695 87.5852 73.4895C86.3008 73.4895 82.0446 73.0614 81.3394 73.1621C80.6343 73.2629 75.824 71.7014 75.2448 71.4244C74.6655 71.1725 71.2404 69.057 70.636 68.377C70.0315 67.6719 70.0316 67.6719 70.0316 67.6719H69.3516V67.6971Z" fill="#4B1B2E"/>
<path d="M94.5119 71.1093L93.5045 70.7567L93.7312 70.7064C93.4038 71.1345 93.0764 71.5878 92.6482 71.9656C91.8171 72.7463 90.7342 73.1996 89.6513 73.4767C83.481 74.8618 73.7346 73.1996 69.7302 67.9109L70.0325 68.062C69.7302 68.0116 69.0754 68.2886 68.7732 68.3642C68.2947 68.5153 67.791 68.616 67.3125 68.5153C67.791 68.4901 68.2191 68.2634 68.6221 68.0116C69.1258 67.7346 69.5539 67.3064 70.2087 67.2812L70.3347 67.4324C73.7598 71.2352 79.8041 72.7211 84.7655 72.9982C86.8558 73.0737 89.072 73.0989 91.0112 72.3434C92.0186 71.9656 92.7742 71.2604 93.4793 70.4545L93.6053 70.3538L93.706 70.4293L94.5119 71.1093Z" fill="#784D6B"/>
<path d="M79.6492 80.5873C78.3144 75.8778 74.7634 74.9711 71.8672 75.3993C72.0687 76.3563 72.2701 77.2126 72.4213 77.8422C73.0509 80.2599 75.5693 82.3754 79.6492 80.5873Z" fill="#C04A60"/>
<path d="M46.3465 207.233C50.9805 207.233 55.2367 206.024 58.7122 204.161C50.1746 205.42 47.6561 200.912 44.1806 200.433C40.7052 199.955 38.6149 205.999 34.0312 203.607C36.4238 205.395 40.5037 207.233 46.3465 207.233Z" fill="#8974A3"/>
<path d="M25.6232 69.6213C15.6753 68.6139 10.8399 75.1115 10.1851 76.27C9.53025 77.4285 10.1851 78.9648 12.0235 78.2848C13.862 77.6048 16.5064 71.6361 25.6232 71.7872C26.7817 71.4346 26.7817 69.6969 25.6232 69.6213Z" fill="#203957"/>
<path opacity="0.64" d="M10.2185 76.2806C9.8911 77.4643 10.5459 78.3458 11.7799 77.691C12.0066 77.5399 12.1829 77.3636 12.3844 77.1621C12.8881 76.608 13.4421 75.9784 13.9962 75.374C16.9176 72.2511 21.4257 70.74 25.6063 71.7474V71.8481C24.8004 71.8481 23.9945 71.8733 23.1886 71.9741C20.796 72.2511 18.4539 73.1074 16.4895 74.5177C15.1547 75.4495 14.0717 76.6332 12.8881 77.7413C12.1073 78.6228 10.1178 78.9754 9.86591 77.4391C9.79036 77.011 9.91628 76.608 10.1178 76.2303C10.1429 76.2303 10.2185 76.2806 10.2185 76.2806Z" fill="#020410"/>
<path d="M28.93 74.4609C20.1406 77.4075 16.3125 85.2148 16.3125 87.2044C16.3125 89.1939 18.9065 89.3702 19.7628 88.2117C20.6191 87.0533 20.7702 79.8504 28.93 77.5838C30.4159 77.4075 31.5996 74.5113 28.93 74.4609Z" fill="#203957"/>
<path d="M25.5979 69.6516C22.8528 69.9035 20.2336 70.2309 17.6899 71.2131C16.1789 71.7923 14.8189 72.5227 13.4841 73.4293C12.3256 74.2352 11.1923 75.1671 10.1849 76.25L10.1094 76.2248C10.8901 74.9656 11.9478 73.9078 13.0812 72.976C15.373 71.1375 18.2188 69.9287 21.1654 69.6013C22.6261 69.3746 24.112 69.4502 25.5727 69.5509C25.6231 69.5761 25.5979 69.6516 25.5979 69.6516Z" fill="#747692"/>
<path d="M28.9569 74.5009C27.6221 75.2565 26.2622 76.012 25.0029 76.8935C24.5748 77.1957 24.0711 77.5986 23.643 77.9008C23.3156 78.2031 22.9126 78.5305 22.56 78.8075C22.4341 78.9334 21.6786 79.6386 21.5275 79.7645C19.6638 81.6282 17.9512 83.7185 16.7676 86.0858C16.6165 86.4384 16.4654 86.791 16.3646 87.1688H16.2891C16.3142 86.5644 16.5157 86.0103 16.7172 85.4562C18.6564 80.7467 22.6608 77.0194 27.2947 75.0046C27.6977 74.8535 28.5288 74.5261 28.9317 74.375C28.9317 74.4254 28.9569 74.5009 28.9569 74.5009Z" fill="#747692"/>
<path opacity="0.64" d="M16.36 87.21C16.6119 88.4944 18.0978 88.7714 19.0044 88.0411C19.0548 87.9655 19.1303 87.9151 19.1807 87.8396C19.2814 87.6633 19.3066 87.487 19.357 87.2351C19.6844 85.7996 20.0622 84.3893 20.717 83.0545C22.228 79.9568 25.4769 77.6902 28.902 77.5391L28.9271 77.6398C27.3657 78.0931 25.8798 78.7731 24.6206 79.7805C22.6814 81.2664 21.4473 83.4575 20.6918 85.7493C20.4147 86.53 20.2636 87.3107 19.9362 88.0662C19.0548 89.6025 16.1837 89.1744 16.2593 87.21H16.36Z" fill="#020410"/>
<path opacity="0.48" d="M23.4129 29.8848C27.3669 26.0063 30.7416 21.9012 32.6808 21.1709C30.5149 21.1709 28.7268 11.5 26.4854 11.5C25.3773 11.5 23.6899 14.7992 23.4129 19.005C23.1358 23.3116 24.244 28.5248 23.4129 29.8848Z" fill="#020410"/>
<path opacity="0.48" d="M44.2143 132.537C42.2247 131.051 40.5625 131.202 40.5625 131.202C44.5417 133.696 50.0067 136.441 50.0319 136.466C49.2512 135.811 48.1683 134.955 46.8838 134.199C49.4275 131.479 52.4496 127.4 53.1296 125.183L53.2052 124.906C50.3593 128.054 46.5313 132.865 44.2143 132.537Z" fill="#020410"/>
<path opacity="0.48" d="M57.5254 160.137C56.1151 159.961 54.7299 159.18 54.1003 157.895C53.7729 157.266 53.6722 156.535 53.4203 155.881C52.5137 153.463 50.0204 152.103 47.779 150.819C42.0369 147.545 36.6726 143.591 31.8371 139.057C29.8727 137.219 27.8831 135.078 27.455 132.409C27.3291 131.603 27.6565 130.369 27.9587 129.109C27.9083 129.185 27.8831 129.235 27.8328 129.311C27.7572 129.412 27.7068 129.538 27.6313 129.638C27.5809 129.714 27.5305 129.815 27.5054 129.89C27.4298 130.016 27.3794 130.142 27.3039 130.268C27.2787 130.343 27.2283 130.394 27.2031 130.469C27.1276 130.62 27.052 130.797 27.0017 130.948C26.9765 130.998 26.9513 131.074 26.9261 131.124C26.8506 131.3 26.8002 131.477 26.7246 131.653C26.6995 131.703 26.6995 131.754 26.6743 131.804C26.6239 131.98 26.5735 132.157 26.5232 132.333C26.5232 132.358 26.498 132.409 26.498 132.434C26.4476 132.635 26.3972 132.812 26.3469 133.013C26.3469 133.063 26.3217 133.089 26.3217 133.139C26.2713 133.34 26.2461 133.542 26.2209 133.743C26.2209 133.794 26.1958 133.819 26.1958 133.869C26.1706 134.071 26.1454 134.297 26.1202 134.499C26.1202 134.524 26.1202 134.574 26.1202 134.6C26.095 134.826 26.095 135.053 26.095 135.305C25.9187 143.616 47.502 156.712 52.1611 158.223C51.8337 159.885 41.7095 163.537 36.0681 163.537C30.4268 163.537 29.092 163.864 26.095 166.861C29.9231 164.872 30.9053 166.685 33.9023 167.869C36.8992 169.052 39.7199 170.034 42.3643 169.531C42.3391 169.682 42.3139 169.833 42.2636 169.984C42.2636 170.034 42.2384 170.06 42.2384 170.11C42.2132 170.236 42.188 170.387 42.1376 170.513C42.1376 170.538 42.1376 170.563 42.1124 170.563C42.0873 170.714 42.0369 170.865 41.9865 171.017C41.9865 171.067 41.9613 171.092 41.9613 171.143C41.9362 171.268 41.8858 171.394 41.8606 171.52C41.8606 171.545 41.8354 171.596 41.8354 171.621C41.785 171.772 41.7599 171.923 41.7095 172.1C41.7095 172.15 41.6843 172.175 41.6843 172.225C41.6591 172.351 41.6088 172.477 41.5584 172.603C41.5584 172.654 41.5332 172.679 41.5332 172.729C41.4828 172.88 41.4325 173.031 41.3821 173.182C41.3821 173.208 41.3569 173.258 41.3569 173.283C41.3065 173.409 41.2814 173.535 41.231 173.661C41.2058 173.711 41.2058 173.737 41.1806 173.787C41.1302 173.938 41.0799 174.089 41.0295 174.24C41.0295 174.265 41.0043 174.291 41.0043 174.316C40.954 174.442 40.9036 174.568 40.8784 174.694C40.8532 174.744 40.8532 174.769 40.828 174.819C40.7777 174.971 40.7273 175.097 40.6769 175.222C40.6266 175.374 40.5762 175.499 40.5258 175.625C40.5258 175.651 40.5006 175.701 40.5006 175.726C40.4503 175.852 40.3999 175.978 40.3747 176.079C40.3747 176.079 40.3747 176.079 40.3747 176.104C40.3243 176.23 40.274 176.356 40.2236 176.482C40.2236 176.507 40.1984 176.532 40.1984 176.532C40.148 176.633 40.1229 176.733 40.0725 176.834V176.859C40.0221 176.96 39.9969 177.086 39.9466 177.187C39.9466 177.187 39.9214 177.237 39.8962 177.313C39.7199 177.766 39.594 178.043 39.5436 178.144C39.5436 178.169 39.5436 178.169 39.5436 178.169C39.5184 178.169 39.4932 178.169 39.4681 178.169C38.7881 179.403 37.3022 181.468 34.7333 182.476C32.4667 183.357 30.729 182.853 29.4194 182.173C29.1172 182.4 28.8401 182.602 28.5883 182.828L28.5631 182.853C28.4876 182.929 28.3868 183.004 28.3113 183.055L28.2861 183.08C28.135 183.206 28.0091 183.357 27.8579 183.483C27.8328 183.508 27.8076 183.508 27.8076 183.533C27.7572 183.584 27.6817 183.659 27.6313 183.71C27.6061 183.735 27.5557 183.785 27.5306 183.836C27.4802 183.886 27.4298 183.936 27.3794 183.987C27.3291 184.062 27.2535 184.113 27.2031 184.188C27.1528 184.239 27.1024 184.289 27.0772 184.364C27.0269 184.415 26.9765 184.49 26.9261 184.541C26.9009 184.591 26.8757 184.616 26.8254 184.667C26.775 184.742 26.7246 184.793 26.6743 184.868C26.6491 184.893 26.6239 184.919 26.6239 184.969C26.5735 185.07 26.498 185.17 26.4476 185.246C26.4224 185.271 26.4224 185.296 26.3972 185.321C26.3469 185.397 26.3217 185.473 26.2713 185.548C26.2461 185.573 26.2461 185.598 26.2209 185.624C26.1706 185.724 26.1202 185.825 26.095 185.926C23.6017 184.919 21.6122 185.422 21.4359 187.261C21.2596 189.099 24.8358 193.229 34.4563 194.061C33.3734 195.295 32.4667 197.158 31.963 198.644C32.1897 198.669 32.3912 198.694 32.6178 198.72C33.9274 197.561 40.828 188.923 42.9939 186.757C45.1598 184.591 46.6457 182.778 46.822 181.443C46.9479 180.41 47.4012 179.756 47.9049 178.169C49.5167 178.018 51.1285 177.716 52.69 177.388C54.0248 177.111 55.4351 176.759 56.3669 175.776C57.0973 174.996 57.4247 173.913 57.7017 172.88C58.3565 170.588 58.961 167.894 57.5254 165.98C59.3387 164.04 60.7239 161.723 61.6305 159.23C60.3713 159.885 58.9358 160.288 57.5254 160.137Z" fill="#020410"/>
<path d="M51.2162 137.438C56.9331 141.971 63.9344 148.04 62.6752 156.124C62.4989 157.207 62.1463 158.265 61.693 159.273L61.5671 159.222C61.7937 158.139 61.97 157.082 61.9952 156.024C62.2722 150.71 58.8975 146.252 55.4976 142.424C54.062 140.812 52.551 139.251 51.1406 137.538L51.2162 137.438Z" fill="#747692"/>
<path opacity="0.48" d="M90.2529 163.026C88.9685 162.17 87.3567 161.817 85.4678 161.641C83.3775 161.414 80.8842 159.273 80.8842 159.273C80.3805 161.59 79.625 166.577 79.625 166.577C86.0219 166.577 86.6263 162.422 87.7345 162.749C88.6159 162.976 89.6233 163.353 90.2529 163.026Z" fill="#020410"/>
<path d="M103.072 40.9088C99.7977 29.5002 90.3031 22.8011 79.247 19.9048C71.4902 17.8901 63.5067 16.7819 55.4979 16.5049C53.055 16.4293 50.1084 16.4797 47.6655 16.6308C46.8848 16.7064 46.0537 16.7819 45.273 16.8323C44.5678 16.9079 43.5604 17.059 42.8805 17.1345C42.2005 17.2353 41.1931 17.4367 40.5131 17.5627C39.6316 17.7893 38.4731 18.0412 37.5917 18.3434L36.4332 18.7211L36.3828 18.5952C47.6403 14.0116 63.0785 15.2205 74.8397 17.5878C85.8706 19.7033 96.7 24.9669 101.51 35.6704C101.712 36.1489 102.014 36.9044 102.19 37.3578C102.367 37.9622 102.769 39.0451 102.895 39.6999L103.198 40.8836L103.072 40.9088Z" fill="#747692"/>
<path opacity="0.38" d="M67.2809 195.915C67.3061 194.077 67.155 192.238 66.9535 190.4C66.7269 188.612 66.5758 186.723 66.0469 185.01C67.155 180.225 68.3387 175.44 69.1446 170.58C70.2779 164.183 71.0334 157.66 71.386 151.162C71.7386 145.496 71.6379 139.729 71.4616 134.062C71.1845 126.733 70.7816 119.354 69.3461 112.177C68.9935 110.59 68.6409 108.978 67.9357 107.492C69.3461 110.464 69.8246 113.763 70.3786 116.962C71.6882 125.827 72.066 134.893 72.0912 143.834C72.0912 157.736 69.9253 171.587 66.2987 184.985V184.91C66.475 185.363 66.5254 185.816 66.6261 186.27C66.8528 187.63 67.0039 189.015 67.1046 190.375C67.2306 192.238 67.3565 194.077 67.2809 195.915Z" fill="#090909"/>
<path d="M42.3611 169.493C47.3477 168.133 52.6616 167.831 57.4971 165.992L57.5475 166.068C54.2986 168.385 50.1935 169.04 46.2899 169.417C44.9803 169.543 43.6707 169.594 42.3359 169.594C42.3611 169.594 42.3611 169.493 42.3611 169.493Z" fill="#162231"/>
<path d="M93.0738 132.025C92.6961 130.665 91.8398 129.506 91.1346 128.323C90.4043 127.164 89.5983 125.905 88.8428 124.797C86.2488 120.843 83.5288 117.015 81.0859 112.935L81.1615 112.859C84.914 117.141 88.3139 121.75 91.0842 126.736C91.5376 127.567 91.9657 128.423 92.3686 129.28C92.7464 130.161 93.1494 131.043 93.1997 132C93.1746 132.025 93.0738 132.025 93.0738 132.025Z" fill="#747692"/>
<path d="M87.5364 193.987C86.1261 193.181 85.2446 191.695 84.5646 190.259C83.935 188.975 83.5069 187.363 82.8017 186.204C82.4995 185.701 81.9706 185.197 81.4417 184.744C80.3336 183.812 79.0744 182.981 77.79 182.25C77.1352 181.873 76.4552 181.52 75.75 181.218L75.7752 181.117C78.3944 181.545 82.1469 183.459 83.6832 185.65C84.8165 187.69 85.1187 190.058 86.2772 192.072C86.6298 192.752 87.0831 193.382 87.6371 193.911C87.612 193.911 87.5364 193.987 87.5364 193.987Z" fill="#747692"/>
<path d="M54.486 124.719C54.0579 129.353 53.9823 134.037 53.7808 138.696L52.7734 138.621C53.3275 133.987 53.7305 129.328 54.486 124.719Z" fill="#162231"/>
<path d="M35.4136 193.803L34.4062 193.727C34.784 188.69 38.6876 185.063 41.5587 182.419C42.5157 181.538 43.3468 180.757 43.9512 180.052C44.4045 178.944 45.0845 175.493 45.689 172.471C45.9156 171.262 46.1675 170.028 46.3941 168.945L47.3763 169.147C47.1497 170.23 46.8978 171.464 46.6712 172.673C45.9912 176.123 45.3616 179.397 44.8579 180.53L44.8327 180.606L44.7823 180.656C44.1275 181.437 43.2209 182.268 42.2639 183.175C39.3424 185.844 35.7662 189.169 35.4136 193.803Z" fill="#162231"/>
<path d="M80.8877 195.43C76.3797 195.884 86.7054 195.279 88.3675 193.944C90.0297 192.61 90.8608 190.469 89.8534 190.293C88.8712 190.142 87.2342 194.801 80.8877 195.43Z" fill="#8974A3"/>
</svg>
