<svg width="323" height="322" viewBox="0 0 323 322" fill="none" xmlns="http://www.w3.org/2000/svg">
<path d="M284.238 94.0819C283.338 93.9919 283.648 94.6619 283.638 95.0819C283.618 95.7519 283.638 96.4119 283.658 97.0819C283.858 97.8619 283.738 98.6419 283.738 99.4219C283.178 99.8919 283.088 99.3619 282.928 99.0319C282.828 98.8219 282.748 98.5619 282.808 98.3519C283.898 94.2519 281.178 92.5919 278.188 91.1119C277.618 90.8319 277.168 90.3519 276.388 89.9519C276.278 92.9419 276.898 95.7519 277.228 98.5819C277.798 103.482 278.448 108.382 278.488 113.322C278.568 123.392 276.698 133.182 274.278 142.912C271.688 153.322 266.408 162.082 258.798 169.532C258.348 169.972 257.818 170.382 257.788 171.102C254.378 172.422 250.778 172.522 247.198 172.822C237.598 173.602 228.088 172.512 218.558 171.552C210.188 170.702 202.028 169.002 194.088 166.242C193.878 166.172 193.688 166.032 193.498 165.922C192.038 164.912 190.458 164.102 188.928 163.132C188.748 163.742 189.238 163.942 189.478 164.222C192.918 168.272 194.308 173.192 195.468 178.212C195.498 178.322 195.468 178.442 195.488 178.552C195.518 178.492 195.488 178.422 195.498 178.352C195.518 178.242 195.568 178.142 195.658 178.062C196.668 181.162 196.828 184.412 197.378 187.592C198.708 195.182 199.908 202.792 200.448 210.492C200.578 212.342 200.548 214.212 200.588 216.062C200.858 220.452 200.628 224.852 200.708 229.242C200.718 229.992 200.578 230.742 200.828 231.482C200.858 231.702 200.888 231.912 200.918 232.132C201.148 238.082 201.128 244.032 200.928 249.982C200.848 250.542 200.508 251.002 200.508 251.622C200.488 257.902 199.268 264.052 198.218 270.212C198.148 270.592 197.938 270.952 197.798 271.312C195.118 271.282 192.978 270.262 191.468 267.972C189.838 265.492 188.768 262.762 188.468 259.862C188.068 255.952 187.708 252.022 188.018 248.052C188.338 244.052 188.308 240.032 188.038 236.032C187.648 230.182 187.298 224.332 186.478 218.512C185.328 210.342 184.328 202.152 182.158 194.162C180.078 186.492 178.248 178.762 176.838 171.302C176.738 170.722 176.448 171.042 176.658 170.942C176.678 170.932 176.708 170.972 176.728 171.072C178.448 178.772 180.148 186.492 180.948 194.352C181.698 201.742 182.268 209.152 182.598 216.582C182.928 223.962 182.628 231.332 182.468 238.702C182.198 250.842 180.828 262.912 179.018 274.932C178.258 279.942 176.618 284.472 174.038 288.742C172.268 291.672 171.948 294.712 173.138 297.942C173.738 299.572 173.368 301.132 172.628 302.662C172.128 303.692 171.358 304.622 171.328 305.852C168.768 309.272 165.588 312.032 162.198 314.582C159.968 313.712 158.188 312.382 156.978 310.222C155.638 307.832 154.318 305.432 153.588 302.782C152.908 300.332 151.908 298.092 150.418 296.042C149.698 295.052 149.028 294.032 148.418 292.972C146.758 290.112 147.008 287.482 148.778 284.642C150.798 281.402 153.638 279.992 157.238 279.582C158.808 279.402 160.188 280.032 161.348 280.302C157.378 278.492 153.448 279.842 149.538 281.582C148.688 281.962 147.758 283.102 146.898 282.332C146.068 281.582 146.988 280.482 147.298 279.602C149.518 273.362 151.828 267.162 153.228 260.652C155.308 250.942 157.618 241.262 158.988 231.412C159.608 226.942 159.878 222.402 160.318 217.892C161.038 210.432 161.298 202.952 162.148 195.502C162.578 191.702 162.978 187.892 163.098 184.052C163.208 180.512 163.668 176.992 163.938 173.462C164.128 171.032 163.978 168.612 164.118 166.732C164.018 171.802 163.388 177.382 162.978 182.982C162.638 187.672 162.218 192.362 161.608 197.022C160.778 203.302 160.568 209.632 159.878 215.932C158.808 225.682 158.048 235.472 156.038 245.112C153.438 257.532 150.698 269.892 145.588 281.582C144.928 283.082 144.328 284.632 143.168 285.792C139.158 289.792 137.238 294.742 136.348 300.192C136.318 300.362 136.308 300.542 136.248 300.702C135.968 301.612 136.388 303.032 134.778 303.012C133.558 302.992 132.328 301.302 132.568 299.932C133.038 297.122 133.558 294.332 134.488 291.622C136.108 286.882 138.508 282.742 142.718 279.832C143.308 279.422 143.668 278.822 143.918 278.152C147.578 268.352 151.478 258.612 153.158 248.212C154.158 242.082 154.968 235.922 155.438 229.712C156.238 218.892 156.778 208.042 158.088 197.262C158.678 192.422 158.598 187.532 159.128 182.672C159.718 177.232 160.478 171.842 161.578 166.482C161.658 166.082 161.748 165.682 161.808 165.282C162.068 163.452 161.438 162.742 159.588 163.002C156.308 163.462 153.088 164.182 149.918 165.232C140.138 168.472 130.108 170.762 119.968 172.592C113.558 173.752 107.098 174.492 100.608 175.052C89.9581 175.962 79.5081 174.852 69.2181 172.012C64.7981 170.792 60.4281 169.402 56.0381 168.072C51.8081 163.832 48.0881 159.182 44.8481 154.142C40.9581 148.112 37.7581 141.762 35.5381 134.932C35.3781 134.442 35.2981 133.932 35.1781 133.422C34.2881 127.742 34.1881 121.992 33.4981 116.292C32.5881 108.832 32.5181 101.352 33.3381 93.8719C33.4381 92.9519 33.6381 92.0319 33.8881 91.1419C34.2081 89.9619 34.8381 89.3119 36.1781 89.7319C36.8781 89.9519 37.6281 89.7319 38.0181 89.8519C36.5481 89.8119 34.7581 89.5819 32.9681 89.3819C31.5681 89.2319 30.6881 89.4419 30.7581 91.1219C30.7881 91.7219 30.8081 92.4519 29.9681 92.6819C29.6181 92.2019 29.7581 91.6919 29.8581 91.1819C30.3781 89.3619 29.6281 88.5519 27.7981 88.3819C26.9881 88.3119 26.1081 88.2319 25.3781 87.7319C21.2581 85.1519 17.5581 82.0019 13.6981 79.0719C11.5881 77.4719 10.0581 75.3419 8.26813 73.4519C6.44813 71.5319 4.56813 69.9219 1.66812 70.3319C1.27812 70.3819 0.848125 70.2919 0.578125 69.9219C3.69812 66.2719 7.01813 62.8919 12.0381 61.9719C15.9081 61.2619 19.7481 61.4819 23.5981 62.2219C28.6781 63.2019 33.6281 64.5619 38.3181 66.8019C43.3481 68.6219 46.0781 72.8319 48.9581 76.9319C53.2881 83.1219 55.3981 90.1019 56.9181 97.4019C59.3281 108.952 62.0581 120.432 65.9581 131.592C67.8181 136.912 69.7381 142.212 73.1381 146.832C77.0481 152.142 81.3981 156.942 87.7381 159.352C92.5981 161.202 97.6781 162.112 102.848 162.632C110.018 163.342 117.088 162.302 124.168 161.562C124.978 161.412 125.818 161.702 126.608 161.382C131.118 160.892 135.468 159.632 139.908 158.772C142.458 158.282 144.988 157.722 147.528 157.192C150.568 156.732 153.398 158.222 156.428 158.102C159.408 157.982 162.378 157.892 165.388 158.602C168.968 159.452 172.448 158.252 175.578 156.492C178.508 154.842 181.318 154.582 184.548 155.602C190.158 157.382 195.858 157.732 201.708 156.372C205.808 155.422 209.968 154.742 213.908 153.752C213.228 153.942 212.418 154.372 211.638 153.622C212.348 153.512 213.048 153.392 213.758 153.282C223.238 152.062 232.758 151.132 242.208 149.612C244.938 149.172 246.858 147.532 247.938 145.042C248.608 143.512 249.058 141.832 249.128 140.152C249.308 135.632 249.348 131.092 249.108 126.572C249.018 124.832 248.898 123.102 248.858 121.362C248.778 117.012 248.858 112.672 248.608 108.312C248.298 103.102 248.898 97.8919 250.288 92.8219C250.468 92.1519 250.568 91.4619 250.748 90.8019C251.988 85.9419 253.588 81.2519 256.828 77.2719C258.598 75.0919 260.778 73.3819 262.918 71.6119C267.888 68.4719 273.598 67.8819 279.198 67.0519C287.458 65.8319 295.758 64.8619 304.058 64.0119C308.378 63.5719 312.858 63.1819 317.158 64.6319C318.148 64.9419 319.168 65.2019 320.138 65.5719C321.918 66.2619 322.928 67.4219 322.698 69.5119C322.528 71.0319 321.838 71.5419 320.328 71.0119C319.858 70.8519 319.408 70.4819 318.858 70.7019C317.618 69.0319 315.838 68.9319 313.998 69.0819C312.968 69.1719 312.958 69.9519 312.978 70.7619C313.018 73.1419 313.088 75.5019 312.628 77.8719C311.698 82.6519 309.278 86.3819 305.078 88.8319C299.128 92.3019 292.898 94.8319 285.778 93.8919C285.238 93.8219 284.738 93.9219 284.248 94.0919L284.238 94.0819Z" fill="#132944"/>
<path d="M223.927 105.564C223.787 107.524 224.487 109.394 224.627 111.324C224.677 111.954 225.297 111.814 225.737 111.854C226.867 111.954 228.037 111.604 229.147 112.094C228.507 112.814 227.647 112.564 226.857 112.594C224.787 112.684 224.677 112.834 225.657 114.544C224.597 114.484 224.107 114.844 223.797 116.014C222.137 122.224 218.317 127.074 213.607 131.254C209.427 134.954 204.677 137.864 199.797 140.544C199.137 140.904 198.427 141.154 197.737 141.454C194.327 142.774 190.767 143.224 187.147 143.344C184.707 143.334 182.267 143.334 179.827 143.344C178.497 143.384 177.157 143.394 175.817 143.334C172.947 143.204 170.347 143.884 167.817 145.294C163.637 147.614 158.997 148.484 154.277 148.894C152.777 149.024 151.297 149.424 149.777 149.234C149.207 149.194 148.647 149.034 148.087 148.934C139.007 147.604 130.107 145.584 121.677 141.874C118.387 140.424 115.207 138.754 112.667 136.104C111.557 134.994 110.587 133.754 109.617 132.524C106.557 128.644 106.207 124.284 107.487 119.674C108.067 117.604 108.847 115.604 109.877 113.704C110.757 112.084 110.847 110.444 110.217 108.674C109.537 106.744 108.637 104.934 107.717 103.124C104.307 96.4437 102.787 89.4037 103.397 81.9037C103.577 79.7337 104.517 77.8837 105.557 76.0737C106.627 74.2137 107.767 72.3837 109.157 70.7337C112.507 66.2537 116.527 62.5637 121.567 60.0337C125.647 57.9837 130.027 57.1337 134.517 56.9837C137.327 56.8937 139.947 58.1337 142.547 59.1037C149.457 61.6737 156.237 64.5437 163.457 66.2837C167.217 67.1937 170.797 66.8437 174.487 66.2137C180.587 65.1737 185.687 62.2137 190.347 58.3237C193.377 55.7937 196.447 53.2737 200.027 51.5537C202.217 50.5037 204.477 49.6637 207.067 50.1337C211.077 50.8537 213.257 53.5837 214.917 56.9037C216.947 60.9737 217.637 65.4037 218.077 69.8537C218.617 75.2237 218.627 80.6237 218.897 86.0037C219.087 89.7937 219.017 93.5237 218.657 97.2737C218.627 97.6037 218.697 97.9037 218.947 98.1437C218.837 98.6237 218.947 99.0037 219.307 99.3637C220.517 100.604 221.367 102.194 222.897 103.134C223.217 103.954 223.737 104.684 223.917 105.554L223.927 105.564Z" fill="#CCA69B"/>
<path d="M148.192 148.476C148.652 148.566 149.122 148.656 149.582 148.746C150.942 149.226 152.312 148.796 153.682 148.796C160.002 148.816 166.132 147.596 172.242 146.146C176.252 145.196 180.322 144.486 184.352 143.606C186.862 143.056 189.532 143.186 192.122 142.876C193.332 142.736 194.502 141.876 195.792 142.556C192.272 144.786 188.262 145.746 184.352 146.946C182.592 147.486 180.802 148.006 178.992 148.336C178.142 148.496 178.142 148.856 178.222 149.466C174.702 149.296 171.322 150.466 167.812 150.506C166.392 150.526 164.972 150.766 163.552 150.846C163.172 150.146 162.512 150.456 161.992 150.466C153.802 150.656 145.642 150.216 137.502 149.416C126.582 148.336 116.732 144.516 108.022 137.816C106.332 136.516 104.362 135.606 102.812 134.106C102.072 133.386 101.512 133.946 100.962 134.266C98.1419 135.936 95.9319 138.366 93.4719 140.476C91.0919 142.516 88.8219 144.686 86.4019 146.666C85.3519 147.526 84.0419 148.916 82.6019 147.506C81.2819 146.216 82.4519 144.896 83.1919 143.766C86.8819 138.146 92.1419 134.456 98.1519 131.696C98.6119 131.486 99.5819 131.696 99.3219 130.636C100.812 130.416 102.212 129.896 103.612 129.356C104.452 129.036 104.692 128.546 104.152 127.766C103.262 126.476 102.472 125.126 101.622 123.806C100.772 122.496 99.4419 122.396 98.0719 122.516C96.6219 122.636 95.2219 123.056 93.7919 123.286C92.7019 123.166 91.9519 123.896 91.1119 124.366C87.3119 126.476 83.8119 129.106 79.8419 130.926C79.3119 131.166 78.7819 131.416 78.2219 131.556C77.6119 131.706 76.9319 131.846 76.4419 131.246C75.9819 130.676 76.1019 130.036 76.3719 129.446C77.3119 127.406 78.9619 126.066 80.8219 124.936C83.7719 123.126 87.0619 122.196 90.3319 121.216C91.0119 121.016 91.9219 120.966 91.6419 119.826C93.9219 120.316 96.2319 119.926 98.5319 120.016C99.5919 120.056 100.032 119.496 99.8619 118.486C99.5819 116.826 99.5519 115.136 99.2419 113.476C99.1119 112.766 98.8519 112.146 98.3419 111.636C93.5519 106.746 91.3919 100.636 90.1019 94.0957C88.6219 86.6357 88.5919 79.0857 88.8219 71.5457C88.9919 65.9657 90.3419 60.6557 93.4119 55.8557C95.0019 53.3657 96.3619 50.7257 97.9619 48.2257C98.7819 46.9457 99.6719 45.7457 100.732 44.6557C102.072 43.2757 102.152 42.8957 100.732 41.5057C96.4319 37.2957 95.2319 31.9757 95.0419 26.2657C94.9619 23.9457 95.1319 21.6357 95.1919 19.3257C99.1419 12.1757 103.922 5.83572 111.492 2.09572C113.672 1.01572 115.592 0.845717 117.762 2.28572C121.522 4.78572 124.572 8.01572 127.632 11.2557C129.782 13.5357 131.482 16.1557 133.502 18.5357C135.562 19.9057 136.022 22.3457 137.302 24.2457C137.752 24.9157 137.072 25.1757 136.482 25.0257C132.762 24.0457 129.082 23.4557 127.002 19.2157C124.842 14.8157 120.892 11.6557 116.882 8.82572C114.872 7.40572 113.402 7.71572 111.562 9.32572C108.022 12.4357 106.992 16.7157 106.302 21.0057C105.402 26.6757 104.732 32.3957 104.712 38.1657C104.702 41.2557 104.872 41.3657 107.692 39.9157C113.482 36.9257 119.362 34.1357 125.612 32.2157C131.852 30.3057 138.212 29.0757 144.732 28.5457C148.922 28.2057 153.092 28.3557 157.122 28.2857C154.912 27.4057 152.582 26.3757 150.242 25.3557C149.402 24.9857 148.292 24.5857 148.442 23.4957C148.602 22.3457 149.792 22.1657 150.772 22.0357C156.872 21.2657 162.942 21.4857 168.992 22.5257C172.482 23.1257 175.962 23.7957 179.462 24.6057C179.192 24.3057 178.882 24.1557 178.612 23.9457C172.942 19.5157 172.532 13.6657 176.862 8.27572C177.442 7.54572 177.942 6.75572 178.542 6.04572C182.952 3.17572 187.652 0.885717 192.882 0.185717C198.792 -0.604283 201.232 1.02572 202.752 7.01572C203.892 11.4857 204.192 16.0457 204.422 20.6257C204.662 24.2157 204.452 27.8057 204.532 31.3857C204.542 32.0157 204.402 32.6657 204.672 33.2757C211.412 38.3057 216.582 44.5357 219.162 52.6557C220.402 56.5757 221.262 60.5957 221.082 64.7457C221.032 65.8057 221.522 66.7557 221.482 67.7957C221.732 71.2957 221.702 74.8057 221.502 78.3057C220.932 84.9457 220.382 91.5857 218.952 98.1157C218.712 98.0757 218.452 98.0857 218.332 97.8057C219.062 93.1457 218.982 88.4657 218.922 83.7657C218.842 77.2557 218.502 70.7757 217.252 64.3857C216.632 61.2157 215.842 58.0857 214.042 55.2657C210.742 50.0957 206.002 48.6457 200.442 51.2657C197.372 52.7157 194.692 54.7657 192.102 56.9057C188.132 60.1657 184.032 63.2457 179.142 64.9357C173.422 66.9057 167.532 66.9757 161.652 65.5157C154.882 63.8357 148.312 61.5157 141.872 58.8857C133.402 55.4357 125.822 57.5057 118.442 61.9357C115.192 63.8857 112.672 66.5657 110.312 69.4557C109.952 69.8957 109.582 70.3657 109.492 70.9657C108.012 73.1157 106.532 75.2557 105.302 77.5657C104.322 79.4157 103.912 81.3457 103.782 83.3857C103.372 90.2357 105.142 96.5857 108.062 102.696C109.012 104.686 110.082 106.616 110.812 108.706C111.382 110.336 111.312 111.856 110.572 113.416C109.872 114.876 109.152 116.326 108.562 117.856C106.062 124.286 107.202 129.896 112.112 134.756C112.432 135.076 112.692 135.466 112.982 135.826C113.682 137.476 115.202 138.306 116.582 139.206C121.122 142.206 126.192 143.996 131.402 145.446C135.632 146.626 139.912 147.576 144.262 148.246C145.562 148.446 146.872 148.676 148.192 148.446V148.476Z" fill="#132944"/>
<path d="M56.0422 168.052C56.7422 167.142 57.4622 167.912 58.0622 168.122C64.2522 170.252 70.5422 172.052 76.9622 173.292C80.6422 174.002 84.4022 174.262 88.1222 174.692C92.2722 175.172 96.3522 174.732 100.432 174.502C106.242 174.172 112.032 173.382 117.802 172.452C125.862 171.162 133.772 169.212 141.662 167.212C144.962 166.372 148.212 165.292 151.442 164.192C154.202 163.252 157.062 162.862 159.902 162.402C161.942 162.072 162.692 163.152 162.302 165.232C161.202 171.012 160.192 176.802 159.632 182.682C158.962 189.702 158.842 196.762 157.932 203.762C157.192 209.502 157.022 215.282 156.562 221.042C155.942 228.812 155.282 236.572 154.222 244.302C153.012 253.202 150.462 261.682 147.382 270.052C146.382 272.772 145.372 275.482 144.402 278.212C144.102 279.052 143.772 279.792 142.962 280.302C139.382 282.562 137.232 285.942 135.652 289.762C134.272 293.092 133.622 296.622 132.912 300.132C132.742 300.952 133.982 302.592 134.832 302.712C135.662 302.832 135.552 302.192 135.612 301.692C136.152 297.292 137.202 293.042 139.672 289.272C140.022 288.742 140.342 288.162 140.792 287.732C145.182 283.652 146.432 277.942 148.392 272.682C152.232 262.352 154.122 251.512 156.252 240.742C157.732 233.242 158.132 225.622 159.062 218.062C160.012 210.322 160.202 202.512 161.362 194.792C162.022 190.402 162.122 185.932 162.482 181.492C162.942 175.962 163.412 170.432 163.882 164.912C163.902 164.702 164.002 164.492 164.062 164.282C164.752 164.412 164.552 164.912 164.562 165.262C164.652 171.002 164.132 176.702 163.642 182.412C163.332 186.032 163.142 189.682 162.822 193.312C162.412 197.972 161.852 202.622 161.552 207.282C161.342 210.632 161.092 213.972 160.782 217.312C160.202 223.462 159.752 229.612 158.752 235.722C157.652 242.452 156.122 249.082 154.792 255.762C153.482 262.332 151.822 268.832 149.442 275.102C148.562 277.422 147.822 279.782 146.672 282.482C152.062 279.532 157.222 277.322 162.992 280.652C162.622 281.042 162.342 280.672 162.072 280.652C161.722 280.632 161.342 280.662 161.042 280.532C158.632 279.472 156.262 280.082 153.922 280.742C148.762 282.172 146.262 288.722 149.112 293.202C149.732 294.182 150.352 295.172 151.042 296.092C152.382 297.882 153.302 299.842 153.852 302.012C154.632 305.072 156.122 307.832 157.742 310.512C158.442 311.672 159.292 312.672 160.612 313.192C161.272 313.442 161.862 313.822 162.162 314.522C159.962 316.332 157.702 318.042 155.152 319.352C153.312 319.972 151.482 319.812 149.702 319.202C144.672 317.492 140.002 315.032 135.532 312.192C135.082 311.902 134.422 311.702 134.522 310.942C134.592 310.232 134.872 309.292 133.552 309.962C128.982 311.932 124.332 310.412 119.712 310.292C118.532 310.262 117.492 309.642 116.552 308.952C113.782 306.882 111.222 304.572 108.672 302.242C109.762 293.802 114.332 287.422 120.682 282.132C123.272 279.972 126.022 278.032 129.342 277.082C129.912 276.922 130.452 276.662 130.632 276.032C132.562 269.282 135.282 262.782 136.942 255.952C138.962 247.692 140.282 239.302 141.712 230.932C142.982 223.432 145.632 216.402 148.502 209.412C151.352 202.472 153.202 195.222 154.822 187.912C156.232 181.522 157.762 175.162 158.512 168.642C158.632 167.612 158.682 166.572 158.782 165.302C156.452 166.172 154.482 167.332 152.312 168.072C140.272 172.172 128.202 176.172 115.612 178.212C112.642 178.692 109.622 179.372 106.562 179.082C105.722 179.002 105.022 179.492 104.222 179.492C100.372 179.692 96.5122 179.712 92.6622 179.482C83.6022 179.502 74.8922 177.462 66.3222 174.802C62.3022 173.552 58.8122 171.232 55.9922 168.032L56.0422 168.052Z" fill="#07192B"/>
<path d="M171.341 305.834C170.641 305.314 170.871 304.754 171.261 304.174C172.961 301.654 173.351 299.134 172.151 296.144C171.421 294.314 171.701 292.134 172.721 290.234C173.651 288.494 174.471 286.684 175.521 285.024C177.661 281.664 177.961 277.834 178.551 274.084C179.281 269.414 179.981 264.734 180.571 260.044C180.941 257.124 181.131 254.174 181.341 251.244C181.961 242.624 181.901 233.974 182.191 225.344C182.331 221.104 182.071 216.894 181.921 212.684C181.741 207.684 181.161 202.664 180.741 197.664C180.141 190.444 178.781 183.374 177.451 176.294C177.021 173.984 176.521 171.684 176.251 169.344C177.581 171.614 178.031 174.194 178.471 176.674C179.781 184.134 182.231 191.304 183.841 198.684C184.851 203.314 185.611 207.974 186.221 212.664C186.731 216.554 187.151 220.454 187.771 224.324C188.111 226.454 188.001 228.584 188.241 230.714C188.841 236.194 188.901 241.734 188.581 247.224C188.331 251.584 188.541 255.884 189.041 260.184C189.301 262.414 190.071 264.544 191.171 266.564C192.281 268.594 193.651 270.164 196.061 270.634C196.631 270.744 197.371 270.684 197.791 271.304C197.811 271.544 197.791 271.814 198.081 271.934C198.141 272.114 198.121 272.334 197.971 272.394C195.081 273.564 193.221 276.034 190.901 277.924C190.451 278.294 190.011 278.664 189.621 279.094C187.921 280.984 187.791 281.584 189.431 283.564C193.611 288.624 198.041 293.414 204.041 296.444C205.021 296.934 206.461 297.414 205.631 299.104C201.881 300.794 197.961 301.564 193.841 301.294C187.441 300.804 181.191 299.624 175.061 297.114C175.071 300.614 173.681 303.434 171.331 305.824L171.341 305.834Z" fill="#07192B"/>
<path d="M178.558 6.07049C178.608 7.10049 177.938 7.79049 177.348 8.49049C172.788 13.9205 173.578 19.7305 179.298 23.8905C179.788 24.2505 180.288 24.6105 180.668 25.3105C178.618 24.9005 176.558 24.5505 174.518 24.0705C167.718 22.4805 160.828 21.8405 153.848 22.1305C152.588 22.1805 151.318 22.3705 150.078 22.6305C149.568 22.7405 148.788 22.8805 148.728 23.5405C148.668 24.1805 149.348 24.4705 149.878 24.6905C151.948 25.5905 154.028 26.4705 156.108 27.3505C157.038 27.7505 157.978 28.1405 159.058 28.6005C158.208 29.3905 157.578 28.7605 156.948 28.7405C148.238 28.4505 139.598 29.0605 131.108 31.1305C123.008 33.1105 115.388 36.3405 108.048 40.2405C107.488 40.5405 106.908 40.8205 106.328 41.0905C104.688 41.8705 104.328 41.6405 104.218 39.8205C104.008 36.5605 104.308 33.3105 104.678 30.1105C105.118 26.2205 105.298 22.2805 106.308 18.4705C107.298 14.7405 108.478 11.1705 111.618 8.55049C113.058 7.34049 114.478 7.14049 116.108 7.81049C117.468 8.36049 118.668 9.25049 119.678 10.2505C122.848 13.3705 126.408 16.1705 128.338 20.3705C129.198 22.2405 130.698 23.2405 132.788 23.5405C134.238 23.7505 135.638 24.3305 137.378 24.8305C135.738 22.7305 134.808 20.5105 133.498 18.5305C135.908 17.6505 138.468 17.7105 140.948 17.2505C142.528 16.9505 144.118 16.7905 145.728 16.8305C147.128 16.4505 148.578 16.9505 149.968 16.5605C154.528 16.4805 159.108 16.2105 163.608 17.2705C164.478 17.4805 164.838 17.0705 165.338 16.5505C168.928 12.8405 172.858 9.54049 177.188 6.73049C177.608 6.46049 177.968 6.01049 178.548 6.04049L178.558 6.07049Z" fill="#07192B"/>
<path d="M95.202 19.3438C95.962 19.7138 95.712 20.2738 95.652 20.9538C95.192 26.6138 95.512 32.1737 98.092 37.4137C99.022 39.2937 100.632 40.5637 101.912 42.1237C102.652 43.0337 102.562 43.4638 101.802 44.3538C96.582 50.4238 92.382 57.1038 90.232 64.8838C89.482 67.6038 89.252 70.4537 89.252 73.2937C89.252 78.2237 89.002 83.1738 89.652 88.0738C90.492 94.4938 91.542 100.904 95.042 106.574C95.832 107.854 96.572 109.284 97.702 110.184C99.672 111.764 99.912 113.824 100.072 116.034C100.152 117.124 100.312 118.214 100.422 119.304C100.512 120.194 100.122 120.514 99.212 120.534C97.192 120.584 95.142 120.244 93.142 120.784C92.272 121.024 92.192 120.064 91.642 119.834C86.192 111.374 83.352 102.004 81.882 92.1338C81.252 87.9037 80.872 83.6537 80.802 79.3737C80.642 77.7237 80.612 76.0838 80.812 74.4338C80.872 66.7838 82.592 59.5338 86.062 52.7038C86.682 51.4738 86.312 50.1038 86.432 48.7938C87.352 38.3738 89.962 28.4738 95.192 19.3438H95.202Z" fill="#07192B"/>
<path d="M124.169 161.746C121.489 162.156 118.829 162.726 116.129 162.956C105.979 163.826 95.9591 163.296 86.4391 159.256C81.7591 157.276 78.1791 153.866 74.9191 149.956C68.3191 142.026 65.5991 132.426 62.7091 122.886C59.9791 113.846 57.7491 104.666 55.9791 95.3961C54.3791 87.0261 50.7691 79.7261 45.6091 73.0761C43.5891 70.4761 41.1291 68.4061 38.2891 66.7761C40.6591 67.4661 42.9891 67.4661 45.2691 66.3861C45.8691 66.1061 46.3791 66.4961 46.8991 66.7461C50.1191 68.3161 52.2591 70.8361 53.7991 74.0461C59.0191 84.8961 61.5991 96.5761 64.8091 108.076C67.5191 117.786 68.7191 127.886 72.4791 137.306C73.7891 140.596 75.2891 143.806 76.6991 147.056C79.5791 153.696 84.9391 157.156 91.7191 158.816C99.8291 160.796 108.099 161.256 116.399 161.376C118.419 161.646 120.449 161.406 122.479 161.506C123.039 161.536 123.639 161.286 124.149 161.736L124.169 161.746Z" fill="#68517B"/>
<path d="M205.744 298.735C205.614 297.555 204.634 297.185 203.774 296.755C197.524 293.595 192.944 288.575 188.644 283.235C187.614 281.945 187.364 280.715 188.744 279.485C191.744 276.825 194.224 273.525 198.094 271.945C204.834 273.395 210.444 276.475 213.564 282.975C214.564 285.045 214.774 287.345 214.774 289.595C214.774 291.355 215.224 292.605 216.934 293.235C217.394 293.945 216.834 294.295 216.404 294.655C215.784 295.175 215.074 295.585 214.314 295.885C211.844 296.855 209.284 297.595 206.884 298.735C206.534 298.905 206.124 299.045 205.734 298.735H205.744Z" fill="#132944"/>
<path d="M257.787 171.114C257.657 170.824 256.457 171.534 257.187 170.484C257.447 170.104 257.827 169.814 258.157 169.484C262.517 165.274 266.257 160.574 269.147 155.244C271.987 150.014 273.447 144.294 274.897 138.564C276.147 133.624 276.927 128.604 277.527 123.584C278.107 118.724 278.267 113.794 277.797 108.844C277.447 105.104 277.027 101.374 276.627 97.6438C276.307 94.7438 275.967 91.8537 275.587 88.5938C278.157 90.5738 280.477 92.2537 283.147 93.3637C283.637 93.5637 283.217 93.9638 283.247 94.2738C283.427 96.0438 282.927 97.8637 283.547 99.6137C284.007 100.174 283.767 100.834 283.767 101.444C283.787 108.144 283.777 114.844 283.777 121.534C283.227 124.944 282.977 128.394 282.047 131.754C281.577 133.464 281.147 135.204 280.847 136.954C278.177 146.424 275.237 155.784 268.877 163.574C265.957 167.154 262.457 170.024 257.797 171.114H257.787Z" fill="#07192B"/>
<path d="M163.533 150.853C163.953 150.593 164.233 150.173 164.843 150.153C168.733 150.003 172.603 149.743 176.403 148.803C177.133 148.623 177.753 148.843 178.203 149.473C178.623 151.923 180.243 152.453 182.523 152.733C186.423 153.213 190.283 153.993 194.243 154.033C197.173 154.293 200.093 154.263 203.023 154.043C204.043 154.013 205.053 153.983 206.073 153.943C207.473 153.603 208.933 154.083 210.333 153.673C210.773 153.653 211.203 153.623 211.643 153.603C212.453 153.643 213.263 153.683 214.063 153.723C211.603 154.853 209.003 155.663 206.333 156.013C203.183 156.423 200.093 157.173 196.933 157.593C193.853 158.003 190.943 157.453 188.003 156.943C186.183 156.633 184.363 156.203 182.623 155.613C180.723 154.973 179.023 155.233 177.333 156.183C175.553 157.183 173.653 157.883 171.753 158.623C169.623 159.453 167.273 159.703 165.243 159.103C162.073 158.153 158.953 158.703 155.823 158.573C154.243 158.503 152.663 158.463 151.223 157.813C150.013 157.263 148.663 157.883 147.523 157.163C151.513 156.273 155.493 155.313 159.373 154.003C160.303 153.653 161.353 153.613 162.163 152.943C162.623 152.243 163.073 151.543 163.533 150.843V150.853Z" fill="#07192B"/>
<path d="M284.242 94.0801C284.522 93.3301 285.142 93.1901 285.812 93.3401C288.712 93.9601 291.462 93.4801 294.342 92.7801C298.402 91.7901 302.092 90.1901 305.572 87.9501C310.262 84.9301 312.142 80.3801 312.532 75.0801C312.652 73.3701 312.772 71.6101 312.382 69.8901C312.192 69.0501 312.792 68.6901 313.422 68.5801C315.382 68.2301 317.202 68.7401 318.942 69.6201C319.792 70.0501 318.802 70.3201 318.872 70.6801C318.322 81.2201 312.062 91.3901 302.782 94.6301C297.392 96.5101 291.942 96.5601 286.492 94.8601C285.742 94.6201 285.002 94.3401 284.252 94.0801H284.242Z" fill="#07192B"/>
<path d="M250.748 90.8047C250.358 93.6047 249.888 96.3947 249.598 99.2047C249.228 102.825 248.858 106.445 249.268 110.115C249.528 112.465 249.328 114.875 249.368 117.255C249.488 123.755 249.588 130.245 249.768 136.745C249.838 139.265 249.518 141.695 248.838 144.115C247.878 147.535 245.028 149.825 241.498 150.225C237.138 150.725 232.808 151.555 228.448 152.075C223.568 152.665 218.688 153.305 213.758 153.265C220.108 151.735 226.438 150.145 232.808 148.705C237.178 147.725 241.418 146.435 245.498 144.595C246.338 144.215 246.738 143.765 246.788 142.805C246.918 139.915 247.148 137.035 247.348 134.145C247.598 131.455 247.538 128.765 247.378 126.075C246.678 117.055 246.948 108.075 248.388 99.1347C248.848 96.2747 249.528 93.4547 250.758 90.8047H250.748Z" fill="#68517B"/>
<path d="M29.9916 92.6255C30.5016 91.7655 30.2216 90.8055 30.2816 89.8955C30.3316 89.1255 30.5516 88.6955 31.4016 88.7555C34.0916 88.9455 36.7416 89.3055 39.3316 90.1455C38.2916 90.1455 37.2016 90.3455 36.2316 90.0955C34.8916 89.7555 34.5216 90.2155 34.2916 91.4255C33.8516 93.7555 33.4316 96.0855 33.4116 98.4555C33.3716 102.146 33.2916 105.846 33.4316 109.536C33.5516 112.586 33.7316 115.646 34.3416 118.656C34.6416 120.136 34.4916 121.646 34.7016 123.146C35.1316 126.286 35.2416 129.466 35.4616 132.636C35.4816 132.886 35.2716 133.156 35.1716 133.406C33.7516 129.526 32.9216 125.506 32.1916 121.446C31.1616 115.706 30.3716 109.936 29.8816 104.126C29.7216 100.286 29.5316 96.4455 29.9916 92.6155V92.6255Z" fill="#07192B"/>
<path d="M317.162 64.6226C309.082 63.8126 301.112 64.6126 293.132 65.9126C288.742 66.6326 284.262 66.7426 279.862 67.4626C274.272 68.3826 268.602 68.9926 263.432 71.5926C263.292 71.6626 263.092 71.6026 262.922 71.6026C264.692 69.8426 266.942 68.8626 269.202 68.0126C277.162 64.9926 285.472 63.4526 293.912 62.5626C300.042 61.9126 306.172 61.8626 312.272 62.9826C313.982 63.2926 315.682 63.6226 317.162 64.6226Z" fill="#68517B"/>
<path d="M134.567 310.977C139.937 314.467 145.417 317.737 151.757 319.237C152.907 319.507 154.047 319.367 155.197 319.387C150.257 321.547 145.127 321.967 139.877 320.887C137.777 320.457 135.687 319.907 133.827 318.767C131.177 317.127 130.517 314.757 131.927 312.477C132.577 311.437 133.627 311.367 134.567 310.987V310.977Z" fill="#305D85"/>
<path d="M205.742 298.73C208.182 297.87 210.452 296.62 212.982 295.94C214.532 295.52 216.132 294.87 216.942 293.22C217.712 293.27 218.052 292.74 218.392 292.18C218.852 291.43 219.442 290.89 220.392 291.26C221.252 291.6 221.832 292.21 221.862 293.22C221.892 294.24 221.722 295.23 221.002 295.97C219.312 297.73 217.512 299.34 215.152 300.22C209.782 302.24 204.222 302.15 198.652 301.73C197.052 301.61 195.412 301.86 193.852 301.29C197.952 301.07 201.892 300.1 205.742 298.72V298.73Z" fill="#305D85"/>
<path d="M108.719 302.273C110.979 303.313 112.719 305.043 114.469 306.723C116.649 308.823 119.069 310.053 122.219 310.013C125.209 309.973 128.159 310.983 131.199 310.333C131.969 310.163 132.749 309.773 133.589 309.993C130.919 311.243 128.119 312.033 125.199 312.433C122.149 312.653 119.109 312.633 116.059 312.443C112.879 311.783 109.779 310.833 107.139 308.893C105.199 307.463 105.139 306.243 106.659 304.363C107.269 303.603 108.019 302.963 108.699 302.273H108.719Z" fill="#305D85"/>
<path d="M0.572091 69.9065C4.72209 69.0865 7.41209 71.4565 9.68209 74.3365C12.4821 77.8965 16.1621 80.3565 19.6421 83.1065C21.4521 84.5365 23.2521 85.9565 25.2621 87.0965C25.3421 87.1365 26.4321 87.3465 25.3721 87.7265C17.0921 86.2165 10.9621 81.3765 5.86209 75.0065C4.68209 73.5265 3.65209 72.1865 1.45209 72.1465C-0.137909 72.1165 -0.407909 71.1265 0.572091 69.9065Z" fill="#07192B"/>
<path d="M195.78 142.565C192.09 143.205 188.35 143.555 184.65 144.085C180.75 144.645 176.83 145.555 172.96 146.505C165.81 148.265 158.61 149.615 151.19 149.115C150.63 149.075 150.01 149.305 149.57 148.735C155.23 148.455 160.84 147.915 166.11 145.605C166.37 145.485 166.67 145.425 166.9 145.265C170.76 142.535 175.13 142.585 179.56 142.895C182.14 143.095 184.73 143.095 187.31 142.895C190.84 142.785 194.25 141.885 197.73 141.445C197.23 142.085 196.42 142.195 195.76 142.565H195.78Z" fill="#07192B"/>
<path d="M225.67 114.545C225.06 114.195 224.09 114.285 224.37 113.025C224.63 111.855 225.38 111.825 226.04 111.775C227.06 111.705 228.48 111.775 229.15 112.095C231.68 112.465 234.21 112.815 236.73 113.225C238.53 113.515 240.16 114.235 241.57 115.415C242.19 115.935 242.63 116.555 242.36 117.375C242.09 118.215 241.3 118.355 240.53 118.425C239.23 118.555 238.01 118.165 236.77 117.865C233 116.975 229.48 115.215 225.65 114.535L225.67 114.545Z" fill="#07192B"/>
<path d="M93.7812 123.304C96.0612 121.984 98.4812 121.774 100.991 122.434C101.311 122.524 101.581 122.974 101.791 123.304C102.811 124.844 103.781 126.414 104.811 127.954C105.311 128.694 105.281 129.294 104.361 129.514C102.681 129.914 101.251 131.424 99.3013 130.654C97.1613 128.434 95.4312 125.894 93.7812 123.294V123.304Z" fill="#07192B"/>
<path d="M223.928 105.564C223.138 104.944 222.708 104.174 222.908 103.144C226.208 101.124 229.908 100.624 233.648 100.224C234.558 99.9643 235.508 100.184 236.438 100.104C237.138 100.044 237.848 100.134 238.528 100.334C238.848 100.424 239.158 100.524 239.468 100.634C240.058 100.844 240.388 101.294 240.408 101.964C240.428 102.704 239.918 102.964 239.358 103.164C238.368 103.524 237.328 103.634 236.288 103.684C232.108 103.884 227.958 104.334 223.928 105.564Z" fill="#07192B"/>
<path d="M195.673 178.057C195.653 178.227 195.683 178.487 195.593 178.557C195.073 178.937 195.343 178.357 195.323 178.267C194.503 175.687 193.633 173.137 192.713 170.587C191.723 167.847 190.143 165.587 188.243 163.487C188.023 163.237 187.693 163.037 187.803 162.577C188.563 162.147 189.103 162.767 189.653 163.067C190.873 163.717 192.043 164.467 193.223 165.177C193.493 165.347 193.923 165.477 193.493 165.917C192.933 165.917 192.723 166.267 192.923 166.707C194.533 170.327 194.943 174.237 195.663 178.067L195.673 178.057Z" fill="#07192B"/>
<path d="M204.703 33.3062C204.593 33.1163 204.383 32.9263 204.383 32.7463C204.383 28.7163 204.423 24.6863 204.453 20.6562C204.933 23.7562 204.813 26.8763 204.803 29.9963C204.803 31.0963 204.743 32.1963 204.703 33.2963V33.3062Z" fill="#5F5F5F"/>
<path d="M155.71 109.002C155.71 109.802 155.06 110.182 154.61 110.692C151.06 113.902 146.66 114.122 142.9 110.782C139.46 107.742 138.08 103.652 137.59 99.2017C137.22 95.8717 137.27 92.5617 138.58 89.4417C139.64 86.9117 141.5 84.9717 143.87 83.6017C146.7 81.9717 149.42 80.2217 151.85 78.0217C152.84 77.1217 153.52 77.2517 154.02 78.5817C155.75 83.1117 156.6 87.8517 157.04 92.6317C157.4 96.5417 157.5 100.512 157.1 104.452C156.94 106.062 156.7 107.652 155.71 109.002Z" fill="#D7EBE7"/>
<path d="M109.502 70.9935C108.952 70.6235 109.332 70.3235 109.562 70.0035C112.752 65.5335 116.702 61.9935 121.762 59.7335C125.542 58.0435 129.412 56.8635 133.582 56.6335C136.352 56.4835 138.762 57.6735 141.262 58.4735C147.312 60.3935 153.282 62.5935 159.342 64.4535C162.642 65.4635 166.052 66.0935 169.562 66.1035C177.302 66.1235 183.772 63.0035 189.662 58.2935C193.052 55.5835 196.342 52.7335 200.302 50.8435C205.112 48.5535 209.982 49.4335 212.992 52.9835C215.002 55.3435 216.152 58.1935 216.922 61.2135C219.312 70.6235 219.552 80.2135 219.292 89.8235C219.222 92.4835 219.322 95.2435 218.322 97.8335C218.152 96.2335 218.592 94.6535 218.552 93.0835C218.302 83.6935 218.512 74.2635 216.922 64.9535C216.252 61.0235 215.042 57.3035 212.622 54.0535C210.502 51.2235 206.982 49.9535 203.522 50.7435C200.262 51.4935 197.602 53.3535 194.972 55.2735C191.462 57.8435 188.322 60.9235 184.492 63.0435C176.682 67.3635 168.542 68.6035 159.862 65.9035C153.982 64.0735 148.302 61.7635 142.542 59.6235C140.592 58.9035 138.622 58.1235 136.592 57.7535C132.122 56.9535 127.832 58.0235 123.692 59.6335C118.132 61.7935 113.772 65.5435 110.172 70.2435C109.962 70.5135 109.702 70.7435 109.472 70.9935H109.502Z" fill="#07192B"/>
<path d="M202.132 88.0154C201.662 96.4954 201.812 105.075 194.852 111.595C195.292 111.775 195.842 112.005 196.392 112.235C196.372 112.335 196.362 112.425 196.342 112.525C195.742 112.495 195.142 112.505 194.552 112.425C192.492 112.135 190.442 111.795 188.382 111.505C187.842 111.425 187.252 111.555 187.722 110.665C187.912 110.315 187.422 110.105 187.212 109.845C185.262 107.475 184.262 104.725 184.152 101.685C183.892 94.8854 184.022 88.1254 186.232 81.5754C186.662 80.3054 187.162 79.0654 187.942 77.9754C188.692 76.9154 188.742 76.0654 187.552 75.2254C186.712 74.6354 185.952 73.8754 185.442 72.9354C185.192 72.4654 184.882 71.8854 185.442 71.5354C185.942 71.2254 186.292 71.7854 186.522 72.1554C188.042 74.5954 190.262 75.9654 192.962 76.8854C197.842 78.5554 201.162 82.0054 203.292 86.6454C203.362 86.8054 203.442 86.9654 203.502 87.1254C203.702 87.6154 203.952 88.2454 203.522 88.5954C202.972 89.0254 202.722 88.1054 202.122 88.0254L202.132 88.0154Z" fill="#6E577E"/>
<path d="M155.712 109.007C156.662 106.727 157.062 104.307 157.022 101.867C156.932 97.1368 157.062 92.4068 156.022 87.6968C155.362 84.7068 154.732 81.7168 153.852 78.7768C153.512 77.6468 153.142 77.4968 152.262 78.3268C149.972 80.4968 147.342 82.2168 144.572 83.7068C138.842 86.7968 137.452 91.9268 137.882 97.8668C138.072 100.457 138.472 103.047 139.492 105.497C140.982 109.077 143.332 111.617 147.232 112.617C149.572 113.217 151.382 111.997 153.372 111.307C153.802 111.157 154.192 110.907 154.602 110.697C154.522 111.247 154.992 111.927 154.022 112.247C150.632 113.357 147.262 114.557 143.932 115.877C144.672 114.557 146.212 114.437 147.282 113.567C141.362 111.587 138.822 106.917 137.432 101.407C136.792 98.8768 136.752 96.2468 137.002 93.6568C137.482 88.6468 140.372 85.1568 144.422 82.4568C148.102 80.0068 151.722 77.4868 153.992 73.5168C154.132 73.2668 154.372 73.0868 154.582 72.8768C154.872 72.5868 155.212 72.2568 155.642 72.4968C156.072 72.7368 155.972 73.2168 155.882 73.5968C155.662 74.5168 155.222 75.3668 154.522 75.9868C153.772 76.6568 153.832 77.3068 154.152 78.1468C156.112 83.3868 156.972 88.8268 157.362 94.4168C157.612 98.1368 157.672 101.817 157.242 105.497C157.082 106.807 156.902 108.137 155.712 109.017V109.007Z" fill="#6E577E"/>
<path d="M148.193 148.472C146.193 149.342 144.193 148.612 142.263 148.302C135.133 147.182 128.153 145.402 121.523 142.482C118.553 141.172 115.753 139.552 113.463 137.192C113.143 136.862 112.263 136.602 112.993 135.852C117.363 139.892 122.743 142.052 128.253 143.882C134.743 146.042 141.393 147.592 148.193 148.472Z" fill="#07192B"/>
<path d="M173.964 114.617C172.644 114.587 171.644 114.717 170.744 114.177C169.664 113.527 169.544 112.717 170.404 111.787C171.844 110.217 174.634 109.577 176.654 110.397C177.594 110.777 178.474 111.387 178.434 112.497C178.394 113.577 177.464 113.977 176.524 114.237C175.574 114.507 174.614 114.707 173.954 114.627L173.964 114.617Z" fill="#69527B"/>
<path d="M188.428 124.146C187.628 123.666 186.848 123.176 186.038 122.716C183.618 121.346 181.238 121.265 178.808 122.775C176.648 124.125 174.528 125.656 171.758 125.356C170.608 125.226 169.448 125.116 168.328 124.826C164.148 123.766 160.678 124.976 157.708 127.956C157.428 128.236 157.138 128.495 156.758 128.675C157.498 127.065 158.878 126.066 160.358 125.256C163.408 123.596 166.628 122.795 170.058 123.915C172.258 124.635 174.268 124.245 176.238 123.125C177.288 122.525 178.418 122.025 179.568 121.615C183.088 120.375 185.958 121.686 188.428 124.136V124.146Z" fill="#71597E"/>
<path d="M134.354 85.6016C136.244 84.0116 138.144 82.4316 140.024 80.8316C140.994 80.0116 141.924 79.1516 142.904 78.3416C143.144 78.1416 143.514 77.8516 143.834 78.1316C144.234 78.4816 144.004 78.9016 143.694 79.1816C140.904 81.7516 138.174 84.4216 134.604 85.9116C134.514 85.8116 134.434 85.7016 134.344 85.6016H134.354Z" fill="#6E567D"/>
<path d="M193.106 75.2031C191.276 74.5531 189.656 73.5431 188.316 72.0831C188.076 71.8131 187.896 71.4831 188.196 71.1631C188.536 70.8131 188.976 70.8931 189.296 71.1631C190.676 72.3631 192.026 73.5931 193.386 74.8131C193.296 74.9331 193.196 75.0632 193.106 75.1832V75.2031Z" fill="#6F577D"/>
<path d="M187.633 125.566C188.943 125.036 189.663 124.326 189.403 123.026C189.343 122.746 189.443 122.376 189.813 122.446C190.033 122.486 190.283 122.776 190.373 123.006C190.943 124.426 189.663 125.766 187.633 125.566Z" fill="#745C7F"/>
<path d="M156.776 130.327C155.226 130.627 154.106 129.757 154.166 128.507C154.186 128.137 154.276 127.777 154.646 127.677C155.186 127.527 155.166 127.997 155.166 128.317C155.166 129.407 155.966 129.847 156.776 130.327Z" fill="#7D6382"/>
<path d="M175.441 127.51C174.191 127.51 172.931 127.51 171.681 127.51C171.391 127.51 171.031 127.46 171.031 127.1C171.031 126.69 171.391 126.48 171.751 126.52C172.981 126.64 174.211 126.82 175.441 126.98C175.441 127.16 175.441 127.34 175.441 127.52V127.51Z" fill="#6E577D"/>
<path d="M184.119 29.8272C184.799 28.1472 185.439 26.4472 186.159 24.7872C188.589 19.2272 191.019 13.6572 193.939 8.31725C194.599 7.11725 195.399 5.73725 196.969 5.80725C198.629 5.87725 199.079 7.37725 199.499 8.72725C200.249 11.1072 200.639 13.5972 200.779 16.0372C201.049 20.8872 202.089 25.6672 201.939 30.5372C201.919 31.0372 202.189 31.7272 201.699 31.9972C201.119 32.3272 200.679 31.7072 200.209 31.3972C196.799 29.1472 192.949 27.7972 189.169 26.3772C186.749 25.4672 186.689 25.6372 185.509 28.0972C185.199 28.7472 184.849 29.3772 184.509 30.0172C184.379 29.9572 184.249 29.8872 184.109 29.8272H184.119Z" fill="#07192B"/>
<path d="M152.468 91.685C153.248 92.085 153.128 92.545 152.728 93.225C151.658 95.035 151.818 95.445 153.868 96.305C154.378 96.525 154.348 96.925 154.388 97.275C154.838 101.225 154.438 105.045 152.448 108.555C150.908 111.265 146.908 111.665 144.218 109.495C140.768 106.705 139.818 102.835 139.518 98.685C139.248 94.985 140.048 91.655 142.888 89.045C143.388 88.585 143.838 88.045 144.608 87.875C144.928 88.885 144.468 89.985 145.038 90.915C145.838 91.605 145.998 92.705 146.718 93.475C148.388 95.255 149.798 95.205 151.218 93.245C151.608 92.705 151.748 91.945 152.488 91.685H152.468Z" fill="#784D6B"/>
<path d="M152.471 91.6865C152.461 91.7465 152.461 91.8065 152.431 91.8565C151.601 93.4365 150.911 95.2765 148.721 95.2365C147.091 95.2065 145.541 93.2365 145.031 90.9165C145.041 89.6465 145.061 88.3865 145.071 87.1165C145.071 85.5965 145.901 84.6065 147.211 84.0665C148.471 83.5465 149.571 83.9765 150.491 84.9465C152.301 86.8565 153.221 89.0265 152.481 91.6965L152.471 91.6865Z" fill="white"/>
<path d="M201.309 90.466C201.029 95.806 200.359 101.196 198.169 106.296C197.679 107.426 197.059 108.466 196.229 109.376C193.939 111.886 189.709 111.726 187.539 109.116C185.639 106.826 184.729 104.106 184.629 101.266C184.359 93.166 184.769 85.136 188.699 77.726C189.269 76.646 189.679 76.726 190.639 77.156C194.479 78.876 197.699 81.266 200.249 84.696C201.629 86.546 201.059 88.446 201.309 90.476V90.466Z" fill="#D7EBE7"/>
<path d="M196.722 90.8748C197.962 90.7248 197.452 91.4148 197.122 91.8348C196.162 93.1148 195.482 94.2548 197.752 94.8848C198.222 95.0148 198.032 95.5848 198.042 95.9648C198.162 99.7048 196.902 103.065 194.832 106.055C192.472 109.465 188.242 108.925 186.512 105.105C184.392 100.435 184.962 95.5948 185.692 90.7448C185.992 88.7448 186.602 86.8848 188.342 85.6548C188.842 85.3048 189.332 84.5248 190.112 85.2548C190.522 85.8748 190.182 86.4848 190.062 87.0848C189.902 87.8848 189.752 88.6748 189.892 89.4848C190.152 90.9848 190.792 92.3148 192.252 92.8848C193.712 93.4548 194.762 92.4548 195.752 91.5548C196.052 91.2848 196.272 90.9248 196.702 90.8548L196.722 90.8748Z" fill="#784D6B"/>
<path d="M196.716 90.876C196.426 91.296 196.186 91.766 195.836 92.136C193.696 94.396 190.966 93.866 189.806 90.986C189.016 89.036 189.426 87.146 190.116 85.266C190.486 84.336 191.096 83.586 191.856 82.966C193.476 81.626 195.106 81.976 196.166 83.816C197.466 86.096 197.816 88.416 196.716 90.866V90.876Z" fill="white"/>
<path d="M152.163 93.6449C151.823 94.2949 151.753 95.0449 151.703 95.7749C151.693 95.9449 151.683 96.1149 151.733 96.2749C151.793 96.4749 151.953 96.6349 152.113 96.7549C152.773 97.2449 153.713 97.2749 154.443 96.8949C155.173 96.5149 155.683 95.7749 155.843 94.9649C155.883 94.7649 155.903 94.5449 155.823 94.3449C155.763 94.2049 155.653 94.0949 155.553 93.9849C155.133 93.5549 154.443 92.6949 153.853 92.5249C153.173 92.3249 152.423 93.0849 152.143 93.6249L152.163 93.6449Z" fill="white"/>
<path d="M195.959 94.5439C196.019 94.7239 196.099 94.8939 196.219 95.0239C196.519 95.3639 197.009 95.4439 197.459 95.4739C198.139 95.5039 198.879 95.4139 199.359 94.9339C200.319 93.9739 199.769 91.5139 198.349 91.2539C196.709 90.9539 195.519 93.1939 195.959 94.5439Z" fill="white"/>
</svg>
