<svg width="151" height="194" viewBox="0 0 151 194" fill="none" xmlns="http://www.w3.org/2000/svg">
<path d="M101.012 124.804C104.292 128.903 106.155 128.456 108.391 126.618C111.944 123.661 113.484 114.468 113.956 111.562C114.602 107.636 140.416 105.375 148.814 113.475C147.199 114.692 142.776 121.077 142.776 121.077C142.776 121.077 133.609 123.214 132.789 122.891C131.969 122.568 124.292 119.76 124.292 119.76L122.801 129.599L117.385 136.158L112.963 139.76C112.963 139.76 108.217 140.257 107.397 140.257C106.578 140.257 98.7266 138.121 98.7266 138.121L101.012 124.804Z" fill="#8974A3"/>
<path d="M108.367 126.564C111.721 123.558 113.038 116.378 113.808 112.03C113.858 111.782 113.883 111.434 114.007 111.21C115.324 109.098 120.988 108.452 123.373 108.154C130.877 107.483 141.237 107.955 147.572 112.328C148.02 112.651 148.442 113.024 148.864 113.396L148.79 113.471C147.92 112.775 146.976 112.204 146.007 111.732C138.678 108.229 124.889 108.055 117.137 110.316C116.318 110.614 115.324 110.912 114.802 111.583C114.727 111.657 114.703 112.055 114.678 112.154C113.858 116.254 112.864 120.452 110.678 124.08C110.081 125.049 109.386 125.968 108.467 126.614C108.417 126.639 108.367 126.564 108.367 126.564Z" fill="#AA88B8"/>
<path d="M96.3144 95.9105C103.619 95.19 99.3455 111.24 99.7679 116.457C100.19 121.675 101.954 136.184 103.619 137.128C105.283 138.072 109.979 139.538 113.209 136.408C116.439 133.277 123.743 121.998 124.265 119.712C124.787 117.426 130.327 119.513 132.613 119.612C134.898 119.712 142.004 119.289 143.371 117.525C144.737 115.762 147.867 112.308 148.787 113.451C149.731 114.594 149.308 117.302 148.265 117.302C147.222 117.302 146.799 116.06 146.799 116.06C145.234 120.855 141.681 124.731 137.308 125.451C132.936 126.172 126.352 124.408 125.83 123.985C123.023 132.134 116.091 142.271 110.799 142.668C105.333 143.066 100.439 139.389 100.439 139.389L81.4821 99.9602L77.1094 96.2086L88.6871 91.8359L96.3144 95.9105Z" fill="#5F4769"/>
<path opacity="0.48" d="M73.3103 105.523C70.6022 111.536 65.8817 118.791 61.7326 116.828C61.186 125.499 62.7513 129.722 62.8755 130.17C62.9749 130.617 73.9563 122.716 74.1799 122.219C74.4035 121.747 75.7203 108.43 75.7203 108.43L73.3103 105.523Z" fill="#1A131E"/>
<path d="M47.2213 61.8708C41.5319 58.1192 32.9356 55.5602 32.6126 58.2434C32.2896 60.9018 39.1219 58.5913 46.8487 63.1379C47.3207 63.5354 47.6437 62.0447 47.2213 61.8708Z" fill="#5F4769"/>
<path d="M48.4203 65.8939C41.6377 65.1734 32.8426 66.8628 33.7619 69.3721C34.706 71.8815 39.6998 66.6889 48.6439 67.1858C49.265 67.3349 48.8675 65.8442 48.4203 65.8939Z" fill="#5F4769"/>
<path d="M42.2507 97.6667C40.8842 94.1139 41.1078 90.8841 38.3997 89.5176C35.6916 88.1511 29.5053 86.412 26.6729 87.7785C23.8655 89.1449 10.6232 92.8717 9.67908 94.0145C8.73497 95.1574 5.82812 97.8655 5.82812 97.8655C7.59211 101.095 16.9338 105.716 22.4742 103.754C26.9462 102.164 29.5798 100.921 31.145 103.654C32.7102 106.387 42.2507 97.6667 42.2507 97.6667Z" fill="#5F4769"/>
<path opacity="0.48" d="M38.38 95.5885C37.0135 95.7873 35.5725 96.0357 34.2806 96.5575C33.6346 96.8059 32.9638 97.3277 32.293 97.4519C31.175 97.6755 30.1812 97.5016 29.0632 98.0233C25.6594 99.6134 22.3054 100.259 18.4296 100.284C15.8457 100.309 8.39225 99.6631 7.64691 96.1351C5.7587 97.1289 3.39844 100.384 3.39844 100.384C5.31149 98.719 8.74008 101.427 12.9389 103.067C16.119 104.309 20.0445 104.632 22.4296 103.787C25.7091 102.62 28.2681 102.123 29.8334 104.856C31.3986 107.564 42.2061 97.7003 42.2061 97.7003C41.9328 96.955 41.7092 96.2345 41.5104 95.5388C40.4421 95.3649 39.2247 95.4643 38.38 95.5885Z" fill="#1A131E"/>
<path d="M39.9412 90.8863C37.7301 88.1534 30.9226 82.2154 17.0095 84.9981C3.09634 87.7807 -2.14592 103.184 0.785774 104.153C3.74231 105.147 2.25162 99.2342 8.48768 95.8056C14.7237 92.377 30.376 86.2652 39.9412 90.8863Z" fill="#8974A3"/>
<path d="M103.103 130.422C104.842 131.018 108.171 130.198 108.892 131.962C109.612 133.701 105.563 134.745 102.879 133.229C100.196 131.664 103.103 130.422 103.103 130.422Z" fill="#84C8C6"/>
<g opacity="0.62">
<path opacity="0.48" d="M149.293 114.586C149.268 114.66 149.244 114.76 149.219 114.859C149.244 114.81 149.293 114.735 149.318 114.685C149.293 114.636 149.293 114.611 149.293 114.586Z" fill="#1A131E"/>
<path opacity="0.48" d="M147.768 115.955C146.924 116.08 146.849 115.458 146.476 116.104C146.228 116.527 146.327 117.198 146.203 117.645C146.427 117.123 146.65 116.576 146.824 116.03C146.824 116.03 147.247 117.272 148.29 117.272C148.539 117.272 148.737 117.123 148.911 116.875C148.911 116.825 148.936 116.775 148.936 116.701C149.035 116.154 149.06 115.434 149.209 114.812C148.911 115.409 148.365 115.881 147.768 115.955Z" fill="#1A131E"/>
<path opacity="0.48" d="M145.709 118.656C145.56 118.855 145.411 119.029 145.237 119.228C143.597 120.967 141.287 122.11 138.951 122.582C136.069 123.178 132.84 123.277 129.908 122.979C128.343 122.83 126.678 122.284 125.187 122.259C125.088 122.83 124.939 123.576 124.765 124.122C125.063 124.843 123.324 127.203 122.951 127.948C122.131 129.538 121.51 131.004 120.392 132.42C119.1 134.01 117.56 135.228 115.771 136.197C114.902 136.669 113.734 136.321 112.715 136.346C109.734 136.371 108.218 135.054 107.572 132.097C107.175 130.284 107.398 128.544 108.02 126.93C106.181 128.321 104.516 128.619 102.007 125.911C101.436 126.681 100.964 127.551 100.591 128.445C99.3239 131.476 98.8767 134.954 99.4481 138.259C99.622 138.309 99.8208 138.358 100.02 138.408L100.492 139.377C100.492 139.377 105.411 143.054 110.852 142.656C116.119 142.259 123.051 132.122 125.883 123.973C126.405 124.395 132.989 126.159 137.361 125.439C140.864 124.843 143.871 122.184 145.709 118.656Z" fill="#1A131E"/>
</g>
<path opacity="0.48" d="M149.285 114.594C149.261 114.668 149.236 114.768 149.211 114.867C149.236 114.817 149.285 114.743 149.31 114.693C149.285 114.643 149.285 114.619 149.285 114.594Z" fill="#1A131E"/>
<path opacity="0.48" d="M147.768 115.955C146.924 116.08 146.849 115.458 146.476 116.104C146.228 116.527 146.327 117.198 146.203 117.645C146.427 117.123 146.65 116.576 146.824 116.03C146.824 116.03 147.247 117.272 148.29 117.272C148.539 117.272 148.737 117.123 148.911 116.875C148.911 116.825 148.936 116.775 148.936 116.701C149.035 116.154 149.06 115.434 149.209 114.812C148.911 115.409 148.365 115.881 147.768 115.955Z" fill="#1A131E"/>
<path opacity="0.48" d="M99.7469 116.454C99.6226 114.914 99.8959 112.454 100.194 109.746C99.3493 108.579 97.635 106.889 97.4114 105.473C97.0636 103.212 99.1754 102.914 100.616 103.684C100.691 99.212 99.8959 95.535 96.3183 95.8828L88.8151 91.8828C88.517 92.0816 88.2189 92.2803 87.9456 92.5039C81.9331 97.299 85.5356 105.2 89.3866 110.119C91.4238 112.703 95.8462 118.169 99.7717 116.529C99.7717 116.479 99.7717 116.479 99.7469 116.454Z" fill="#1A131E"/>
<path d="M72.1413 4.20534C67.222 3.88236 45.8306 5.39789 41.4579 10.7644C40.8119 12.8265 51.4704 22.0439 51.4704 22.0439" fill="#5F4769"/>
<path opacity="0.48" d="M52.0371 6.19954C52.9315 6.79582 53.7514 7.96352 53.9004 8.73371C54.1737 10.125 53.4532 11.6654 52.2855 12.3859C50.3973 13.5785 49.0557 11.7151 47.1923 11.243C46.1488 10.9946 45.2296 11.1437 44.2109 11.3176C44.2358 13.7524 48.3849 16.1623 49.9998 17.3549C50.9687 18.0754 52.0868 18.3238 53.2545 18.3984C54.2731 18.4729 55.9129 17.4791 56.7576 17.1064C56.9563 17.007 57.1799 16.9325 57.3787 16.8331L72.1365 4.21195C69.1055 4.01319 59.7638 4.53493 52.0371 6.19954Z" fill="#1A131E"/>
<path d="M45.5078 71.3602C45.5078 76.5031 50.2532 89.3727 75.098 93.0746C94.1043 95.9069 98.4522 100.503 121.707 95.0374C136.316 91.6088 143.421 75.4845 147.471 58.7887C151.521 42.093 150.974 32.9253 150.974 31.9315C150.204 22.6643 144.639 17.5214 136.465 13.4717C120.514 2.34125 107.322 -0.714669 85.7068 0.154901C79.8434 0.403349 74.5514 1.96857 69.98 4.05554C60.3153 8.50277 53.9302 15.3599 52.5141 17.0742C52.1165 17.5463 51.6942 18.1426 51.2221 18.8879C49.2345 22.0184 46.8494 27.2855 46.1786 32.7016C45.3587 39.3601 46.8991 51.5837 46.7997 55.5092C46.7004 59.4347 45.7314 60.8757 45.5078 71.3602Z" fill="#5F4769"/>
<path d="M136.413 13.5463C134.301 12.3041 131.966 10.8631 129.804 9.74506C128.314 8.97487 126.5 8.05561 124.935 7.33511C123.643 6.76368 122.276 6.1674 120.935 5.6705C117.63 4.40342 114.053 3.35993 110.599 2.63943C109.407 2.36614 108.09 2.19223 106.897 1.96862C105.904 1.8444 104.14 1.59595 103.146 1.49657C102.152 1.39719 100.91 1.24812 99.916 1.19843C97.1085 1.02452 94.0526 0.875452 91.2452 0.875452C89.4563 0.850607 87.6178 0.87545 85.8041 0.900295C85.2824 0.900295 84.1892 0.949987 83.6675 0.999676C80.4376 1.22328 77.2327 1.81955 74.1271 2.76366C72.7357 3.18602 71.3693 3.65807 70.0028 4.17981L69.9531 4.08044C75.2451 1.6208 81.0339 0.179795 86.8725 0.10526C91.9408 -0.0686537 97.1085 -0.0686529 102.177 0.428244C103.419 0.527623 105.282 0.77607 106.525 0.949984C107.121 1.02452 108.065 1.22328 108.686 1.32266C114.425 2.34129 120.04 4.20466 125.258 6.76368C129.183 8.70158 132.91 11.0121 136.512 13.4966C136.463 13.4469 136.413 13.5463 136.413 13.5463Z" fill="#7D6487"/>
<path d="M69.956 4.10579C64.0181 7.78282 58.3286 11.8822 53.2602 16.7021C52.5149 17.3729 51.8689 18.1183 51.223 18.8885L51.1484 18.8388C52.1919 17.0996 53.6329 15.6586 55.0491 14.2425C57.9311 11.435 61.1361 8.95053 64.5895 6.86356C66.3038 5.82008 68.0926 4.87597 69.9063 4.03125C69.9311 4.05609 69.956 4.10579 69.956 4.10579Z" fill="#3F354C"/>
<path opacity="0.48" d="M88.1593 93.8516H79.1406V100.734H88.1593V93.8516Z" fill="#1A131E"/>
<path opacity="0.48" d="M150.976 31.7854C150.901 30.7916 150.752 29.8475 150.578 28.9531C147.199 32.1333 141.535 37.7979 141.535 37.7979C142.454 44.9035 139.025 72.0838 135.1 79.6118C131.174 87.1398 124.292 93.3758 116.591 94.8417C108.889 96.3075 103.82 95.3386 103.82 95.3386L104.59 97.4255C109.162 97.3013 114.528 96.5808 121.709 94.8914C136.317 91.4628 143.423 75.3385 147.473 58.6427C151.522 41.947 150.976 32.7544 150.976 31.7854Z" fill="#1A131E"/>
<path d="M125.7 52.5754C125.302 41.6934 116.109 31.2834 105.724 31.4573C95.3392 31.6312 89.1031 34.8859 79.2894 32.8486C69.4757 30.8113 66.9167 20.9728 58.2458 21.0473C51.0905 21.1218 46.6681 27.7057 46.0718 40.2772C46.2209 46.3393 46.8669 52.9729 46.7923 55.681C46.693 59.6065 43.7861 60.3767 43.5625 70.8612C43.5625 76.0041 51.165 90.3644 75.8856 94.8862C84.8298 96.5259 94.6684 98.0415 104.01 97.793C111.439 96.6502 116.606 93.4949 117.203 89.3458C117.948 84.178 115.488 79.3581 116.134 77.8923C116.78 76.4016 126.097 63.4574 125.7 52.5754Z" fill="#FFD3A4"/>
<path d="M60.9609 75.9375C61.5324 78.3723 64.9858 78.2232 66.8492 78.8692C67.5945 79.1176 68.2156 79.4903 68.8864 79.9127C69.9299 80.5835 70.5759 81.7015 71.5945 82.3723C72.3896 81.8257 70.9983 79.54 70.6007 79.0928C69.7312 78.0493 68.3399 77.5773 67.0231 77.3537C65.7063 77.13 64.3895 76.8816 63.0727 76.658C62.7001 76.6083 61.0852 76.4344 60.9609 75.9375Z" fill="#FFC79B"/>
<path d="M59.7445 70.1406C58.7755 70.886 58.7507 72.2773 59.2973 73.2711C59.9929 74.563 61.1109 75.0351 62.378 75.5816C65.0613 76.6997 67.9184 76.6748 70.7507 76.6748C72.7632 76.6748 74.8501 76.5009 76.8377 76.6997C78.3036 76.8487 79.5955 77.2214 80.962 77.8674C83.6452 79.1345 85.5583 81.5196 87.2229 83.8798C87.0241 83.7059 86.9247 83.5072 86.7757 83.3084C85.8812 82.2401 84.6142 81.5941 83.4216 80.8736C80.6141 79.1842 77.6576 77.4947 74.3035 77.3208C71.1234 77.1717 67.8936 77.6438 64.7631 76.9978C62.8501 76.6003 59.9432 76.2028 58.8004 74.3642C58.4277 73.768 58.3532 73.0972 58.4774 72.4264C58.6264 71.9046 58.8004 70.6872 59.7445 70.1406Z" fill="#FFC79B"/>
<path d="M75.87 94.8936C84.8142 96.5333 94.6527 98.0489 103.994 97.8004C106.827 97.3532 109.336 96.6327 111.373 95.6637C103.001 97.3532 88.1185 96.8563 79.3483 94.2724C77.8079 90.9929 72.6899 90.1233 70.2799 91.8625C70.2799 91.8625 67.4476 91.3159 66.0315 90.4463C59.696 88.7072 45.7332 76.5829 43.5469 70.8438C43.5469 75.9866 51.1742 90.3718 75.87 94.8936Z" fill="#FFC79B"/>
<path d="M116.108 77.8675C116.754 76.4016 126.095 63.4575 125.698 52.5754C125.3 41.6934 116.108 31.2834 105.723 31.4573C95.3375 31.6312 89.1015 34.8859 79.2878 32.8486C69.4741 30.8113 66.915 20.9728 58.2442 21.0473C51.0889 21.1218 46.6665 27.7057 46.0702 40.2772C46.2193 46.3394 46.8653 52.9729 46.7907 55.681C46.7162 58.2152 45.4988 59.4326 44.5547 62.8115C45.8466 61.1966 48.6789 60.9481 50.9647 61.1966C55.0641 61.6686 59.1138 64.2028 60.2318 64.1531C62.0951 64.0537 63.3871 63.6065 65.2504 64.6003C67.1138 65.5941 69.1759 63.6065 73.5486 64.6997C77.9213 65.7929 80.4306 66.7618 82.4928 69.0724C84.5549 71.3581 95.4866 72.5755 99.0891 71.5817C102.692 70.5879 114.145 73.5941 116.108 77.8675Z" fill="#FFC79B"/>
<path d="M83.6189 69.8207C84.8114 72.7772 94.1034 75.7089 100.762 71.6841C101.383 70.8393 101.954 69.9449 102.451 69.0753C107.221 60.5784 106.029 51.1374 100.116 48.6529C96.6624 47.2119 92.1903 47.3858 88.7617 50.9138C85.681 54.0691 83.4449 59.9573 83.6189 69.8207Z" fill="#DEE7E9"/>
<path d="M83.6172 69.8203C84.3874 71.1868 85.9278 71.8327 87.3191 72.3793C90.2011 73.398 93.3564 73.6713 96.3874 73.1495C97.903 72.8762 99.3688 72.4042 100.76 71.6837C99.4682 72.5532 98.0024 73.1992 96.462 73.5222C93.3812 74.193 90.1017 73.9197 87.17 72.752C85.7787 72.1309 84.2135 71.311 83.6172 69.8203Z" fill="#B59B7E"/>
<path d="M102.351 69.0012C103.568 63.9329 104.661 57.9701 102.177 53.1502C101.059 51.0632 99.2948 50.0694 97.0588 49.5229C94.7979 48.9763 92.4377 49.2496 90.3259 50.2185C89.829 50.4421 89.3321 50.7154 88.86 50.9887L88.7109 50.8396C90.7979 48.6284 93.7296 47.4359 96.7607 47.6595C105.879 48.3055 106.947 58.0695 104.438 65.1006C103.941 66.4919 103.32 67.8335 102.574 69.1254L102.351 69.0012Z" fill="#BDD9D6"/>
<path d="M102.432 69.049C104.27 65.1236 105.388 60.726 104.767 56.403C104.345 53.0987 102.531 49.844 99.2516 48.7756C95.5994 47.434 91.6242 48.2291 88.7422 50.8626C91.3757 47.6825 95.649 46.639 99.5248 47.9309C103.227 48.9993 105.314 52.6266 105.686 56.2788C106.233 60.7757 104.866 65.3223 102.432 69.049Z" fill="#994F4D"/>
<path d="M82.5549 63.7046C81.9835 66.363 82.6046 68.4003 84.0208 68.6984C85.4369 68.9966 87.027 67.0835 87.5736 64.4003C88.145 61.7419 87.4494 59.3319 86.0332 59.0338C84.6419 58.7357 83.1015 61.0462 82.5549 63.7046Z" fill="#AF4D3B"/>
<path d="M85.7862 59.8525C85.811 59.8525 85.8359 59.8525 85.8607 59.8525C86.2085 59.9271 86.5315 60.3743 86.7303 61.0451C86.9787 61.9147 86.9787 63.0575 86.7551 64.2004C86.2582 66.5855 85.016 67.8526 84.3203 67.8526C84.2706 67.8526 84.2458 67.8526 84.1961 67.8526C83.2023 67.6538 83.0035 65.6662 83.3762 63.8774C83.5998 62.7594 84.047 61.6662 84.5688 60.896C85.0905 60.1258 85.5377 59.8525 85.7862 59.8525ZM85.7862 59.0078C84.4445 59.0078 83.0781 61.1942 82.5315 63.7035C81.9601 66.3619 82.5812 68.3992 83.9973 68.6973C84.0967 68.7221 84.1961 68.7222 84.2955 68.7222C85.6371 68.7222 87.0533 66.8836 87.575 64.3991C88.1464 61.7407 87.4508 59.3308 86.0346 59.0327C85.9601 59.0078 85.8855 59.0078 85.7862 59.0078Z" fill="#994F4D"/>
<path d="M86.9911 58.4152C87.8855 58.0425 88.7054 58.5146 88.8545 59.0115C89.0035 59.5332 88.7054 60.8748 87.3638 60.9742C86.0221 61.0736 85.3265 59.2599 86.9911 58.4152Z" fill="white"/>
<path d="M67.0245 64.6035C65.8071 65.7464 64.8381 64.4793 62.9996 64.2557C61.1611 64.0321 58.8754 64.4296 58.776 63.8085C58.453 62.6656 58.0058 60.3302 57.658 57.5476C56.9126 51.4358 56.7139 43.1376 59.5213 40.2307C63.0493 36.6282 65.7574 39.7338 66.1052 40.2804C66.8257 42.8394 68.3412 53.001 67.7947 57.5724C67.2232 62.1936 67.0245 64.6035 67.0245 64.6035Z" fill="#DEE7E9"/>
<path d="M67.0219 64.5983C66.5499 65.2194 65.6306 65.2691 64.935 65.0704C63.8666 64.7971 62.9474 64.3747 61.8542 64.325C61.1337 64.2753 60.438 64.2753 59.7175 64.2505C59.3946 64.2008 58.8231 64.2256 58.7734 63.8281C58.8231 64.002 59.0219 64.0269 59.1958 64.0517C60.4629 64.002 61.73 63.7039 62.9971 64.0269C64.3387 64.2505 65.73 65.4927 67.0219 64.5983Z" fill="#B59B7E"/>
<path d="M57.56 57.5727C57.0134 53.349 56.7401 49.0509 57.4109 44.8273C57.7588 42.7154 58.5538 40.5043 60.4172 39.2869C61.7836 38.2434 63.5973 38.0943 65.0383 39.1129C65.4855 39.4359 65.9079 39.8086 66.2309 40.2558C66.3799 40.8769 66.529 41.5229 66.6532 42.1689C66.7774 42.79 66.9017 43.4359 67.0011 44.0819L66.8271 44.1068C66.3799 43.0881 65.734 41.5477 65.3116 40.5291L65.411 40.7775C65.1377 40.5539 64.8396 40.3303 64.5166 40.1564C63.1749 39.4608 62.1563 39.8583 61.1128 40.7775C59.8457 41.8956 59.4482 43.4608 59.1004 45.1254C58.529 48.0571 58.355 51.2869 58.0569 54.318C57.9575 55.3863 57.883 56.4546 57.7339 57.523C57.7339 57.5478 57.56 57.5727 57.56 57.5727Z" fill="#BDD9D6"/>
<path d="M57.6491 57.5435C56.6304 52.7732 55.4627 42.0154 60.3074 39.0837C61.2267 38.4378 62.4441 38.0899 63.5621 38.3384C64.6553 38.6365 65.5746 39.357 66.1211 40.2763C65.0777 39.1086 63.5124 38.4378 62.0217 38.9595C61.5745 39.1334 61.1025 39.357 60.7298 39.68C60.5559 39.8042 60.3075 40.003 60.1584 40.1769C58.8168 41.3695 58.3696 43.1831 58.0466 44.9223C57.3261 49.0962 57.5497 53.3198 57.6491 57.5435Z" fill="#994F4D"/>
<path d="M66.2723 64.5229C67.4798 64.5229 68.4586 62.4873 68.4586 59.9763C68.4586 57.4653 67.4798 55.4297 66.2723 55.4297C65.0648 55.4297 64.0859 57.4653 64.0859 59.9763C64.0859 62.4873 65.0648 64.5229 66.2723 64.5229Z" fill="#AF4D3B"/>
<path d="M66.2723 56.1502C66.8686 56.1502 67.763 57.6409 67.763 60.0011C67.763 62.3614 66.8686 63.8521 66.2723 63.8521C65.676 63.8521 64.7816 62.3614 64.7816 60.0011C64.7816 57.6409 65.676 56.1502 66.2723 56.1502ZM66.2723 55.4297C65.0549 55.4297 64.0859 57.467 64.0859 59.9763C64.0859 62.4856 65.0797 64.5229 66.2723 64.5229C67.4648 64.5229 68.4586 62.4856 68.4586 59.9763C68.4586 57.467 67.4897 55.4297 66.2723 55.4297Z" fill="#994F4D"/>
<path d="M65.8803 54.3638C66.4517 53.8669 67.1474 54.0159 67.371 54.3886C67.5946 54.7613 67.694 55.8793 66.725 56.2768C65.7561 56.6743 64.8617 55.4072 65.8803 54.3638Z" fill="white"/>
<path d="M74.6199 69.9974C74.446 70.9167 72.7317 71.1899 70.9925 70.8918C69.2534 70.5688 68.1851 69.7986 68.3341 68.8794C68.508 67.9601 70.0484 67.4632 71.7876 67.7862C73.5019 68.0595 74.7689 69.0781 74.6199 69.9974Z" fill="#FFC79B"/>
<path d="M75.0574 69.4974C74.8835 70.4167 73.1692 70.6899 71.43 70.3918C69.6909 70.0688 68.6226 69.2986 68.7716 68.3794C68.9455 67.4601 70.4859 66.9632 72.2251 67.2862C73.9642 67.5843 75.2313 68.5781 75.0574 69.4974Z" fill="#AF4D3B"/>
<path d="M71.2093 67.9094C71.5075 67.9094 71.8056 67.9343 72.1037 67.9839C72.8242 68.1082 73.4702 68.3815 73.9174 68.7293C74.2404 69.0026 74.3646 69.2262 74.3398 69.3504C74.3149 69.4249 73.8926 69.7479 72.7745 69.7479C72.4019 69.7479 71.9795 69.6982 71.5571 69.6237C70.2155 69.3753 69.4453 68.8287 69.495 68.456C69.5696 68.2572 70.1907 67.9094 71.2093 67.9094ZM71.2093 67.1641C69.9422 67.1641 68.9236 67.6361 68.7994 68.3566C68.6254 69.2759 69.7186 70.0709 71.4578 70.369C71.905 70.4436 72.377 70.4933 72.7994 70.4933C73.9919 70.4933 74.9609 70.1703 75.0851 69.4746C75.259 68.5554 73.9919 67.5367 72.2528 67.2386C71.8801 67.1889 71.5323 67.1641 71.2093 67.1641Z" fill="#994F4D"/>
<path d="M150.902 32.1039C150.952 27.0852 149.213 10.9361 142.107 8.20312C131.896 12.1286 126.703 21.8429 126.703 21.8429C131.846 23.6566 135.275 27.5076 135.97 28.5014C136.691 29.4952 141.063 37.0728 141.809 37.1722C146.331 37.7933 150.902 32.1039 150.902 32.1039Z" fill="#5F4769"/>
<path d="M66.9453 77.2969C69.231 78.8869 71.4174 81.8932 71.4671 83.4087C71.4671 83.4087 75.8895 84.2286 76.0634 84.2286C76.2373 84.2286 81.0323 85.6447 81.0323 85.6447L83.2187 86.7876C83.2187 86.7876 85.5541 88.6013 85.728 88.7006C85.9019 88.8 86.7218 89.3466 86.7218 89.3466L87.815 87.6572C87.815 87.6572 87.4423 85.0485 87.4423 84.6013C87.4423 84.1541 85.1566 81.6447 85.1566 81.6447L81.1069 79.1354L76.1876 77.595C76.1876 77.595 70.6224 77.4211 70.4484 77.3714C70.2745 77.3217 66.9453 77.2969 66.9453 77.2969Z" fill="#441E2F"/>
<path d="M87.4182 85.8255C84.2133 83.9373 80.3871 83.2913 77.8281 84.7571L81.0331 85.6516L84.0642 86.9683L86.7226 89.3783L87.8158 87.6888L87.4182 85.8255Z" fill="#AF5260"/>
<path d="M61.6529 111.091C60.0629 105.799 55.1684 98.7434 50.0752 97.2775C48.038 96.6812 44.7833 96.6316 41.2802 97.2278C36.8081 97.998 31.9136 99.8862 28.6341 103.191C28.0875 103.737 27.5906 104.333 27.1434 104.955C21.9012 112.333 23.2179 126.893 27.9633 127.066C32.7087 127.24 31.1931 120.358 31.1931 120.358C33.8764 122.321 46.4727 119.216 47.6156 117.253C48.7833 115.29 55.3175 108.656 61.6529 111.091Z" fill="#8974A3"/>
<path d="M41.3037 97.2777C38.049 98.5696 34.7695 99.7125 31.6887 101.427C30.6701 101.973 29.7011 102.594 28.6825 103.24L28.6328 103.191C32.0117 99.8118 36.6577 98.023 41.3037 97.2031V97.2777Z" fill="#4F465E"/>
<path d="M67.6181 85.7701C67.0467 85.621 66.6989 84.975 66.7237 84.4036C66.7982 83.0371 69.9535 83.1365 70.9722 83.0868C73.0591 83.0371 75.0964 83.6583 77.1089 84.1055C79.0964 84.6769 81.2331 85.0496 82.9971 86.1427C84.1648 86.8632 85.2083 87.8322 86.2518 88.6521C86.376 88.7515 86.5002 88.826 86.6244 88.8757C86.6741 88.9005 86.7238 88.9254 86.7238 88.9254C86.6989 88.9254 86.699 88.9254 86.699 88.9254C86.8232 88.826 86.9474 88.5278 86.9971 88.3291C87.2952 87.1862 87.2207 85.8943 87.0219 84.7017C86.7238 83.4347 85.5064 82.4657 84.4878 81.6707C82.3511 80.0806 79.8666 78.888 77.3076 78.2421C74.6989 77.621 71.9411 77.6707 69.2579 77.6458C66.5249 77.5713 63.5932 77.77 61.0839 76.5278C59.8168 75.8818 58.6243 74.9129 58.1771 73.4967C57.8292 72.0557 58.8727 70.565 60.1398 69.9688L60.2143 70.1427C59.6678 70.3166 59.1212 70.565 58.5994 70.8135C59.0963 70.4905 59.5932 70.1924 60.1647 69.9688L60.2392 70.1427C59.1709 70.7638 58.3261 72.1302 58.6491 73.3725C59.0963 74.5899 60.2392 75.4346 61.3821 75.9812C63.8417 77.1241 66.6492 76.8756 69.3076 76.9501C72.0653 76.975 74.8231 76.8756 77.5561 77.4967C80.8107 78.2421 86.6741 80.975 87.8667 84.2794C88.1896 85.4719 88.5375 89.8446 86.6741 89.8198C86.3014 89.7701 86.053 89.5713 85.8045 89.3726C85.2331 88.9254 84.7362 88.4782 84.2145 88.0558C83.171 87.2111 82.1027 86.416 80.8604 86.0185C78.3014 85.1738 75.643 84.4781 73.0094 83.9812C72.3635 83.857 71.6927 83.7825 71.0467 83.7825C70.0281 83.7576 69.0343 83.7079 68.0405 83.857C67.7175 83.9067 67.3945 84.0061 67.1958 84.18C67.0964 84.2794 67.0715 84.3788 67.0715 84.5527C66.9473 85.0247 67.1461 85.5216 67.6181 85.7701Z" fill="#994F4D"/>
<path d="M80.7608 97.2292C78.798 95.167 77.3819 91.5645 73.5558 91.8875C69.7297 92.2105 67.9905 95.2664 68.5371 99.6391C68.7359 101.329 68.4626 105.08 67.916 109.08C67.0713 115.49 65.6054 122.596 64.5868 123.093C63.7172 117.627 62.624 112.608 61.6302 111.093C60.6365 109.552 54.7482 107.937 52.3631 110.099C49.978 112.26 46.0277 117.204 43.9656 118.074C41.9034 118.944 34.0276 121.577 31.1953 120.36C33.6053 123.739 44.6115 122.546 46.3755 121.9C46.4749 125.279 49.655 136.956 54.0277 141.453C58.4004 145.925 65.3818 145.055 67.121 143.863C68.8601 142.67 75.1955 136.211 76.5123 131.192C72.5868 148.559 68.7607 160.335 63.4191 172.236C56.3134 173.329 42.7233 180.559 43.0711 185.081C44.9594 190.522 51.5432 193.006 55.6675 193.503C59.7917 194 76.7111 193.528 84.7608 185.826C91.5931 188.335 109.606 187.391 115.096 185.13C120.612 182.844 119.469 176.435 118.401 176.261C117.308 176.087 115.544 178.149 115.544 178.149C114.227 176.633 106.301 172.211 104.04 173.379C111.096 157.08 104.811 118.844 95.1956 103.242C94.5497 100.633 89.3074 97.577 89.3074 97.577L80.7608 97.2292Z" fill="#5F4769"/>
<path d="M80.7608 97.2292C78.798 95.167 77.3819 91.5645 73.5558 91.8875C69.7297 92.2105 67.9905 95.2664 68.5371 99.6391C68.7359 101.329 68.4626 105.08 67.916 109.08C67.0713 115.49 65.6054 122.596 64.5868 123.093C63.7172 117.627 62.624 112.608 61.6302 111.093C60.6365 109.552 54.7482 107.937 52.3631 110.099C49.978 112.26 46.0277 117.204 43.9656 118.074C41.9034 118.944 34.0276 121.577 31.1953 120.36C33.6053 123.739 44.6115 122.546 46.3755 121.9C46.4749 125.279 49.655 136.956 54.0277 141.453C58.4004 145.925 65.3818 145.055 67.121 143.863C68.8601 142.67 75.1955 136.211 76.5123 131.192C72.5868 148.559 68.7607 160.335 63.4191 172.236C56.3134 173.329 42.7233 180.559 43.0711 185.081C44.9594 190.522 51.5432 193.006 55.6675 193.503C59.7917 194 76.7111 193.528 84.7608 185.826C91.5931 188.335 109.606 187.391 115.096 185.13C120.612 182.844 119.469 176.435 118.401 176.261C117.308 176.087 115.544 178.149 115.544 178.149C114.227 176.633 106.301 172.211 104.04 173.379C111.096 157.08 104.811 118.844 95.1956 103.242C94.5497 100.633 89.3074 97.577 89.3074 97.577L80.7608 97.2292Z" fill="#5F4769"/>
<path d="M80.7432 97.2726C78.2339 95.2353 76.8426 91.931 73.0413 92.7757C69.6127 93.5459 69.0662 96.8254 69.3643 99.8565C69.414 103.012 68.7929 106.093 67.9978 109.099L67.8984 109.074C68.1966 106.639 68.4699 104.204 68.5444 101.745C68.5692 100.85 68.5196 99.8813 68.4202 98.9869C68.3456 98.0677 68.3705 97.1236 68.5693 96.2043C69.0413 93.7447 70.855 92.0304 73.3643 91.8068C75.6003 91.5086 77.2153 92.6018 78.5569 94.2912C79.3519 95.2353 79.9979 96.2788 80.8426 97.1732C80.8178 97.1981 80.7432 97.2726 80.7432 97.2726Z" fill="#7D6487"/>
<path d="M67.9386 109.07C67.715 111.455 67.3423 113.915 66.8951 116.25C66.4479 118.313 66.0504 120.424 65.156 122.362C65.0069 122.636 64.8827 122.909 64.6094 123.083C64.7336 123.008 64.833 122.859 64.9075 122.735C65.4044 121.791 65.628 120.747 65.9013 119.729C66.1746 118.561 66.4479 117.368 66.6715 116.176C67.069 114.164 67.5659 111.182 67.9386 109.07Z" fill="#3F354C"/>
<path d="M23.6419 85.2522C23.4183 84.4571 20.1636 84.631 16.5363 85.5006C12.9089 86.3702 10.3996 88.1342 10.6232 88.9044C10.8468 89.6994 13.9276 89.5006 17.5301 88.5068C21.1077 87.4882 23.8655 86.0472 23.6419 85.2522Z" fill="#84C8C6"/>
<path d="M33.0602 106.887C33.9049 108.403 37.5074 108.03 41.0851 106.042C44.6627 104.055 46.8739 101.198 46.0292 99.6574C45.1845 98.1418 40.936 98.117 37.3583 100.105C33.7807 102.117 32.2155 105.372 33.0602 106.887Z" fill="#84C8C6"/>
<path d="M137.261 111.615C137.261 112.633 133.956 113.453 129.857 113.453C125.757 113.453 122.453 112.633 122.453 111.615C122.453 110.596 125.807 110.049 129.882 110.174C133.956 110.298 137.261 110.596 137.261 111.615Z" fill="#84C8C6"/>
<path d="M118.879 115.508C121.313 115.855 119.649 121.793 118.705 123.632C117.785 125.495 115.872 128.501 114.233 127.557C112.593 126.638 115.226 122.862 115.872 121.446C116.518 120.054 117.388 115.284 118.879 115.508Z" fill="#84C8C6"/>
<path d="M126.85 82.4885C133.061 82.4139 140.515 84.1034 143.273 86.2152C144.192 86.9109 144.565 87.6562 144.217 88.4016C142.801 91.3581 137.335 84.4761 126.428 84.0289C125.633 84.1282 126.304 82.3891 126.85 82.4885Z" fill="#5F4769"/>
<path d="M126.852 82.4688C131.746 82.4688 136.715 83.1644 141.262 85.0278C142.404 85.5992 144.193 86.3694 144.367 87.7856C144.367 87.9843 144.317 88.2079 144.243 88.3818L144.193 88.357C144.342 87.9595 144.268 87.5619 144.069 87.239C142.206 84.7296 133.709 83.3632 130.529 82.8911C129.932 82.8166 128.715 82.6675 128.094 82.593C127.796 82.5681 127.175 82.5184 126.876 82.4688C126.852 82.5184 126.852 82.4688 126.852 82.4688Z" fill="#3F354C"/>
<path opacity="0.9" d="M144.237 88.4038C144.063 88.7764 143.74 89.0746 143.318 89.1491C142.1 89.2485 141.007 88.528 139.939 88.0808C137.107 86.6895 134.2 85.3975 131.094 84.7019C129.554 84.354 127.989 84.1553 126.398 84.0807V84.0062C129.603 83.6335 132.883 84.2547 135.889 85.4472C137.728 86.1677 139.492 87.1615 141.231 88.1305C142.125 88.5777 143.417 89.4969 144.163 88.4038C144.163 88.3789 144.237 88.4038 144.237 88.4038Z" fill="#1A131E"/>
<path opacity="0.9" d="M143.268 86.1641C143.964 86.6113 144.709 87.5305 144.237 88.4001L144.163 88.3753C143.865 87.7293 143.517 87.6548 143.343 87.0088C143.293 86.81 143.219 86.5864 143.219 86.2386L143.268 86.1641Z" fill="#1A131E"/>
<path d="M122.969 85.85C128.385 88.5581 134.074 93.3035 135.714 96.4339C136.335 97.6016 136.385 98.5209 135.689 99.0675C133.08 101.03 131.391 92.4091 121.875 87.0177C121.155 86.7444 122.546 85.5022 122.969 85.85Z" fill="#5F4769"/>
<path opacity="0.9" d="M135.714 99.093C135.391 99.3415 134.968 99.4657 134.571 99.3166C133.453 98.8446 132.807 97.7017 132.061 96.8073C130.173 94.2731 128.186 91.7886 125.751 89.7514C124.533 88.7327 123.241 87.8383 121.875 87.0433L121.9 86.9688C124.931 88.1116 127.54 90.1737 129.676 92.5837C130.968 94.0744 132.086 95.7638 133.179 97.4284C133.776 98.2235 134.496 99.6396 135.664 99.0185L135.714 99.093Z" fill="#1A131E"/>
<path d="M122.992 85.8125C126.992 87.8498 130.744 90.5082 133.825 93.7877C134.769 94.8809 136.731 97.0424 136.11 98.5828C136.011 98.7815 135.887 98.9306 135.713 99.0548L135.688 99.0051C135.986 98.7318 136.11 98.3343 136.085 97.9616C135.787 95.9492 132.806 93.3653 131.315 91.9989C128.856 89.8871 126.247 87.9492 123.514 86.1852L122.992 85.8373V85.8125Z" fill="#3F354C"/>
<path d="M67.8454 52.7969C67.7957 55.1323 68.8392 61.3683 66.9759 64.623C65.1125 67.8777 69.7088 64.5485 69.7088 64.5485L71.5722 56.2503L67.8454 52.7969Z" fill="#FFD3A4"/>
<path d="M66.8203 64.8466C67.6402 64.7969 68.5595 64.5236 69.7023 64.3994L71.5408 56.2255L67.839 52.7969C67.7893 55.1323 68.8327 61.3683 66.9694 64.623C66.8948 64.6976 66.87 64.7721 66.8203 64.8466Z" fill="#FFC79B"/>
<path opacity="0.48" d="M131.845 10.4694C129.286 8.87933 126.752 7.51287 124.242 6.32031C124.689 7.0905 127.696 11.016 128.217 11.8856C129.534 14.0967 125.36 21.1278 126.801 21.6744C126.776 17.4756 134.851 12.5315 134.851 12.5315L131.845 10.4694Z" fill="#1A131E"/>
<path opacity="0.48" d="M149.357 25.3438C149.357 28.4742 147.444 34.2879 146.698 35.3811C145.233 37.5177 141.953 37.3438 141.953 37.3438C145.382 36.7724 149.903 38.4867 150.152 40.7724C150.202 41.2196 150.326 41.6171 150.5 41.9898C151.171 35.9028 150.972 32.5239 150.972 31.9276C150.748 29.468 150.202 27.2816 149.357 25.3438Z" fill="#1A131E"/>
<path d="M142.672 9.02344C143.666 10.7626 144.262 12.7005 144.759 14.6135C146.175 20.4024 146.622 26.6881 144.635 32.3776C146.076 26.5887 145.604 20.5018 144.386 14.7129C143.964 12.775 143.492 10.8371 142.672 9.02344Z" fill="#3F354C"/>
<path opacity="0.48" d="M140.418 13.7656C138.108 14.4613 135.251 18.5855 133.536 21.6166C132.22 22.8837 130.232 23.6787 128.617 23.3309C128.866 24.1259 130.257 24.4738 130.953 24.7471C131.599 25.0203 131.996 24.9706 132.692 24.921H132.717C135.673 26.8837 139.946 32.2253 140.046 32.7222C144.096 29.3185 141.611 16.3743 140.418 13.7656Z" fill="#1A131E"/>
<path opacity="0.48" d="M119.125 180.333C117.708 181.898 117.535 183.662 112.913 184.755C107.472 186.047 95.1493 187.14 92.5654 186.32C89.9816 185.5 88.4412 180.581 89.6338 179.239C90.8015 177.898 93.435 170.916 94.5282 165.003C95.6214 159.115 95.6214 149.276 95.6214 144.158C95.6214 139.016 93.9816 124.829 93.435 122.22C92.8884 119.612 90.8263 108.804 90.3791 108.034C90.3791 106.494 90.9257 103.438 92.7891 103.438C94.6524 103.438 95.845 104.978 95.845 105.301C95.845 105.475 97.5593 108.63 99.05 111.314C97.8823 108.258 96.5903 105.525 95.1742 103.239C94.5282 100.63 89.2859 97.5744 89.2859 97.5744L80.7641 97.2514C79.994 96.4563 79.3232 95.4129 78.553 94.4688C78.5033 94.4936 78.4784 94.5184 78.4784 94.5184C79.4722 98.3445 79.8946 106.643 79.348 108.481C79.4474 111.761 77.2859 128.904 76.5157 132.283C76.2424 133.475 75.4225 136.382 74.5032 139.612C73.3107 144.332 72.0933 148.631 70.8262 152.68C72.0188 156.183 77.9318 154.568 79.5716 152.382C81.2114 150.196 81.1368 140.307 80.789 136.158C80.466 132.009 80.3169 126.792 80.3169 121.55C80.3169 116.307 80.0933 111.736 80.4163 109.873C80.7393 108.009 80.8635 103.984 84.0188 103.761C87.1741 103.537 88.6151 106.171 89.1617 108.556C89.7083 110.966 91.5717 118.717 91.994 123.065C92.4164 127.413 92.2176 138.022 91.0002 145.773C89.8077 153.525 89.8077 164.009 87.0747 170.991C84.3418 177.972 82.2797 179.289 82.8263 180.929C83.3729 182.569 83.5965 186.072 81.7331 187.587C79.8697 189.128 67.5218 192.929 62.2547 192.979C56.9876 193.028 48.6398 190.817 48.3168 190.668C48.2422 190.643 48.1926 190.743 48.2174 190.916C50.677 192.382 53.4845 193.177 55.6212 193.451C57.882 193.724 63.9939 193.774 70.4038 192.507C70.702 192.432 71.0001 192.357 71.2983 192.283C73.5591 191.662 75.6958 191.09 77.584 190.494C80.3418 189.426 82.7517 187.662 84.7145 185.774C91.5468 188.283 109.559 187.339 115.05 185.078C117.634 184.084 118.752 182.146 119.125 180.333Z" fill="#1A131E"/>
<path opacity="0.48" d="M72.3694 174.564C72.3694 174.564 71.0526 173.098 67.947 171.955C65.6364 171.111 65.5867 168.601 66.2575 165.57C65.3631 167.806 64.419 170.018 63.4252 172.229C61.0898 172.577 58.0339 173.993 54.9531 175.906C56.1457 175.483 57.6861 174.912 59.2761 174.266C62.8786 172.775 68.7669 174.092 72.3694 174.564Z" fill="#1A131E"/>
<path d="M57.6034 193.619C52.6592 193.818 43.243 192.426 39.7648 189.072C36.3113 185.694 37.4542 182.513 39.243 182.364C44.3114 181.917 48.0133 193.371 57.6034 193.619Z" fill="#8974A3"/>
<path opacity="0.48" d="M55.7449 193.615C55.6952 193.541 55.6455 193.491 55.6455 193.491L51.2977 192.522C51.2977 192.522 45.2107 190.808 41.5585 189.466C38.5523 188.373 37.7572 186.286 37.7572 183.578C37.2603 184.845 37.5833 186.907 39.7945 189.044C42.8504 192.05 50.5772 193.466 55.7449 193.615Z" fill="#1A131E"/>
<path opacity="0.48" d="M74.5078 139.61C75.6507 138.865 76.5202 131.188 76.5202 131.188C75.8494 134.144 75.1786 136.952 74.5078 139.61Z" fill="#1A131E"/>
<path opacity="0.48" d="M46.3833 121.893C46.4827 125.272 49.6628 136.949 54.0355 141.446C58.4082 145.918 65.3896 145.049 67.1288 143.856C68.8679 142.663 75.2033 136.204 76.5201 131.185C76.5201 131.185 72.8679 136.601 70.7313 138.713C68.5946 140.85 63.8492 142.962 59.1039 141.67C54.3585 140.353 51.079 134.142 49.7622 129.396C49.7622 129.396 51.5759 129.222 52.7188 127.434C53.8616 125.62 53.8616 123.011 54.0355 120.229C54.2095 117.446 56.9921 114.812 60.7436 114.166C60.7436 114.166 58.607 112.527 55.8244 111.881C53.0417 111.235 49.2653 117.769 46.8057 119.26C44.8678 120.427 40.9672 120.974 36.4454 120.353C34.3584 120.75 32.346 120.899 31.2031 120.402C33.6131 123.757 44.6442 122.564 46.3833 121.893Z" fill="#1A131E"/>
<path d="M79.0226 110.547C78.2027 116.758 74.5754 131.019 66.625 131.019C67.1219 132.982 67.6188 137.081 70.0536 136.584C72.5132 136.087 75.3952 133.802 76.4884 131.168C77.5816 128.535 79.1965 114.969 79.0226 110.547Z" fill="#8974A3"/>
<path d="M74.1568 129.224C72.6164 130.417 70.0574 131.46 71.0512 132.653C72.045 133.845 74.5543 131.833 75.7469 130.839C76.2686 130.417 76.84 129.746 77.1879 128.529C77.3866 127.485 77.6102 126.218 77.7841 124.852C76.8152 126.839 75.4239 128.23 74.1568 129.224Z" fill="#84C8C6"/>
<path d="M63.2031 115.781C63.9982 119.781 64.9174 123.955 65.8118 127.93C66.2839 129.918 66.7063 131.98 67.3771 133.918C67.874 135.334 69.0168 136.651 70.6317 136.527C71.1535 136.527 71.6504 136.427 72.1473 136.303C71.6504 136.477 71.1535 136.626 70.6317 136.676C67.5261 136.999 66.6814 133.396 66.0603 131.086C64.7932 126.042 63.7497 120.949 63.2031 115.781Z" fill="#3F354C"/>
<path d="M84.2891 185.623C90.3015 173.523 93.6804 160.058 93.7798 146.542C93.8046 134.691 93.0344 122.765 90.8233 111.113C90.4754 109.449 90.1028 107.784 89.4816 106.219C90.1276 107.784 90.5003 109.449 90.8729 111.113C93.2332 122.765 94.1525 134.666 94.2767 146.567C94.3512 160.207 91.0966 173.797 85.1835 186.07C85.1835 186.045 84.2891 185.623 84.2891 185.623Z" fill="#25162A"/>
<path opacity="0.48" d="M104.015 173.368C108.412 163.206 106.673 143.703 103.568 127.703C103.692 129.393 103.791 131.057 103.94 132.747C104.487 139.057 104.835 145.393 104.462 151.728C104.238 155.231 104.139 158.759 103.543 162.213C103.269 163.753 102.971 165.418 102.4 166.859C101.804 168.324 101.754 170.486 100.86 171.778C99.7664 173.368 98.3999 174.536 97.1328 175.952C99.4434 175.107 101.704 174.213 104.214 173.964C105.257 173.865 106.45 173.765 107.642 173.765C106.102 173.219 104.76 172.995 104.015 173.368Z" fill="#1A131E"/>
<path opacity="0.39" d="M61.6513 111.086C61.3532 110.068 60.9308 108.999 60.3843 107.906C58.67 108.304 56.8066 108.279 55.0923 108.478C53.6265 108.652 52.0115 108.652 50.9432 109.745C49.5022 111.211 48.5084 112.85 46.7693 114.093C44.7072 115.583 42.0488 117.298 39.6388 117.968C37.5518 118.565 35.2164 118.739 33.0301 118.614C31.8872 118.565 30.322 117.919 29.5518 118.987C28.881 119.906 29.0549 121.298 28.0114 121.968C27.1419 122.515 25.676 122.242 24.881 121.695C24.6325 121.521 24.3592 121.298 24.0859 121.049C24.6574 124.478 26.0238 126.987 27.9866 127.062C32.7319 127.236 31.2164 120.354 31.2164 120.354C33.8997 122.316 46.496 119.211 47.6388 117.248C48.7817 115.285 55.3159 108.652 61.6513 111.086Z" fill="#1A131E"/>
</svg>
