<svg width="1440" height="1024" viewBox="0 0 1440 1024" fill="none" xmlns="http://www.w3.org/2000/svg">
<g opacity="0.6">
<g opacity="0.7">
<g style="mix-blend-mode:lighten">
<path d="M1024 185.327C1024.45 186.423 1025.02 187.369 1026.36 187.259C1027.66 187.149 1028.44 186.341 1028.29 185.081C1028.14 183.766 1027.06 183.327 1025.86 183.533C1024.9 183.697 1023.93 184.04 1024 185.327Z" fill="#787673"/>
<path d="M216.228 172.391C215.024 172.665 214.244 173.254 214.258 174.363C214.272 175.322 214.997 176.048 215.927 175.816C216.858 175.583 217.652 174.843 217.569 173.692C217.515 172.815 216.858 172.514 216.215 172.391H216.228Z" fill="#796744"/>
<path d="M61.6347 1.29849C61.5115 2.98357 62.141 3.65486 62.5925 3.36717C64.4125 2.20268 66.6292 2.80548 68.4355 1.87389C69.366 1.3944 70.5017 0.558707 69.7491 -0.729075C69.0923 -1.86616 67.7923 -1.92096 66.8482 -1.18117C65.5619 -0.181085 64.2756 0.613501 62.6473 0.860098C62.0589 0.955997 61.5115 1.35329 61.6347 1.29849Z" fill="#313B48"/>
<path d="M1000.18 160.737C1000.51 162.491 1001.97 162.189 1003.16 162.395C1003.45 162.093 1003.74 161.778 1004.01 161.477C1005.3 160.244 1005.68 158.997 1004.06 157.723C1000.48 156.559 1000.22 156.75 1000.16 160.751L1000.18 160.737Z" fill="#3A3A36"/>
<path d="M1116.67 169.008C1114.6 170.803 1116.01 172.022 1117.37 173.255C1118.79 173.064 1120.75 172.913 1120.61 171.2C1120.46 169.187 1118.5 168.83 1116.67 169.022V169.008Z" fill="#676663"/>
<path d="M1352.5 60.0078C1351.35 60.2681 1349.58 60.0352 1349.61 61.5011C1349.64 62.9944 1351.11 63.9671 1352.69 63.9671C1354.02 63.9671 1355.01 63.1725 1355.08 61.734C1355.17 59.8434 1353.5 60.4051 1352.51 60.0078H1352.5Z" fill="#9C998E"/>
<path d="M1310.64 36.2266C1309.65 36.3773 1308.05 35.8841 1308.09 37.4321C1308.14 38.8569 1309.56 39.6378 1310.91 39.8707C1312.56 40.131 1312.99 38.761 1313.05 37.6102C1313.14 35.8704 1311.62 36.4047 1310.63 36.2403L1310.64 36.2266Z" fill="#656668"/>
<path d="M1117.23 67.2733C1118.25 69.0268 1119.79 69.3008 1121.59 68.7118C1122.39 67.5747 1122.71 66.6157 1121.11 65.7663C1119.13 64.6977 1118.21 65.9718 1117.23 67.2733Z" fill="#524F5A"/>
<path d="M1009.84 161.542C1011.39 159.46 1009.24 159.227 1008.28 158.391C1007.27 157.953 1006.55 158.254 1006.09 159.254C1006.22 160.72 1007.13 161.583 1008.34 162.213C1009.13 162.638 1009.51 162.131 1009.84 161.528V161.542Z" fill="#3A3A36"/>
<path d="M662.758 179.329C662.785 180.014 662.813 180.712 662.84 181.397C663.935 181.082 665.755 183.274 666.083 180.534C666.165 179.822 665.727 178.726 665.166 178.329C664.154 177.63 663.661 179.178 662.758 179.329Z" fill="#676662"/>
<path d="M601.164 31.2031C601.411 31.1346 601.643 31.0798 601.89 31.0113C602.533 29.8605 603.436 28.5316 601.712 27.6959C600.658 27.189 599.563 27.8466 599.194 29.0522C598.647 30.8195 599.905 31.0387 601.178 31.1894L601.164 31.2031Z" fill="#50596F"/>
<path d="M135.741 37.1875C134.605 37.4067 133.606 37.8999 133.497 39.2014C133.429 40.0645 134.099 40.6262 134.906 40.4618C135.987 40.2426 137.082 39.7768 137.219 38.4479C137.315 37.4752 136.535 37.2834 135.741 37.1875Z" fill="#4C6772"/>
<path d="M170.008 78.4949C170.035 79.5087 170.637 80.1389 171.581 80.0704C172.772 79.9882 173.593 79.1525 173.853 78.0018C174.017 77.262 173.716 76.44 172.758 76.4948C171.486 76.577 170.391 77.0565 170.008 78.4949Z" fill="#65778E"/>
<path d="M348.997 23.0161C348.655 23.7148 348.326 24.3998 347.984 25.0984C349.147 26.6191 350.311 27.8795 351.46 25.0984C351.323 23.8518 350.598 23.1394 349.435 22.7969C349.353 22.9887 349.202 23.0572 348.997 23.0298V23.0161Z" fill="#878783"/>
<path d="M492.212 194.513C492.855 193.869 493.402 193.006 492.526 192.389C491.528 191.69 490.282 191.553 489.242 192.567C488.654 193.348 488.736 194.074 489.448 194.732H489.407C490.405 195.472 491.391 195.842 492.225 194.499L492.212 194.513Z" fill="#836E50"/>
<path d="M447.806 202.964C447.176 202.019 446.561 200.964 445.192 201.868C443.769 202.8 444.18 203.909 444.973 205.019C446.957 205.786 447.861 205.033 447.806 202.978V202.964Z" fill="#656460"/>
<path d="M764.961 6.5138C765.002 8.03448 766.028 8.17147 767.013 8.23997C769.559 8.41807 770.27 6.322 771.036 4.60953C771.488 3.60944 769.764 2.33535 769.613 2.52715C768.286 4.18483 765.7 4.41772 764.961 6.52749V6.5138Z" fill="#635C58"/>
<path d="M821.812 8.37958C822.168 9.58517 822.853 10.3798 823.906 10.2291C825.083 10.0647 826.397 9.54406 826.178 7.96859C826.027 6.8726 825.083 6.40681 824.002 6.47531C822.743 6.55751 822.127 7.3658 821.812 8.37958Z" fill="#738D98"/>
<path d="M803.164 28.1758C802.028 28.6142 800.277 28.3402 800.414 30.2856C800.469 31.0665 801.372 31.5597 802.042 31.4501C804.368 31.0802 804.368 29.7787 803.137 28.1484L803.164 28.1758Z" fill="#807975"/>
<path d="M888.461 101.052C888.461 102.546 889.255 103.052 890.308 103.08C891.458 103.107 892.566 102.724 892.744 101.422C892.936 99.9974 891.896 99.5042 890.705 99.4768C889.528 99.4631 888.598 99.9563 888.461 101.052Z" fill="#ADC4C2"/>
<path d="M1017.91 51.1536C1018.94 50.9892 1019.91 50.5097 1019.9 49.4138C1019.88 48.0301 1018.54 47.7698 1017.53 47.6602C1016.38 47.5369 1015.78 48.4 1015.86 49.5234C1015.95 50.7289 1016.87 51.044 1017.91 51.1399V51.1536Z" fill="#6C6B5F"/>
<path d="M698.402 38.4123C699.414 38.2205 700.276 37.6451 700.194 36.5354C700.112 35.3435 699.058 34.9873 698.019 35.0969C697.129 35.1928 696.281 35.7956 696.322 36.7272C696.363 37.8369 697.197 38.3986 698.402 38.4123Z" fill="#A8A290"/>
<path d="M772.62 94.9453C771.621 95.0686 770.594 95.2467 770.676 96.5756C770.745 97.6168 771.552 98.0415 772.469 98.0141C773.386 97.9867 774.125 97.4387 774.221 96.466C774.316 95.4111 773.646 94.9453 772.633 94.9453H772.62Z" fill="#817F6A"/>
<path d="M541.789 94.3977C541.871 95.4252 542.254 96.0006 543.089 96.0554C544.047 96.1102 544.745 95.6307 544.663 94.6032C544.594 93.8223 543.992 93.3428 543.198 93.3291C542.377 93.3017 541.981 93.8634 541.789 94.3977Z" fill="#80807A"/>
<path d="M508.422 60.1223C508.654 61.095 509.27 61.5882 510.269 61.4375C511.035 61.3142 511.692 60.9032 511.555 59.9853C511.405 58.999 510.707 58.4099 509.763 58.5743C509.079 58.6976 508.422 59.1907 508.436 60.1086L508.422 60.1223Z" fill="#A2A6B7"/>
<path d="M965.741 49.8844C966.548 47.1582 970.051 51.1311 970.188 48.4049C970.257 47.0075 967.78 44.8977 966.015 44.1716C964.701 43.6236 963.798 45.8293 963.429 47.2267C963.032 48.7611 964.222 49.3776 965.741 49.8844Z" fill="#495A5A"/>
<path d="M925.421 9.57812C924.764 9.60552 924.094 9.63292 923.437 9.66032C923.232 10.7426 922.028 11.9345 923.574 12.8798C924.477 13.4278 925.531 13.3593 926.228 12.5236C927.31 11.2495 926.598 10.3179 925.421 9.59183V9.57812Z" fill="#4C5C65"/>
<path d="M954.742 60.9329C954.975 62.1933 955.645 62.7824 956.822 62.7276C957.794 62.6865 958.519 62.1933 958.601 61.2069C958.697 60.0287 958.013 59.3438 956.849 59.3438C955.727 59.3438 955.084 60.0424 954.756 60.9466L954.742 60.9329Z" fill="#747069"/>
<path d="M938.784 2.07913C940.043 2.12023 940.905 1.81884 940.932 0.531054C940.946 -0.318334 940.467 -0.825228 939.619 -0.893727C938.524 -0.989626 937.648 -0.537525 937.416 0.55846C937.183 1.66814 937.99 2.01063 938.784 2.07913Z" fill="#757370"/>
<path d="M1144.69 15.1318C1145 16.4059 1145.86 16.9539 1147.08 16.8854C1148.25 16.8169 1149.34 16.3648 1149.15 14.9811C1149.01 13.9536 1148.11 13.3234 1147.03 13.4056C1145.95 13.5015 1144.84 13.7344 1144.69 15.1318Z" fill="#5C5C4D"/>
<path d="M262.638 38.3851C262.31 37.4672 261.803 36.6726 260.791 36.9329C259.86 37.1795 258.861 37.6864 258.875 38.8783C258.875 39.8236 259.422 40.6455 260.449 40.5222C261.639 40.3852 262.364 39.5359 262.624 38.3714L262.638 38.3851Z" fill="#91A4AA"/>
<path d="M275.51 83.0075C274.744 83.9802 273.854 84.9666 275.004 86.1996C275.482 86.7202 276.167 86.638 276.673 86.2133C277.316 85.6653 278.069 85.0488 277.836 84.0761C277.535 82.8294 276.55 82.7609 275.496 83.0212L275.524 82.9938L275.51 83.0075Z" fill="#ABAAA5"/>
<path d="M165.077 20.6528C163.353 20.5706 161.821 20.8583 161.547 22.9407C161.465 23.5983 162.026 24.2148 162.669 24.1189C164.599 23.8175 165.31 22.5297 165.077 20.6528Z" fill="#4E5B77"/>
<path d="M343.907 60.9807C344.769 60.8026 345.372 60.3916 345.33 59.5422C345.289 58.6929 344.646 58.2545 343.866 58.3093C343.045 58.3504 342.594 58.9532 342.594 59.7614C342.594 60.6519 343.1 61.0492 343.907 60.9807Z" fill="#B7B5C4"/>
</g>
<g style="mix-blend-mode:lighten">
<path d="M84.3945 37.9818C82.6293 37.8996 81.0146 37.5845 81.0968 35.4062C81.1378 34.1458 82.0683 33.5156 83.3682 33.5156C85.065 33.5156 87.7197 35.4747 87.3912 36.6118C86.9534 38.1736 85.4892 37.8037 84.3945 37.9681V37.9818Z" fill="#28476C"/>
<path d="M106.039 122.435C104.889 122.312 103.644 122.257 103.48 120.298C103.343 118.613 104.493 118.531 105.231 118.736C106.271 119.038 107.79 118.928 107.941 120.969C108.078 123.024 106.682 122.107 106.025 122.435H106.039Z" fill="#2F4D6C"/>
<path d="M804.271 12.8495C803.012 12.3015 800.85 12.7262 800.891 10.8219C800.932 9.28751 802.875 9.23271 804.107 9.21901C805.297 9.20531 806.556 9.7396 806.584 11.3151C806.597 12.9317 805.366 12.8221 804.271 12.8632V12.8495Z" fill="#354760"/>
<path d="M269.31 213.536C267.641 213.508 266.546 212.919 266.45 211.481C266.368 210.22 267.299 209.357 268.544 209.48C269.748 209.604 271.048 210.138 271.199 211.59C271.335 212.988 270.2 213.371 269.324 213.536H269.31Z" fill="#5F5956"/>
<path d="M121.036 294.953C120.461 296.46 119.271 296.72 118.026 296.693C116.534 296.651 115.795 295.72 115.891 294.281C116.014 292.637 117.328 292.898 118.395 292.98C119.681 293.076 120.749 293.555 121.036 294.953Z" fill="#575651"/>
<path d="M329.937 -3.04688C331.47 -2.75918 332.756 -2.12899 332.811 -0.567213C332.852 0.63837 331.689 0.884968 330.649 0.857569C329.102 0.802769 327.994 0.0218801 327.939 -1.5399C327.885 -2.81398 329.034 -2.96468 329.951 -3.04688H329.937Z" fill="#80756A"/>
<path d="M241.184 149.044C239.939 149.086 238.954 148.62 238.831 147.291C238.721 146.113 239.474 145.469 240.623 145.469C241.951 145.469 243.086 145.893 243.155 147.483C243.21 148.853 242.211 148.99 241.171 149.044H241.184Z" fill="#534A3F"/>
<path d="M466.424 153.248C466.164 154.454 465.193 154.783 464.207 154.605C463.044 154.399 462.168 153.687 462.374 152.289C462.524 151.289 463.154 150.7 464.125 150.727C465.671 150.769 466.082 151.974 466.424 153.248Z" fill="#2B3C4B"/>
<path d="M443.698 640.601C443.246 641.697 442.672 642.642 441.331 642.532C440.031 642.423 439.251 641.615 439.401 640.354C439.552 639.039 440.633 638.601 441.837 638.806C442.795 638.97 443.766 639.313 443.698 640.601Z" fill="#787673"/>
<path d="M468.606 147.638C470.139 147.556 470.796 148.419 470.878 149.597C470.96 150.762 470.153 151.351 469.017 151.323C467.813 151.31 466.704 150.721 466.581 149.57C466.444 148.31 467.621 147.83 468.606 147.638Z" fill="#2B3C4B"/>
<path d="M474.334 18.6264C475.374 18.6675 476.277 18.9552 476.441 20.1471C476.619 21.5171 475.647 21.7911 474.621 21.7363C473.622 21.6815 472.705 21.3801 472.719 20.0649C472.733 18.9689 473.348 18.599 474.347 18.6264H474.334Z" fill="#676F74"/>
<path d="M1251.46 627.664C1252.67 627.938 1253.45 628.527 1253.43 629.637C1253.42 630.596 1252.7 631.322 1251.77 631.089C1250.83 630.856 1250.04 630.116 1250.12 628.966C1250.18 628.089 1250.83 627.787 1251.48 627.664H1251.46Z" fill="#796744"/>
<path d="M810.161 11.5024C810.079 12.3517 809.518 12.4202 808.848 12.2832C808.15 12.1462 807.315 12.1736 807.37 11.0914C807.424 10.1461 807.917 9.76248 808.82 9.96797C809.586 10.1598 810.148 10.5982 810.161 11.5024Z" fill="#354760"/>
<path d="M1406.06 456.572C1406.19 458.257 1405.56 458.928 1405.1 458.641C1403.28 457.476 1401.07 458.079 1399.26 457.147C1398.33 456.668 1397.2 455.832 1397.95 454.544C1398.61 453.407 1399.9 453.352 1400.85 454.092C1402.14 455.092 1403.42 455.887 1405.05 456.134C1405.64 456.229 1406.19 456.627 1406.06 456.572Z" fill="#313B48"/>
<path d="M1382.52 429.977C1383.78 430.388 1385.5 430.401 1385.61 432.374C1385.68 433.676 1385.32 435.004 1383.64 434.799C1382.12 434.607 1380.79 433.799 1380.51 432.127C1380.29 430.812 1381.07 430.072 1382.52 429.977Z" fill="#D1DEE7"/>
<path d="M467.507 616.003C467.179 617.756 465.715 617.455 464.524 617.66C464.237 617.359 463.95 617.044 463.676 616.743C462.39 615.51 462.007 614.263 463.621 612.989C467.206 611.824 467.466 612.016 467.521 616.016L467.507 616.003Z" fill="#3A3A36"/>
<path d="M1424.83 310.022C1426.78 309.145 1430.55 310.173 1431.59 311.926C1431.79 312.283 1431.92 312.981 1431.71 313.214C1431.48 313.474 1430.78 313.57 1430.41 313.42C1429.06 312.899 1427.8 312.091 1426.25 312.214C1425.32 311.776 1424.99 310.954 1424.83 310.022Z" fill="#575753"/>
<path d="M351.026 624.282C353.092 626.077 351.683 627.296 350.328 628.529C348.905 628.337 346.948 628.186 347.085 626.474C347.235 624.46 349.192 624.104 351.026 624.296V624.282Z" fill="#676663"/>
<path d="M85.6735 386.902C84.4009 386.751 82.8547 386.737 82.8136 384.943C82.7726 383.6 83.8536 383.066 85.0578 383.189C86.3167 383.326 88.0408 383.285 88.1503 384.97C88.2324 386.23 87.2882 387.217 85.6735 386.902Z" fill="#4A5D63"/>
<path d="M115.206 515.281C116.356 515.542 118.121 515.309 118.094 516.775C118.066 518.268 116.588 519.241 115.015 519.241C113.687 519.241 112.689 518.446 112.62 517.007C112.538 515.117 114.207 515.679 115.193 515.281H115.206Z" fill="#9C998E"/>
<path d="M157.053 491.5C158.039 491.651 159.639 491.158 159.598 492.706C159.557 494.13 158.134 494.911 156.78 495.144C155.138 495.404 154.7 494.034 154.645 492.884C154.549 491.144 156.068 491.678 157.067 491.514L157.053 491.5Z" fill="#656668"/>
<path d="M239.539 379.014C240.976 378.617 242.399 377.808 243.863 378.932C245.136 380.411 244.465 381.466 243.111 382.357C241.455 382.48 240.565 381.329 239.607 380.274C239.594 379.85 239.566 379.439 239.539 379.014Z" fill="#54544E"/>
<path d="M447.279 324.792C447.703 326.669 446.95 327.902 445.062 327.436C442.927 326.901 442.749 325.258 443.858 323.477C444.993 323.915 446.129 324.353 447.279 324.792Z" fill="#6E6456"/>
<path d="M350.462 522.547C349.436 524.3 347.903 524.574 346.097 523.985C345.303 522.848 344.975 521.889 346.576 521.04C348.56 519.971 349.477 521.245 350.462 522.547Z" fill="#524F5A"/>
<path d="M1387.87 407.502C1387.88 407.885 1387.07 408.282 1386.17 408.187C1385.04 408.063 1384.01 407.474 1383.87 406.173C1383.74 404.953 1384.65 404.857 1385.57 404.83C1386.88 404.789 1387.65 405.392 1387.87 407.502Z" fill="#61809D"/>
<path d="M457.84 616.816C456.294 614.733 458.442 614.5 459.4 613.665C460.413 613.226 461.138 613.528 461.589 614.528C461.466 615.994 460.55 616.857 459.345 617.487C458.552 617.912 458.169 617.405 457.84 616.802V616.816Z" fill="#3A3A36"/>
<path d="M804.944 634.594C804.917 635.279 804.89 635.978 804.862 636.663C803.768 636.348 801.948 638.54 801.619 635.8C801.537 635.088 801.975 633.992 802.536 633.594C803.549 632.896 804.041 634.444 804.944 634.594Z" fill="#676662"/>
<path d="M866.528 486.476C866.282 486.408 866.049 486.353 865.803 486.285C865.16 485.134 864.257 483.805 865.981 482.969C867.034 482.462 868.129 483.12 868.499 484.326C869.046 486.093 867.787 486.312 866.514 486.463L866.528 486.476Z" fill="#50596F"/>
<path d="M1331.95 492.469C1333.09 492.688 1334.09 493.181 1334.2 494.483C1334.27 495.346 1333.6 495.907 1332.79 495.743C1331.71 495.524 1330.61 495.058 1330.48 493.729C1330.38 492.756 1331.16 492.565 1331.95 492.469Z" fill="#4C6772"/>
<path d="M1297.67 533.768C1297.64 534.782 1297.04 535.412 1296.1 535.344C1294.9 535.262 1294.08 534.426 1293.82 533.275C1293.66 532.535 1293.96 531.713 1294.92 531.768C1296.19 531.85 1297.29 532.33 1297.67 533.768Z" fill="#65778E"/>
<path d="M1118.7 478.282C1119.04 478.98 1119.37 479.665 1119.71 480.364C1118.55 481.885 1117.38 483.145 1116.23 480.364C1116.37 479.117 1117.1 478.405 1118.26 478.062C1118.34 478.254 1118.49 478.323 1118.7 478.295V478.282Z" fill="#878783"/>
<path d="M1402.54 301.717C1401.11 301.498 1399.08 301.389 1399.64 299.402C1400.15 297.621 1401.91 298.936 1403.15 299.06C1403.01 299.964 1403.39 300.964 1402.54 301.704V301.717Z" fill="#7C7467"/>
<path d="M975.481 649.786C974.837 649.142 974.29 648.279 975.166 647.663C976.165 646.964 977.41 646.827 978.45 647.841C979.038 648.622 978.956 649.348 978.245 650.005H978.286C977.287 650.745 976.302 651.115 975.467 649.772L975.481 649.786Z" fill="#836E50"/>
<path d="M1019.89 658.245C1020.51 657.3 1021.13 656.245 1022.5 657.149C1023.92 658.081 1023.51 659.191 1022.72 660.3C1020.73 661.067 1019.83 660.314 1019.89 658.259V658.245Z" fill="#656460"/>
<path d="M1336.05 207.809C1337.92 206.261 1339.48 205.589 1339.58 209.069C1337.96 209.877 1336.88 209.179 1336.05 207.809Z" fill="#7D7672"/>
<path d="M1255.78 255.043C1255.9 254.331 1256.04 253.619 1256.16 252.906C1257.61 252.906 1259.3 253.139 1258.74 254.975C1258.27 256.509 1256.81 255.865 1255.77 255.043H1255.78Z" fill="#7F7E7A"/>
<path d="M1347.91 401.858C1347.01 401.638 1346.08 401.31 1346.14 400.09C1346.19 399.433 1346.76 399.035 1347.42 399.131C1348.46 399.282 1349.2 399.912 1349.24 400.995C1349.26 401.734 1348.61 401.885 1347.9 401.871L1347.91 401.858Z" fill="#ABA9A9"/>
<path d="M978.984 404.987C978.984 405.987 979.695 407.206 978.204 407.727C977.615 407.932 976.972 407.727 976.644 407.165C975.946 405.987 977.136 405.507 977.629 404.781C978.08 404.85 978.532 404.918 978.997 404.987H978.984Z" fill="#626074"/>
<path d="M1392.86 125.195C1392.75 127.127 1391.84 127.798 1390.43 127.771C1388.72 127.743 1387.62 126.798 1387.51 125.099C1387.42 123.51 1388.59 123.044 1389.95 123.017C1391.7 122.976 1392.62 123.921 1392.86 125.195Z" fill="#E0E0D0"/>
<path d="M893.023 146.091C893.393 144.913 893.762 143.625 895.432 144.447C896.171 144.817 896.882 145.461 896.581 146.447C896.089 148.064 894.912 147.269 893.927 147.105C893.625 146.763 893.324 146.434 893.023 146.091Z" fill="#737572"/>
<path d="M861.335 27.414C861.102 28.1538 860.555 28.3319 859.925 28.236C858.899 28.0716 858.461 27.3044 858.667 26.4139C858.817 25.77 859.611 25.7563 860.199 25.907C860.952 26.0988 861.485 26.5646 861.335 27.4277V27.414Z" fill="#7A797D"/>
<path d="M1239.66 4.50771C1239 8.38475 1236.33 10.5356 1233.1 12.1933C1232.2 12.6591 1231.09 13.0701 1230.43 12.0563C1229.75 10.9877 1230.61 10.2479 1231.53 9.71363C1233.1 8.80944 1233.66 8.01485 1232.66 5.94618C1231.6 3.71311 1234.14 1.72664 1236.56 2.72673C1237.58 3.13772 1238.44 3.90491 1239.63 3.79531C1239.82 3.94601 1239.89 4.09671 1239.83 4.24741C1239.78 4.4118 1239.73 4.494 1239.66 4.494V4.50771Z" fill="#1F2B3E"/>
<path d="M875.054 205.328C877.421 205.78 878.872 207.164 878.667 209.342C878.543 210.575 877.777 212.247 876.012 212.425C875.013 212.521 872.509 207.767 872.796 206.328C873.084 204.849 874.384 205.657 875.054 205.342V205.328Z" fill="#2C475C"/>
<path d="M1305.58 11.2196C1308.49 10.3976 1310.42 13.0554 1313.04 13.3431C1313.54 13.3978 1314.1 14.0965 1313.8 14.7541C1313.45 15.5487 1312.56 15.7405 1311.98 15.2336C1310.6 14.0143 1309.26 13.8225 1307.74 14.8637C1307.19 15.7131 1306.51 16.1378 1305.5 15.6446C1303.14 14.1239 1305.61 12.6855 1305.58 11.2059V11.2196Z" fill="#3D414D"/>
<path d="M1222.54 89.6614C1221.73 90.3875 1222.58 92.7027 1220.4 92.2369C1219.02 91.9355 1216.89 92.4013 1216.71 90.045C1216.52 87.5927 1218.58 87.8393 1220.02 87.5927C1221.39 87.3461 1222.43 87.9352 1222.54 89.6614Z" fill="#3B4151"/>
<path d="M702.744 461.787C702.703 463.308 701.677 463.445 700.692 463.513C698.147 463.692 697.435 461.595 696.669 459.883C696.217 458.883 697.941 457.609 698.092 457.801C699.419 459.458 702.006 459.691 702.744 461.801V461.787Z" fill="#635C58"/>
<path d="M583.785 361.256C584.496 361.215 585.208 361.174 585.92 361.133C586.659 362.01 587.876 362.804 586.631 364.119C585.879 364.914 584.907 364.928 584.018 364.339C582.635 363.448 583.06 362.352 583.785 361.256Z" fill="#6A6868"/>
<path d="M645.881 463.645C645.526 464.851 644.841 465.645 643.788 465.495C642.611 465.33 641.297 464.81 641.516 463.234C641.667 462.138 642.611 461.672 643.692 461.741C644.951 461.823 645.567 462.631 645.881 463.645Z" fill="#738D98"/>
<path d="M852.337 352.831C850.941 352.762 850.298 351.886 850.052 350.79C849.751 349.433 850.818 349.214 851.803 349.091C853.035 348.94 854.034 349.379 854.184 350.694C854.348 352.009 853.404 352.571 852.337 352.831Z" fill="#31445E"/>
<path d="M1387.5 78.4846C1387.45 79.9642 1386.35 80.1286 1385.24 80.3889C1383.72 80.7314 1383.67 79.3888 1383.46 78.6627C1383.15 77.5668 1383.89 76.7996 1385.05 76.7174C1386.31 76.6352 1387.08 77.3475 1387.51 78.4846H1387.5Z" fill="#67718A"/>
<path d="M869.829 383.778C869.72 384.956 869.049 385.655 867.776 385.751C866.23 385.874 866.148 384.491 865.888 383.627C865.56 382.531 866.34 381.778 867.489 381.805C868.666 381.833 869.542 382.422 869.829 383.764V383.778Z" fill="#BBC0BF"/>
<path d="M874.704 428.716C874.759 430.442 873.746 430.757 872.761 430.743C871.694 430.729 870.859 430.072 870.9 428.88C870.941 427.674 871.858 427.085 872.884 427.154C873.883 427.222 874.759 427.811 874.69 428.729L874.704 428.716Z" fill="#C1DCDD"/>
<path d="M848.049 378.833C847.392 377.765 846.845 376.682 848.131 375.655C848.775 375.134 849.431 375.12 850.102 375.586C850.841 376.107 851.347 376.847 851.032 377.737C850.499 379.258 849.199 378.984 847.994 378.778L848.049 378.819V378.833Z" fill="#4C596C"/>
<path d="M789.778 342.286C788.766 342.121 787.685 341.669 787.753 340.573C787.822 339.573 788.875 339.039 789.915 338.875C791.215 338.669 791.762 339.518 791.831 340.573C791.899 341.875 790.763 342.026 789.792 342.286H789.778Z" fill="#51709C"/>
<path d="M776.78 305.852C775.74 305.427 774.837 304.715 774.947 303.509C775.029 302.619 775.809 301.989 776.78 302.139C777.847 302.318 778.518 303.057 778.408 304.181C778.326 305.071 777.861 305.784 776.78 305.852Z" fill="#8E8E8C"/>
<path d="M855.139 344.914C856.097 345.037 856.726 345.585 856.822 346.517C856.945 347.709 856.138 348.312 855.098 348.366C854.208 348.421 853.401 347.901 853.456 346.887C853.497 345.887 853.976 345.051 855.139 344.928V344.914Z" fill="#31445E"/>
<path d="M811.087 391.211C810.881 392.225 810.197 392.622 809.239 392.485C808.145 392.335 807.392 391.663 807.543 390.54C807.679 389.512 808.35 388.732 809.568 389.129C810.512 389.444 811.374 389.937 811.1 391.211H811.087Z" fill="#9FB2B8"/>
<path d="M1045.03 88.3755C1045.09 89.4441 1044.9 90.4031 1043.55 90.2798C1042.51 90.1839 1041.81 89.4441 1041.47 88.4988C1041.25 87.8823 1041.63 87.3069 1042.21 87.0055C1043.55 86.2931 1044.15 87.3754 1044.85 88.17L1045.03 88.3618V88.3755Z" fill="#3F506E"/>
<path d="M1244.87 107.57C1246.16 107.707 1247.73 107.42 1247.77 109.447C1247.78 110.173 1247.33 110.529 1246.65 110.612C1244.92 110.803 1244.19 109.927 1244.17 108.296C1244.3 107.954 1244.53 107.707 1244.86 107.57H1244.87Z" fill="#597684"/>
<path d="M1355.01 13.4494C1355.06 11.7507 1355.94 11.0246 1357.61 11.2986C1358.47 11.4493 1358.88 12.1205 1358.77 12.8877C1358.51 14.7098 1357.02 14.107 1355.9 14.2029C1355.45 14.1344 1355.14 13.8741 1355.01 13.4357V13.4494Z" fill="#5C6C80"/>
<path d="M901.181 364.795C901.017 365.741 900.374 366.385 899.498 366.302C898.54 366.207 897.651 365.576 897.706 364.439C897.747 363.521 898.444 362.795 899.348 362.864C900.36 362.946 901.003 363.713 901.181 364.809V364.795Z" fill="#748E9F"/>
<path d="M765.739 357.439C765.794 358.645 765.082 358.987 764.125 358.987C763.222 358.987 762.332 358.795 762.277 357.686C762.223 356.74 762.743 356.001 763.714 355.864C764.877 355.713 765.479 356.439 765.739 357.425V357.439Z" fill="#5D6A7F"/>
<path d="M872.454 413.846C872.344 413.654 872.194 413.545 871.975 413.517C871.386 412.394 870.729 411.202 872.44 410.503C873.589 410.037 874.342 410.764 874.616 411.805C875.136 413.723 873.617 413.627 872.454 413.846Z" fill="#878277"/>
<path d="M664.534 483.449C665.669 483.888 667.421 483.614 667.284 485.559C667.229 486.34 666.326 486.833 665.656 486.723C663.33 486.354 663.33 485.052 664.561 483.422L664.534 483.449Z" fill="#807975"/>
<path d="M1241.61 55.6229C1241.54 56.6641 1241.03 57.171 1240.18 57.1299C1239.24 57.0888 1238.5 56.5682 1238.35 55.6366C1238.16 54.5132 1238.96 54.0474 1239.91 54.1159C1240.85 54.1707 1241.39 54.8694 1241.61 55.6366V55.6229Z" fill="#566D8D"/>
<path d="M771.44 270.846C771.33 271.737 770.892 272.299 770.071 272.394C769.113 272.504 768.361 272.107 768.238 271.066C768.128 270.107 768.484 269.312 769.606 269.353C770.55 269.38 771.111 270.052 771.44 270.846Z" fill="#737089"/>
<path d="M733.425 270.475C734.533 270.571 735.313 271.036 735.368 272.201C735.409 273.036 734.875 273.53 734.054 273.584C732.973 273.667 732.111 273.242 731.96 272.105C731.837 271.119 732.48 270.584 733.425 270.461V270.475Z" fill="#ABB7BC"/>
<path d="M1197.11 20.6826C1197.11 21.6416 1196.55 22.0937 1195.74 22.0389C1194.85 21.9841 1194.07 21.5731 1194 20.5456C1193.95 19.6414 1194.56 19.2578 1195.39 19.2578C1196.34 19.2578 1196.99 19.7099 1197.11 20.6826Z" fill="#878787"/>
<path d="M1142.75 95.2746C1141.95 95.0691 1141.32 94.3841 1141.43 93.2607C1141.5 92.6305 1141.97 92.1099 1142.68 92.2606C1143.77 92.4935 1144.32 93.2744 1144.23 94.3704C1144.17 95.0006 1143.84 95.5349 1142.75 95.2746Z" fill="#7B7D7A"/>
<path d="M1044.85 88.1809C1045.02 87.2493 1044.22 85.715 1046.07 85.7835C1046.89 85.8246 1047.74 86.6192 1047.59 87.537C1047.32 89.2084 1046.09 88.6604 1045.03 88.3727L1044.85 88.1809Z" fill="#3F506E"/>
<path d="M920.862 384.311C920.903 385.257 920.274 385.709 919.494 385.654C918.59 385.599 917.852 385.024 917.852 384.024C917.852 383.243 918.344 382.558 919.206 382.612C920.137 382.681 920.67 383.38 920.862 384.311Z" fill="#969389"/>
<path d="M1007.94 252.896L1007.69 252.732H1007.39C1007.13 251.814 1006.64 250.759 1007.92 250.252C1008.76 249.923 1009.31 250.567 1009.54 251.307C1009.96 252.746 1009.05 252.951 1007.94 252.91V252.896Z" fill="#999B91"/>
<path d="M847.994 378.789C848.213 379.638 849.335 380.529 847.939 381.296C847.474 381.556 846.913 381.433 846.694 380.913C846.188 379.638 846.995 379.132 848.049 378.83L847.994 378.789Z" fill="#4C596C"/>
<path d="M579.228 556.334C579.228 557.827 578.434 558.334 577.38 558.361C576.231 558.389 575.123 558.005 574.945 556.703C574.753 555.279 575.793 554.785 576.984 554.758C578.16 554.744 579.091 555.238 579.228 556.334Z" fill="#ADC4C2"/>
<path d="M449.781 506.443C448.755 506.278 447.783 505.799 447.797 504.703C447.811 503.319 449.152 503.059 450.164 502.949C451.314 502.826 451.916 503.689 451.834 504.812C451.738 506.018 450.821 506.333 449.781 506.429V506.443Z" fill="#6C6B5F"/>
<path d="M769.29 493.694C768.278 493.502 767.416 492.926 767.498 491.817C767.58 490.625 768.633 490.269 769.673 490.378C770.563 490.474 771.411 491.077 771.37 492.008C771.329 493.118 770.494 493.68 769.29 493.694Z" fill="#A8A290"/>
<path d="M695.071 550.219C696.07 550.342 697.096 550.52 697.014 551.849C696.946 552.89 696.138 553.315 695.222 553.288C694.305 553.26 693.566 552.712 693.47 551.739C693.374 550.685 694.045 550.219 695.057 550.219H695.071Z" fill="#817F6A"/>
<path d="M925.904 549.671C925.821 550.699 925.438 551.274 924.604 551.329C923.646 551.384 922.948 550.904 923.03 549.877C923.098 549.096 923.701 548.616 924.494 548.603C925.315 548.575 925.712 549.137 925.904 549.671Z" fill="#80807A"/>
<path d="M959.269 515.388C959.036 516.361 958.421 516.854 957.422 516.703C956.655 516.58 955.999 516.169 956.135 515.251C956.286 514.265 956.984 513.675 957.928 513.84C958.612 513.963 959.269 514.456 959.255 515.374L959.269 515.388Z" fill="#A2A6B7"/>
<path d="M1176.94 261.474C1176.89 262.392 1176.59 262.913 1175.82 262.789C1175.06 262.652 1174.47 262.187 1174.4 261.337C1174.34 260.652 1174.58 260.077 1175.34 260.063C1176.41 260.036 1176.79 260.776 1176.93 261.488L1176.94 261.474Z" fill="#A4A4A0"/>
<path d="M498.963 422.433C498.716 423.625 498.224 424.57 497.157 424.68C495.761 424.83 495.309 423.556 495.063 422.556C494.776 421.364 495.857 421.227 496.719 421.145C497.813 421.049 498.58 421.515 498.963 422.433Z" fill="#6C6C68"/>
<path d="M963.626 362.68C963.174 362.913 962.75 363.118 962.326 363.365C961.327 363.94 960.027 364.516 959.63 363.064C959.329 361.899 960.616 361.31 961.779 361.022C962.832 360.748 963.859 360.324 964.885 359.94C965.952 359.543 967.033 359.187 967.895 360.31C968.566 361.173 968.716 362.077 967.868 362.968C967.006 363.858 966.103 364.297 964.94 363.516C964.543 363.242 964.119 363.009 963.612 362.707L963.626 362.68Z" fill="#353B3B"/>
<path d="M1008.18 349.272C1008.28 350.176 1007.87 350.587 1007.2 350.642C1006.4 350.711 1005.75 350.45 1005.73 349.491C1005.73 348.834 1006.05 348.217 1006.71 348.162C1007.5 348.094 1008.03 348.601 1008.18 349.272Z" fill="#8B8B86"/>
<path d="M1343.63 281.822C1344.75 282.096 1346.25 282.137 1346.28 284.027C1346.29 285.164 1345.81 286.096 1344.57 285.849C1343.24 285.589 1341.94 284.973 1341.83 283.315C1341.76 282.219 1342.43 281.794 1343.64 281.822H1343.63Z" fill="#BDC9D1"/>
<path d="M1402.62 283.862C1402.55 284.794 1402.28 285.616 1401.2 285.575C1399.8 285.52 1398.52 284.972 1398.23 283.465C1398 282.204 1399.01 281.766 1400.08 281.876C1401.28 281.999 1402.5 282.3 1402.64 283.862H1402.62Z" fill="#B6D1D6"/>
<path d="M1374.94 284.718C1374.63 286.266 1373.81 287.513 1371.95 287.074C1370.11 286.65 1368.21 285.855 1368.14 283.553C1368.09 281.663 1369.37 280.923 1371.17 281.183C1373.15 281.471 1374.79 282.211 1374.94 284.718Z" fill="#CCDDE7"/>
<path d="M1410.87 330.647C1410.74 331.674 1410.43 332.373 1409.54 332.291C1408.25 332.181 1407.15 331.619 1406.86 330.236C1406.71 329.523 1407.34 329.208 1407.99 329.14C1409.39 328.975 1410.22 329.742 1410.87 330.647Z" fill="#8CB2C8"/>
<path d="M1346.9 297.19C1346.82 298.177 1346.31 298.711 1345.5 298.656C1344.36 298.574 1343.38 297.999 1343.33 296.725C1343.3 295.834 1344.08 295.601 1344.88 295.656C1345.94 295.724 1346.65 296.245 1346.9 297.19Z" fill="#7AA4C0"/>
<path d="M501.949 505.158C501.141 502.432 497.638 506.405 497.501 503.678C497.433 502.281 499.91 500.171 501.675 499.445C502.989 498.897 503.892 501.103 504.261 502.5C504.658 504.035 503.467 504.651 501.949 505.158Z" fill="#495A5A"/>
<path d="M542.262 464.859C542.919 464.887 543.59 464.914 544.247 464.942C544.452 466.024 545.656 467.216 544.11 468.161C543.207 468.709 542.153 468.641 541.455 467.805C540.374 466.531 541.086 465.599 542.262 464.873V464.859Z" fill="#4C5C65"/>
<path d="M512.946 516.199C512.713 517.459 512.043 518.048 510.866 517.993C509.894 517.952 509.169 517.459 509.087 516.473C508.991 515.294 509.675 514.609 510.839 514.609C511.961 514.609 512.604 515.308 512.932 516.212L512.946 516.199Z" fill="#747069"/>
<path d="M528.914 457.353C527.655 457.394 526.793 457.092 526.766 455.805C526.752 454.955 527.231 454.448 528.08 454.38C529.174 454.284 530.05 454.736 530.283 455.832C530.515 456.942 529.708 457.284 528.914 457.353Z" fill="#757370"/>
<path d="M322.998 470.39C322.684 471.664 321.822 472.212 320.604 472.143C319.441 472.075 318.346 471.623 318.538 470.239C318.674 469.211 319.577 468.581 320.659 468.663C321.74 468.759 322.848 468.992 322.998 470.39Z" fill="#5C5C4D"/>
<path d="M462.967 445.422C464.13 445.614 465.362 446.134 465.266 447.586C465.184 448.737 464.199 449.491 462.926 449.34C461.763 449.203 460.791 448.6 460.709 447.312C460.614 445.874 461.626 445.49 462.967 445.422Z" fill="#BBB18C"/>
<path d="M1322.79 350.487C1321.96 349.761 1321.13 349.049 1320.8 347.939C1320.57 347.131 1318.78 346.734 1319.97 345.638C1320.43 345.199 1321.39 344.542 1322.25 345.035C1323.07 345.501 1324.21 346.035 1323.98 347.145C1323.74 348.254 1324.32 349.624 1323.14 350.501L1322.96 350.433L1322.79 350.501V350.487Z" fill="#8CB4CE"/>
<path d="M416.855 386.188C418.06 386.366 419.168 386.845 419.168 388.147C419.168 389.448 418.142 390.065 416.883 389.969C415.679 389.873 414.666 389.243 414.598 387.968C414.516 386.503 415.733 386.283 416.855 386.188Z" fill="#5D7480"/>
<path d="M984.21 418.822C982.869 419.74 981.679 419.672 981.063 418.041C980.694 417.069 981.474 416.343 982.308 416.219C984.361 415.945 984.183 417.493 984.197 418.822H984.21Z" fill="#455173"/>
<path d="M1423.33 206.487C1423.26 207.391 1423.09 208.336 1421.94 208.172C1420.76 208.007 1419.39 207.774 1419.24 206.213C1419.15 205.117 1420.05 204.788 1420.95 204.747C1422.16 204.692 1423.11 205.117 1423.33 206.487Z" fill="#436280"/>
<path d="M1190.81 422.429C1190.77 423.525 1190.42 424.183 1189.59 424.251C1188.49 424.334 1187.74 423.717 1187.54 422.649C1187.39 421.84 1187.82 421.224 1188.7 421.196C1189.74 421.169 1190.49 421.662 1190.79 422.429H1190.81Z" fill="#708096"/>
<path d="M1236.75 363.162C1235.82 362.765 1234.78 362.272 1234.78 360.998C1234.78 359.861 1235.48 359.176 1236.67 359.504C1237.74 359.792 1238.76 360.313 1238.5 361.71C1238.34 362.573 1237.96 363.327 1236.74 363.162H1236.75Z" fill="#BFDADD"/>
<path d="M1334.17 331.431C1335.44 331.636 1336.73 331.924 1336.48 333.582C1336.28 334.938 1335.14 335.239 1333.99 335.02C1332.82 334.801 1331.41 334.458 1331.46 332.938C1331.52 331.184 1333.01 331.458 1334.17 331.431Z" fill="#3C5D80"/>
<path d="M1122.08 241.158C1123.21 240.83 1124.25 240.885 1124.88 242.049C1125.18 242.611 1125.07 243.323 1124.54 243.666C1123.67 244.227 1122.97 243.556 1122.28 243.09C1122.21 242.446 1122.15 241.816 1122.08 241.172V241.158Z" fill="#88A4C3"/>
<path d="M267.426 388.532C268.699 388.505 269.725 389.039 269.848 390.313C270.012 391.957 268.726 392.3 267.399 392.327C266.126 392.354 265.127 391.752 265.141 390.437C265.154 389.121 266.167 388.587 267.426 388.532Z" fill="#4C6A83"/>
<path d="M1165.88 392.494C1165.79 393.221 1165.72 394.097 1164.8 394.07C1163.77 394.043 1163.01 393.412 1162.94 392.275C1162.9 391.426 1163.38 390.919 1164.24 390.946C1165.21 390.974 1165.77 391.508 1165.87 392.494H1165.88Z" fill="#80808E"/>
<path d="M1205.05 493.651C1205.38 492.733 1205.89 491.938 1206.9 492.199C1207.83 492.445 1208.83 492.952 1208.82 494.144C1208.82 495.089 1208.27 495.911 1207.24 495.788C1206.05 495.651 1205.33 494.802 1205.07 493.637L1205.05 493.651Z" fill="#91A4AA"/>
<path d="M1377.31 234.332C1377.45 235.674 1377.34 236.811 1375.52 236.647C1374.58 236.565 1373.99 236.017 1373.59 235.209C1373.36 234.715 1373.43 234.208 1373.9 233.962C1375.11 233.359 1376.24 233.674 1377.33 234.332L1377.3 234.318L1377.31 234.332Z" fill="#585753"/>
<path d="M1192.19 538.289C1192.96 539.261 1193.85 540.248 1192.7 541.481C1192.22 542.001 1191.53 541.919 1191.03 541.495C1190.38 540.947 1189.63 540.33 1189.86 539.357C1190.16 538.111 1191.15 538.042 1192.2 538.302L1192.18 538.275L1192.19 538.289Z" fill="#ABAAA5"/>
<path d="M1053.47 376.684C1053.43 377.533 1053.05 378.328 1052.07 378.41C1050.99 378.506 1050.17 377.834 1050.04 376.78C1049.91 375.78 1050.35 374.752 1051.51 374.766C1052.51 374.779 1053.27 375.492 1053.46 376.684H1053.47Z" fill="#C2DBE1"/>
<path d="M600.75 259.669C599.067 259.381 598.821 258.052 598.602 256.71C599.956 256.71 601.612 255.833 602.324 257.806C602.83 259.203 601.612 259.326 600.75 259.655V259.669Z" fill="#686966"/>
<path d="M1302.61 475.942C1304.34 475.86 1305.87 476.147 1306.14 478.23C1306.23 478.887 1305.66 479.504 1305.02 479.408C1303.09 479.107 1302.38 477.819 1302.61 475.942Z" fill="#4E5B77"/>
<path d="M1123.78 516.239C1122.92 516.06 1122.32 515.649 1122.36 514.8C1122.4 513.951 1123.05 513.512 1123.83 513.567C1124.65 513.608 1125.1 514.211 1125.1 515.019C1125.1 515.91 1124.59 516.307 1123.78 516.239Z" fill="#B7B5C4"/>
<path d="M588.325 330.859C589.42 331.257 590.692 331.421 590.583 332.901C590.515 333.873 589.762 334.394 588.804 334.435C587.436 334.504 586.752 333.668 586.697 332.421C586.656 331.38 587.436 330.983 588.312 330.859H588.325Z" fill="#3D5D82"/>
<path d="M998.019 325.461C994.297 325.406 991.725 322.378 991.916 318.282C992.026 316.022 995.734 312.802 998.129 312.884C1000.97 312.98 1004.11 316.542 1004.2 319.748C1004.27 322.324 1000.84 325.502 998.033 325.461H998.019Z" fill="#253A4B"/>
<path d="M964.901 301.062C966.269 301.131 967.76 301.158 967.856 303.008C967.911 303.953 967.172 304.693 966.173 304.46C964.819 304.145 963.546 303.364 963.259 301.967C963.053 300.98 964.203 301.145 964.887 301.062H964.901Z" fill="#424B65"/>
<path d="M1326.17 340.535C1326.51 339.398 1327.2 338.795 1328.32 339.001C1329.43 339.206 1330.48 339.699 1330.41 341.056C1330.36 342.275 1329.46 342.686 1328.37 342.48C1327.28 342.275 1326.32 341.795 1326.17 340.549V340.535Z" fill="#BABFDA"/>
<path d="M998.643 316.445C1000.07 316.856 1001.24 317.788 1001.26 319.418C1001.26 320.884 1000.38 322.049 998.698 321.857C997.124 321.679 995.81 320.911 995.947 319.076C996.057 317.61 996.864 316.555 998.629 316.459L998.643 316.445Z" fill="#D1ECF3"/>
<path d="M1373.82 284.559C1373.61 285.573 1373.08 286.381 1371.86 286.108C1370.65 285.82 1369.41 285.313 1369.37 283.806C1369.34 282.573 1370.18 282.093 1371.34 282.258C1372.64 282.45 1373.71 282.929 1373.8 284.573L1373.82 284.559Z" fill="#7AA4C0"/>
</g>
</g>
<path d="M1303.19 831.07C1304.86 830.837 1306.62 830.837 1306.65 828.645C1306.66 827.398 1305.9 826.494 1304.56 826.768C1302.83 827.124 1301.22 828.028 1301.05 829.933C1300.93 831.357 1302.45 830.809 1303.17 831.07H1303.19Z" fill="#676765"/>
<path d="M1408.64 732.734C1410.2 732.296 1412.4 732.789 1412.67 730.487C1412.77 729.679 1411.96 728.117 1410.7 728.268C1408.82 728.501 1407.17 729.761 1406.63 731.542C1406.16 733.09 1407.87 732.446 1408.64 732.734Z" fill="#979395"/>
<path d="M1435.09 642.052C1436.43 641.682 1438.37 641.901 1438.66 639.929C1438.74 639.326 1438.53 637.531 1436.95 637.654C1434.89 637.833 1433.59 639.271 1433.07 641.025C1432.73 642.148 1434.18 641.888 1435.09 642.052Z" fill="#55553A"/>
<path d="M1243.5 811.303C1245.11 810.946 1246.86 810.933 1246.84 808.864C1246.82 807.617 1246.04 806.699 1244.66 807.028C1243.07 807.398 1241.36 808.097 1241.21 809.891C1241.07 811.398 1242.62 811.207 1243.5 811.289V811.303Z" fill="#9E9B9A"/>
<path d="M1259.13 534.767C1258.9 535.616 1259.42 536.068 1260.08 535.876C1261.8 535.397 1263.94 535.246 1264.36 533.027C1264.55 531.972 1263.34 531.122 1262.42 531.218C1260.46 531.424 1259.65 533.027 1259.13 534.753V534.767Z" fill="#645646"/>
<path d="M984.711 635.074C984.738 636.129 985.245 636.814 986.285 636.677C987.831 636.458 989.158 635.677 989.445 634.06C989.651 632.882 988.652 632.32 987.557 632.361C985.86 632.444 984.861 633.362 984.711 635.074Z" fill="#2A4970"/>
<path d="M1033.59 831.404C1033.83 832.801 1034.79 833.267 1036.01 833.144C1037.2 833.02 1038.27 832.322 1038.2 831.089C1038.13 829.965 1037.18 829.02 1035.98 829.047C1034.61 829.089 1033.85 830.089 1033.59 831.404Z" fill="#284273"/>
<path d="M821.82 526.344C821.656 527.454 822.148 528.03 823.229 527.906C824.844 527.714 825.939 526.769 826.199 525.153C826.363 524.111 825.61 523.536 824.639 523.563C822.901 523.618 822.053 524.714 821.82 526.344Z" fill="#708099"/>
<path d="M880.731 827.656C879.308 827.958 878.049 828.574 878.103 830.177C878.144 831.246 879.089 831.835 880.197 831.657C881.483 831.465 882.592 830.835 882.619 829.382C882.646 828.259 881.839 827.684 880.731 827.656Z" fill="#D2D3D1"/>
<path d="M774.039 702.838C774.258 704.099 775.093 704.482 776.146 704.427C777.542 704.359 778.445 703.564 778.527 702.181C778.596 700.92 777.638 700.509 776.557 700.701C775.325 700.907 774.285 701.482 774.039 702.838Z" fill="#335980"/>
<path d="M1053.32 814.304C1054.75 813.947 1056.13 813.769 1056.34 812.262C1056.5 811.084 1055.6 810.331 1054.53 810.44C1053.27 810.577 1052.14 811.372 1051.89 812.701C1051.7 813.728 1052.66 814.071 1053.32 814.304Z" fill="#808886"/>
<path d="M662.008 587.25C660.79 587.51 659.846 588.168 659.86 589.62C659.86 590.565 660.366 591.374 661.392 591.209C662.665 591.004 663.609 590.168 663.705 588.798C663.787 587.771 663.048 587.332 661.994 587.25H662.008Z" fill="#405C87"/>
<path d="M216.523 533.035C216.77 534.172 217.399 535.049 218.631 535.104C219.712 535.158 220.068 534.295 219.944 533.364C219.821 532.377 220.081 530.939 218.398 531.062C217.331 531.144 216.756 531.953 216.523 533.021V533.035Z" fill="#54585B"/>
<path d="M668.789 700.659C668.844 701.879 669.61 702.221 670.554 702.057C671.69 701.865 672.757 701.344 672.73 699.988C672.716 699.002 671.977 698.372 670.978 698.522C669.774 698.7 669.063 699.536 668.789 700.659Z" fill="#36597C"/>
<path d="M856.131 717.826C854.804 718.032 853.887 718.634 853.915 719.936C853.942 720.991 854.845 721.292 855.776 721.251C856.829 721.196 857.773 720.826 857.924 719.648C858.088 718.306 856.966 718.155 856.145 717.812L856.131 717.826Z" fill="#364E7C"/>
<path d="M463.523 585.16C463.729 586.16 463.948 586.886 464.933 586.708C466.123 586.489 466.999 585.872 466.972 584.53C466.944 583.557 466.356 582.831 465.357 582.941C463.989 583.091 463.948 584.393 463.523 585.146V585.16Z" fill="#5A656F"/>
<path d="M636.123 722.213C635.986 723.117 636.533 723.542 637.354 723.528C638.654 723.501 639.749 722.953 640.063 721.61C640.296 720.596 639.557 720.035 638.613 719.98C637.149 719.911 636.547 720.952 636.136 722.199L636.123 722.213Z" fill="#355374"/>
<path d="M844.117 619.344C844.158 620.358 844.582 621.084 845.663 620.919C846.799 620.741 847.771 620.166 847.771 618.81C847.771 617.947 847.264 617.44 846.402 617.453C845.143 617.453 844.35 618.097 844.117 619.358V619.344Z" fill="#545552"/>
<path d="M668.546 743.83C668.45 744.884 668.82 745.569 669.641 745.597C670.763 745.624 671.858 745.172 672.159 743.967C672.391 743.021 671.762 742.309 670.818 742.186C669.49 742.008 668.929 742.967 668.546 743.83Z" fill="#37507D"/>
<path d="M854.898 745.328C853.804 745.684 852.928 746.383 852.914 747.602C852.901 748.671 853.776 749.027 854.707 748.822C855.788 748.589 856.924 748.137 856.759 746.753C856.65 745.876 855.952 745.301 854.912 745.342L854.898 745.328Z" fill="#455160"/>
<path d="M690.084 686.211C689.988 687.224 690.618 687.676 691.357 687.745C692.739 687.868 693.724 687.074 694.134 685.854C694.49 684.813 693.655 684.224 692.725 684.197C691.343 684.156 690.549 685.06 690.07 686.211H690.084Z" fill="#9C9E9F"/>
<path d="M661.926 693.502C660.954 693.721 660.01 694.2 659.846 695.461C659.696 696.639 660.517 696.954 661.433 696.79C662.555 696.598 663.445 695.968 663.431 694.666C663.431 693.83 663.034 693.31 661.926 693.488V693.502Z" fill="#9AA4B2"/>
<path d="M883.748 702.203C882.667 702.614 881.722 703.217 881.586 704.464C881.435 705.724 882.42 705.779 883.296 705.779C884.61 705.779 885.39 704.957 885.472 703.751C885.54 702.737 884.665 702.354 883.748 702.203Z" fill="#7F7F7D"/>
<path d="M357.019 641.32C356.389 642.156 355.212 642.8 355.801 644.142C356.321 645.334 357.374 645.074 358.346 644.992C359.317 643.252 359.399 641.841 357.019 641.334V641.32Z" fill="#5C574E"/>
<path d="M657.048 751.1C655.899 751.237 655.283 751.949 655.214 753.045C655.16 753.812 655.748 754.114 656.432 754.031C657.445 753.908 658.471 753.62 658.526 752.374C658.567 751.497 657.896 751.113 657.048 751.086V751.1Z" fill="#666764"/>
<path d="M548.406 708.227C547.325 708.501 546.381 709.035 546.271 710.336C546.203 711.049 546.75 711.597 547.393 711.487C548.516 711.309 549.542 710.802 549.569 709.418C549.569 708.747 549.227 708.268 548.392 708.227H548.406Z" fill="#BABBB9"/>
<path d="M2.86556 659.603C4.38445 659.534 5.19179 659.055 5.20547 657.849C5.23284 655.191 2.67399 655.205 1.16879 654.205C0.4025 653.698 -0.33642 654.739 -0.172215 655.383C0.29303 657.274 1.16879 658.973 2.86556 659.603Z" fill="#2F405B"/>
<path d="M59.1051 590.67C57.0936 590.575 56.4641 591.575 56.3957 592.684C56.2999 594.274 57.5725 594.657 58.8861 594.671C59.8714 594.671 60.9524 594.671 60.7061 593.136C60.4871 591.849 59.9808 590.821 59.1051 590.67Z" fill="#C0C7C2"/>
<path d="M199.125 652.017C199.453 653.044 199.85 654.387 201.082 654.291C201.971 654.222 203.148 653.524 202.888 652.044C202.683 650.893 202.368 649.674 201.041 649.688C199.809 649.701 199.166 650.701 199.139 652.017H199.125Z" fill="#868888"/>
<path d="M3.5893 679.769C4.36927 679.605 5.75132 680.18 5.6008 678.577C5.46397 677.18 4.73873 676.016 3.08301 676.016C1.98831 676.016 1.31781 676.618 1.22202 677.797C1.08519 679.55 2.23462 679.728 3.5893 679.769Z" fill="#D4D6D3"/>
<path d="M137.787 651.42C138.964 651.42 139.347 650.667 139.306 649.735C139.238 648.406 138.745 647.242 137.117 647.406C135.981 647.529 135.461 648.406 135.502 649.502C135.557 650.954 136.775 651.105 137.787 651.406V651.42Z" fill="#2E486A"/>
<path d="M42.272 811.742C41.5742 813.03 40.6984 814.455 42.6141 815.359C43.5446 815.797 44.8993 815.866 45.5698 814.797C46.4455 813.386 44.9677 812.687 44.3383 811.742C43.6541 811.742 42.9699 811.742 42.272 811.742Z" fill="#2E4E79"/>
<path d="M275.43 596.801C275.525 597.856 275.922 598.678 276.935 598.692C278.262 598.705 279.015 597.787 278.878 596.554C278.782 595.691 278.823 594.225 277.578 594.266C276.182 594.308 275.936 595.828 275.443 596.815L275.43 596.801Z" fill="#42485E"/>
<path d="M295.803 700.093C297.13 699.901 297.855 699.134 297.773 697.888C297.719 697.052 297.322 696.12 296.227 696.285C294.913 696.49 294.051 697.353 294.079 698.737C294.106 699.778 294.968 700.052 295.817 700.093H295.803Z" fill="#698A9F"/>
<path d="M403.488 804.805C402.038 804.107 400.875 804.381 400.067 805.819C399.766 806.367 399.575 807.011 400.067 807.532C400.943 808.45 401.86 807.874 402.763 807.518C403.16 806.655 405.076 806.203 403.488 804.805Z" fill="#85A6B4"/>
<path d="M241.93 599.804C242.135 600.763 242.71 601.366 243.695 601.339C244.844 601.298 245.57 600.654 245.419 599.462C245.31 598.544 244.68 597.804 243.709 597.845C242.587 597.886 242.053 598.736 241.93 599.818V599.804Z" fill="#A9CDDD"/>
<path d="M114.447 614.452C115.487 614.493 116.431 614.246 116.404 613.479C116.363 612.328 115.46 611.479 114.351 611.218C113.284 610.972 112.764 611.739 112.75 612.698C112.723 613.972 113.832 614.123 114.461 614.452H114.447Z" fill="#605B50"/>
<path d="M372.986 618.85C373 617.48 373.177 615.932 371.125 616.028C370.153 616.069 369.565 616.904 369.688 617.85C370.03 620.535 371.741 619.001 373 618.85H372.986Z" fill="#5E5F5A"/>
<path d="M146.672 584.173C146.85 585.228 147.589 585.79 148.683 585.817C149.532 585.845 150.065 585.324 150.038 584.434C149.997 583.324 149.491 582.461 148.314 582.461C147.411 582.461 146.672 582.968 146.672 584.173Z" fill="#6C6F6E"/>
<path d="M400.527 796.877C401.088 795.891 401.54 794.904 400.376 794C398.912 794.397 397.476 795.055 398.132 796.863C398.652 798.302 399.706 796.891 400.527 796.891V796.877Z" fill="#7A7C79"/>
<path d="M299.827 809.633C300.935 809.55 302.112 809.523 302.44 808.139C302.605 807.427 302.112 806.934 301.483 806.783C299.895 806.413 299.266 807.372 298.992 808.742C299.266 809.044 299.54 809.331 299.813 809.633H299.827Z" fill="#686A69"/>
<path d="M281.625 712.596C281.926 713.555 282.638 713.925 283.554 713.815C284.403 713.706 284.841 713.048 284.745 712.295C284.635 711.432 284.088 710.596 283.103 710.774C282.268 710.925 281.707 711.665 281.625 712.61V712.596Z" fill="#696965"/>
<path d="M267.58 623.409C266.595 623.642 266.143 624.354 266.294 625.299C266.417 626.108 267.088 626.546 267.936 626.45C269.017 626.327 269.386 625.532 269.236 624.601C269.113 623.806 268.483 623.368 267.594 623.409H267.58Z" fill="#6C6E5B"/>
<path d="M376.695 749.074C376.695 749.924 377.106 750.362 377.804 750.335C378.72 750.308 379.528 749.938 379.624 748.883C379.706 748.006 379.172 747.458 378.31 747.485C377.297 747.526 376.832 748.225 376.695 749.074Z" fill="#80807F"/>
<path d="M389.906 794.674C389.756 793.989 389.373 793.523 388.675 793.729C387.854 793.975 387.183 794.496 387.115 795.455C387.06 796.14 387.416 796.688 388.114 796.606C389.181 796.469 389.715 795.688 389.906 794.674Z" fill="#6A6C69"/>
<path d="M554.169 825.933C553.266 826.18 552.555 826.728 552.445 827.632C552.363 828.331 552.951 828.7 553.663 828.577C554.621 828.426 555.237 827.755 555.36 826.878C555.456 826.193 554.922 825.796 554.156 825.933H554.169Z" fill="#70706E"/>
<path d="M59.2413 805.735C55.8067 805.68 56.012 808.448 55.6699 810.585C55.5057 811.64 56.2993 812.489 57.5445 811.955C59.5834 811.078 60.5002 807.653 59.255 805.749V805.735H59.2413Z" fill="#38445C"/>
<path d="M146.078 766.952C146.119 768.158 146.995 768.733 148.213 768.692C149.54 768.651 150.69 768.007 150.648 766.541C150.607 765.363 149.691 764.486 148.459 764.5C147.091 764.5 146.215 765.309 146.078 766.952Z" fill="#C3D5DE"/>
<path d="M65.1709 715.502C65.3625 715.365 65.5677 715.297 65.7867 715.297C65.8004 714.694 65.9235 714.064 65.814 713.475C65.4993 711.872 64.3088 711.269 62.831 711.324C61.5584 711.379 61.3258 712.433 61.2984 713.447C61.2437 715.406 62.6394 715.502 64.0762 715.502C64.4457 715.502 64.8151 715.502 65.1846 715.489L65.1709 715.502Z" fill="#395980"/>
<path d="M68.1245 843.594C67.0982 844.512 64.7036 844.553 65.8804 846.882C66.7014 848.512 68.2066 848.252 69.2602 847.361C71.4496 845.484 69.4381 844.594 68.1382 843.594H68.1245Z" fill="#34597D"/>
<path d="M39.2942 842.896C39.2942 844.198 38.7605 845.787 40.8815 845.965C42.5372 846.102 43.9056 845.814 43.6182 843.636C42.332 842.472 40.8815 842.321 39.2942 842.896Z" fill="#3B5D80"/>
<path d="M12.6328 756.084C12.8518 756.371 13.0707 756.659 13.2896 756.947C14.4664 756.988 15.8211 757.454 16.6695 756.358C17.2716 755.577 16.5463 754.535 15.9579 754.138C13.7138 752.645 13.1117 754.33 12.6328 756.084Z" fill="#565C6D"/>
<path d="M153.976 736.874C153.51 736.751 153.045 736.614 152.594 736.49C151.198 736.079 150.555 736.805 150.336 738.052C150.199 738.819 150.404 739.532 151.266 739.751C152.402 740.039 153.497 739.984 153.935 738.655C154.112 738.121 153.976 737.463 153.976 736.874Z" fill="#454F79"/>
<path d="M159.909 810.951C159.909 809.664 159.773 808.362 158.226 808.143C156.79 807.924 156.475 809.143 156.188 810.225C156.311 812.527 157.624 812.335 159.171 811.65C159.417 811.417 159.663 811.184 159.909 810.951Z" fill="#57595A"/>
<path d="M210.277 806.467C209.758 806.165 209.265 805.809 208.731 805.576C207.787 805.165 207.062 805.617 206.651 806.426C206.323 807.083 206.323 807.987 207.007 808.385C207.801 808.851 208.827 809.193 209.525 808.124C209.853 807.631 210.031 807.042 210.291 806.494V806.467H210.277Z" fill="#808080"/>
<path d="M245.954 790.384C246.214 791.206 246.72 791.809 247.555 791.603C248.39 791.412 249.224 790.905 249.101 789.863C248.992 788.932 248.376 788.206 247.363 788.493C246.542 788.74 245.927 789.411 245.954 790.384Z" fill="#717E9D"/>
<path d="M214.688 810.066C214.797 811.108 215.385 811.697 216.398 811.573C217.315 811.464 218.067 810.889 218.108 809.916C218.149 808.847 217.342 808.423 216.384 808.464C215.385 808.491 214.865 809.135 214.701 810.08L214.688 810.066Z" fill="#C1DAE0"/>
<path d="M463.403 829.663C464.976 829.417 466.208 828.526 466.482 826.951C466.714 825.581 465.428 824.964 464.333 825.019C462.746 825.101 461.542 826.019 461.501 827.8C461.473 828.978 462.199 829.567 463.403 829.663Z" fill="#C5D5DC"/>
<path d="M432.889 272.379C434.9 272.502 436.761 272.447 436.337 269.57C437.582 268.748 438.745 267.488 440.1 267.2C442.59 266.666 443.275 265.337 443.028 263.063C442.919 262.036 443.015 260.994 443.015 259.953C443.151 259.953 443.302 259.953 443.439 259.953C443.439 261.488 443.439 263.022 443.439 264.556C443.439 265.954 443.986 266.872 445.464 267.091C448.132 267.488 449.651 269.201 450.199 271.68C450.541 273.215 451.266 273.626 452.703 273.598C453.907 273.571 455.22 273.215 456.274 274.393C454.947 274.393 453.606 274.42 452.278 274.393C451.348 274.365 450.705 274.585 450.609 275.653C450.335 278.859 447.886 280.078 445.409 281.188C444.657 281.53 443.972 281.873 443.439 282.503C442.85 281.311 443.015 280.174 444.191 279.612C446.271 278.626 447.544 277.119 448.009 274.886C448.064 274.639 448.269 274.434 448.461 274.269C448.502 274.242 448.557 274.201 448.611 274.174C448.666 274.146 448.721 274.132 448.789 274.105C447.749 273.941 447.284 273.16 446.887 272.31C446.559 271.598 445.998 271.105 445.272 270.899C443.63 270.42 443.138 269.269 443.22 267.748C443.083 268.351 443.507 268.995 443.247 269.653C441.756 271.612 439.854 272.913 437.391 273.31C435.817 273.338 434.052 274.297 432.875 272.379H432.889Z" fill="#261F34"/>
<path d="M432.889 272.375C434.463 273.142 436.132 272.526 437.747 272.717C438.335 272.717 439.006 272.128 439.499 272.923C439.499 273.06 439.416 273.17 439.403 273.293C439.293 273.95 437.706 273.457 438.335 274.69C437.528 275.156 436.83 274.772 436.132 274.43C430.235 274.498 424.351 273.594 418.426 274.334C413.828 274.909 410.215 276.8 408.327 281.211C407.834 282.362 407.766 283.691 407.506 284.938C407.328 285.76 407.424 286.691 406.617 287.28C406.261 286.65 405.426 286.938 405.016 286.431C405.905 285.486 406.206 284.362 406.439 283.088C407.561 276.978 412.446 273.074 419.274 272.8C422.558 272.676 425.842 272.718 429.126 272.731C430.399 272.731 431.671 272.704 432.903 272.402L432.889 272.375Z" fill="#494A74"/>
<path d="M436.117 274.419C436.938 274.378 437.773 274.337 438.594 274.296C438.936 273.994 439.305 273.967 439.702 274.131C440.263 276.186 442.247 277.227 443.205 278.734C444.191 277.118 446.448 276.364 447.393 274.392C447.543 274.268 447.721 274.172 447.913 274.118C448.227 274.076 448.501 274.145 448.692 274.433C448.241 277.118 447.283 279.351 444.314 280.214C443.479 280.447 443.479 281.625 443.452 282.488C443.452 283.899 443.452 285.31 443.452 286.749C441.987 286.269 440.783 285.982 442.808 284.392C443.438 283.899 443.493 282.063 442.152 281.241C441.7 280.954 441.221 280.693 440.715 280.515C438.457 279.68 436.993 278.214 436.651 275.734C436.582 275.282 436.309 274.871 436.131 274.433L436.117 274.419Z" fill="#2B223C"/>
<path d="M405.003 286.421C405.879 286.065 406.755 285.695 406.604 287.27C405.934 287.256 404.935 287.846 405.003 286.421Z" fill="#CBCCCF"/>
<path d="M448.687 274.435C448.399 274.394 448.112 274.367 447.825 274.326C445.95 273.065 443.282 272.641 442.967 269.723C442.967 269.627 442.967 269.531 442.953 269.435L443.076 266.859C443.213 268.805 444.062 270.051 446.073 270.49C446.634 270.613 447.168 271.134 447.441 271.832C447.866 272.942 448.413 274.024 450.055 273.778C449.603 274.572 449.07 274.257 448.7 274.422L448.687 274.435Z" fill="#483367"/>
<path d="M439.46 272.827C438.899 272.608 438.297 273.115 437.75 272.718C439.857 272.224 441.308 270.676 442.95 269.43C443.005 269.498 443.059 269.553 443.114 269.622C443.374 272.649 441.992 273.855 439.46 272.814V272.827Z" fill="#483367"/>
<path d="M439.463 272.833C442.254 272.627 442.719 272.216 443.103 269.641C443.472 270.709 443.951 271.545 445.251 271.846C446.496 272.134 446.77 273.696 447.824 274.34C446.633 275.518 445.251 276.477 443.992 277.573C443.308 278.176 442.925 278.189 442.418 277.45C441.666 276.326 440.708 275.395 439.736 274.463C439.353 274.422 438.97 274.367 438.587 274.326C438.19 274.148 437.793 273.97 437.328 273.751C438.094 273.477 438.97 273.614 439.449 272.846L439.463 272.833Z" fill="#8867AE"/>
<path d="M439.732 274.43C441.689 274.567 442.332 276.156 443.194 277.499C444.48 276.142 445.876 274.841 447.819 274.32C447.422 275.649 446.724 276.841 445.52 277.499C444.275 278.17 443.372 278.965 443.208 280.513C443.043 278.937 442.127 277.91 440.936 277.279C439.636 276.594 439.54 275.635 439.732 274.444V274.43Z" fill="#4D366E"/>
<path d="M445.931 273.957C444.385 274.847 443.208 276.204 441.799 274.272C441.539 273.916 441.033 273.738 441.607 273.176C443.277 271.573 444.371 273.039 445.931 273.943V273.957Z" fill="#D0BFDC"/>
<path d="M1096.63 224.587V209.477C1096.92 209.477 1097.21 209.477 1097.49 209.477C1098.1 211.792 1097.66 214.189 1097.8 216.546C1097.84 217.148 1097.88 217.765 1097.8 218.368C1097.32 222.163 1097.84 225.053 1102.5 225.875C1105.81 226.464 1107.47 229.341 1108.18 232.41C1108.74 234.794 1109.95 235.26 1112.18 235.246C1115.15 235.219 1118.21 234.671 1121.1 236.15H1110.67C1108.26 236.109 1105.83 236.314 1103.49 235.465C1102.34 232.725 1100.42 230.739 1097.62 229.656C1096.56 228.369 1097.34 226.711 1096.77 225.327C1096.7 225.094 1096.65 224.848 1096.63 224.601V224.587Z" fill="#21273C"/>
<path d="M1108.77 236.25C1108.51 244.264 1106.57 244.168 1100.09 247.566C1099.41 247.922 1098.62 248.059 1097.86 248.292C1096.52 245.881 1096.6 243.922 1098.7 242.661C1101.2 241.168 1103.1 239.401 1103.87 236.538C1103.98 236.14 1104.43 235.894 1104.85 235.743C1106.21 235.537 1107.48 235.948 1108.77 236.236V236.25Z" fill="#21253D"/>
<path d="M1085.74 235.135C1085.31 230.559 1088.2 227.846 1091.36 225.367C1092.91 224.161 1094.88 224.97 1096.63 224.586L1096.81 224.778C1097.52 225.874 1097.27 227.052 1097.11 228.216C1094.33 230.107 1091.84 232.244 1089.83 234.998C1088.84 236.354 1087.15 236.381 1085.74 235.121V235.135Z" fill="#21273C"/>
<path d="M1096.65 247.782C1090.98 246.467 1086.59 243.878 1086.16 237.288C1086.15 236.973 1085.88 236.671 1085.73 236.37C1085.79 236.247 1085.88 236.124 1085.95 236.014C1087.12 235.452 1088.38 235.781 1089.6 235.726C1090.87 236.11 1091.25 237.233 1091.53 238.302C1092.09 240.466 1093.24 241.823 1095.62 241.891C1096.22 241.905 1096.81 242.165 1097.15 242.741C1097.29 243.001 1097.36 243.261 1097.37 243.549C1096.92 244.932 1097.81 246.535 1096.63 247.782H1096.65Z" fill="#242840"/>
<path d="M1085.74 235.141C1088.26 235.771 1089.68 234.415 1090.82 232.415C1092.1 230.113 1094.06 228.702 1096.71 228.359C1097.37 228.798 1097.25 229.538 1097.4 230.154C1097.4 230.414 1097.37 230.675 1097.3 230.935C1096.37 232.784 1094.48 233.784 1093.36 235.483C1093.14 235.648 1092.9 235.757 1092.65 235.826C1090.39 236.168 1088.08 235.675 1085.82 236.155L1085.75 236.374C1082.17 236.374 1078.57 236.374 1074.98 236.374V235.798C1078.57 235.579 1082.17 235.36 1085.77 235.141H1085.74Z" fill="#334869"/>
<path d="M1096.65 247.78C1096.69 246.163 1096.73 244.533 1096.77 242.916C1097.33 242.3 1096.91 241.286 1097.66 240.738C1099.82 239.751 1101.08 237.833 1102.55 236.107C1102.75 235.957 1102.98 235.847 1103.24 235.778C1103.79 235.737 1104.3 235.765 1104.6 236.326C1104.11 238.19 1103.89 240.176 1102.25 241.532C1101.92 241.793 1101.66 242.313 1101.31 242.354C1097.55 242.834 1097.63 245.519 1097.85 248.3C1097.85 251.574 1097.85 254.835 1097.85 258.109C1097.46 258.109 1097.05 258.109 1096.65 258.109V247.78Z" fill="#36496B"/>
<path d="M1104.6 236.315L1102.95 236.192C1099.57 236.453 1097.58 234.85 1097.66 231.945C1098.96 231.164 1100 231.808 1100.9 232.671C1101.78 233.507 1102.61 234.384 1103.58 235.124C1106.09 234.411 1108.28 235.987 1110.66 236.137C1110.02 236.178 1109.39 236.206 1108.76 236.247C1107.37 236.274 1105.98 236.302 1104.6 236.315Z" fill="#7B879E"/>
<path d="M1103.59 235.123C1102.29 235.246 1101.21 235 1100.64 233.616C1100.15 232.411 1098.91 232.328 1097.87 231.959C1097.25 231.616 1097.27 231.013 1097.29 230.424C1097.31 229.972 1097.44 229.561 1097.87 229.328C1101.76 229.958 1103.2 231.411 1103.58 235.123H1103.59Z" fill="#465D7E"/>
<path d="M1097.87 229.337L1097.71 230.529C1097.39 230.776 1097.09 230.776 1096.79 230.529C1096.76 229.803 1096.72 229.077 1096.7 228.365C1096.72 227.173 1096.76 225.981 1096.79 224.789C1098.52 225.981 1097.31 227.872 1097.87 229.351V229.337Z" fill="#75859B"/>
<path d="M1096.8 230.537C1097.1 230.537 1097.41 230.537 1097.71 230.537C1097.77 231.017 1097.82 231.496 1097.88 231.976C1098.34 234.866 1100.91 235.209 1102.95 236.195L1103.01 236.236C1100.61 237.072 1099.85 239.675 1097.86 240.963C1097.54 241.634 1098.05 242.771 1096.78 242.908C1096.84 242.771 1096.84 242.634 1096.76 242.511C1096.34 242.182 1096.07 241.771 1095.98 241.237C1095.61 238.456 1094.8 237.524 1092.25 236.962C1091.71 236.908 1091.24 236.716 1090.9 236.277C1090.99 234.702 1092.54 235.921 1093.06 235.154H1093.09C1094.58 234.017 1096.11 232.893 1096.74 230.989C1096.74 230.839 1096.77 230.674 1096.8 230.523V230.537Z" fill="#BBBEC2"/>
<path d="M1091.11 236.15C1091.57 236.205 1092.02 236.26 1092.49 236.315C1093.61 238.123 1095.87 238.89 1096.7 240.959C1096.72 241.479 1096.74 242 1096.76 242.521C1093.1 242.342 1092.37 243.466 1091.04 239.219C1090.74 238.246 1090.27 237.315 1089.88 236.369C1090.22 235.89 1090.63 235.903 1091.09 236.164L1091.11 236.15Z" fill="#36496B"/>
<path d="M1091.1 236.149C1090.69 236.217 1090.29 236.286 1089.88 236.354C1088.53 236.286 1087.16 236.217 1085.8 236.149C1088.17 235.436 1090.61 235.217 1093.06 235.148C1092.65 235.957 1091.55 235.422 1091.1 236.149Z" fill="#658096"/>
<path d="M1096.74 230.984C1097.07 233.738 1095.33 234.67 1093.09 235.177C1093.55 233.122 1095.41 232.286 1096.74 230.984Z" fill="#75859B"/>
<path d="M1097.87 240.976C1098.84 237.62 1100.26 236.318 1103.01 236.25C1101.81 238.373 1100.81 240.744 1097.87 240.976Z" fill="#59748E"/>
<path d="M1096.7 240.957C1094.93 239.737 1092.65 238.984 1092.48 236.312C1095.28 236.586 1096.58 238.011 1096.7 240.957Z" fill="#658096"/>
</g>
</svg>
