<svg xmlns="http://www.w3.org/2000/svg" xml:space="preserve" style="enable-background:new 0 0 254 277" viewBox="0 0 254 277"><style>.st2{fill:#fff}.st229{fill:#8055e7}.st230{fill:#6142bf}</style><g id="Layer_18"><path d="M75.21 71.66c4.93-3.58 10.52-6.01 16.51-6.1 5.24-.08 9.71-1.35 14.17-3.88 10.22-5.81 19.34-1.9 25.72 7.15.93 1.31 1.48 2.89 2.21 4.34 2.16 5.32 2.43 10.84 1.88 16.49-.23 2.35-1.43 3.53-3.39 4.42-3.12 1.41-6.45 1.79-9.66 1.11-3.95-.83-6.29.78-8.76 3.59-5.34 6.05-11.91 9.48-20.38 9.44-5.61-.03-10-2.59-13.52-5.95-5.89-5.61-10.41-12.25-10.9-21.04-.22-3.91 1.34-6.18 4.1-8.2.64-.48 1.45-.76 2.02-1.37z" class="st229"/><path d="M75.21 71.66c-.1.21-.14.48-.3.62-1.75 1.53-4.71 2.72-4.77 4.85-.1 3.52-.17 7.25 1.22 10.68 3.21 7.91 8.19 14.47 16.05 18.06 5.57 2.55 11.53 1.64 16.93-.98 3.75-1.83 7.15-4.33 9.64-7.91 1.84-2.65 4.13-4.14 7.8-2.95 2.12.69 4.69.46 6.97.11 5.26-.79 6.28-2.39 6.53-7.57.22-4.58-.58-8.98-1.47-13.41 4.74 8.26 4.26 24.01-5.89 27.97-.76.3-1.56.92-2.28.84-4.17-.44-4.54 1.8-4.69 5.29-.39 8.62-4.17 15.19-12.35 19.13-8.39 4.05-16.9 4.02-25.49 1.53-3.54-1.03-5.85-4.27-8.28-6.94-7.63-8.4-12.51-18.18-12.05-29.69.34-8.61 4.36-15.57 12.43-19.63zm95.95 22.63c3.85-6.81 10.11-9.8 17.52-10.46 4.75-.42 9.5-.21 14.15 1.63 2.06.82 4.65.17 6.98.43 8.13.93 15.48 3.53 19.12 11.57 4.31 9.5 4.17 18.93-.66 28.53-4.31 8.56-10.34 15.18-18.36 20.2-5.92 3.7-12.17 5.78-19.27 4.53-1.75-.31-3.08-1.22-4.3-2.22-7.15-5.9-10.66-15.3-6.05-24.09.89-1.69.33-2.27-1.24-2.76-7.27-2.26-11.27-7.52-12.35-14.74-.72-4.74.87-9.16 4.46-12.62.96 1.16.18 2.21-.25 3.26-.49 1.19-1.12 2.32-1.34 3.62-1.07 6.26-.13 8.06 5.23 11.55 4.66 3.03 9.5 5.05 15.19 4.49 3.58-.35 5.76 1.41 6.77 4.8.43 1.46 1.11 2.84 1.86 4.17 1.64 2.89 4.03 4.16 7.43 4.46 7.82.7 14.27-2.24 20.01-7.02 2.85-2.37 3.49-6.08 3.86-9.54.68-6.36-.72-12.38-4.15-17.81-2.29-3.63-5.74-5.9-9.8-7.02-6.32-1.74-12.98-1.53-19.33-3.19a5.28 5.28 0 0 1-1.05-.21c-2.38-.64-4.77-.58-7.15-.04-.33.1-.67.17-1.01.22-4.71.76-8.84 2.65-12.3 6.03-1.08 1.06-1.95 2.73-3.97 2.23z" class="st230"/><path d="M171.14 198.5c5.29-9.69 15.45-13.13 24.11-6.02 2.33 1.91 4.54 1.91 7.68 1.12 7.52-1.89 14.77-1.58 19.02 5.93 1.11 1.97 1.22 4.1 1.15 6.09-.13 3.72-1.13 7.34-3.2 10.56-2.09 4.08-8.09 5.59-12.69 2.65-2.69-1.71-4.3-1.48-6.68.49-4.06 3.36-8.85 5.28-14.31 5-1.88-.1-3.79-.24-5.63.02-6.74.96-10.59-3.61-14.65-7.61-1.84-1.81-1-4.38-.39-6.36 1.27-4.17 3.12-8.18 5.59-11.87z" class="st229"/><path d="M171.14 198.5c-1.69 3.92-3.42 7.82-5.06 11.76-1.16 2.78-.39 4.92 1.72 7.22 4.82 5.24 10.66 6.1 17.39 5.9 6.71-.2 12.35-2.04 16.9-6.94 1.51-1.63 2.72-.9 3.84.3 3.25 3.49 7.38 2.18 11.24 2.03 1.37-.05 1.68-1.84 2.73-2.57-1.32 5.54-5.01 9.39-9.34 12.66-2.41 1.82-5.06 3.33-8 4.28-1.75.56-3.09 1.86-3.68 3.56-2.71 7.85-15.27 13.48-22.56 11.4-6.45-1.84-9.51-4.93-11.64-12.38-2.41-8.42-1.48-16.75.3-24.96.94-4.43 2.71-8.88 6.16-12.26z" class="st230"/><path d="M27.3 158.4c1.39-4.68 4.32-8.33 7.42-12.02 8.18-9.73 21.47-6.77 27.85 2.19 2.41 4.45 2.76 9.2 2.12 14.12-.2 1.55-.73 2.74-2.35 3.1-2.32.52-2.85 2.18-2.83 4.22.04 3.11-.73 5.97-2.04 8.81-5.42 11.76-20.22 11.14-27.86 3.2-.67-.7-1.25-1.54-1.18-2.48.42-6.32-2.32-12.4-1.47-18.75.1-.8-.2-1.66.34-2.39z" class="st229"/><path d="M27.3 158.4c.01 2.46-.17 4.93.08 7.36.45 4.47 1.78 8.81 1.5 13.4-.12 2.05 2.22 2.53 3.49 3.63 5.76 4.99 14.13 5.52 19.96.89 3.55-2.82 5.57-6.81 5.99-11.44.1-1.16.05-2.34.01-3.51-.08-2.33.75-3.97 3.32-3.95 1.92.01 2.24-.96 2.38-2.61.41-4.65.13-9.19-1.47-13.61 3.25 4.81 4.24 10.08 2.39 15.55-1.5 4.43-1.35 8.44.34 12.83 2.52 6.55-1.12 14.45-7.94 18.53-5.1 3.05-10.42 4.79-16.55 3.95-3.12-.43-5.17-2.06-6.98-4.17-3.01-3.5-5.46-7.28-5.48-12.21-.03-7.02-2.1-13.89-1.75-20.95.06-1.25-.29-2.61.71-3.69z" class="st230"/><path d="M79.48 219.66c1.94-.95 3.5-2.1 3.62-4.6.47-9.27 9.22-17.33 20.34-12.38 4.21 1.87 8.69 3.15 12.44 6.12 3.04 2.41 5.31 5.19 6.65 8.78.9 3.58 2.04 7.08 1.84 10.91-.14 2.73-.77 5.02-2.55 7.07-4.68 5.39-9.99 8.48-17.72 8.01-8.23-.5-14.98-3.24-20.84-8.79-2.91-2.76-4.68-6.1-5.61-9.95-.52-2.17-.24-3.97 1.83-5.17z" class="st229"/><path d="M79.48 219.66c-2.13 2.49-.88 5.09-.06 7.54 2.72 8.07 15.01 15.13 22.72 15.23 5.55.07 10.54-.17 15.12-3.67 6.3-4.8 8.05-10.02 5.57-17.36-.4-1.17-.22-2.54-.31-3.82 4.64 9.03 2.73 22.24-4.07 29.09-2.27 2.29-5.27 3.41-8.05 3.95-10.42 2-20.51.92-29.71-4.98-8.81-5.65-8.41-18.24-3.96-23.97.75-.95 1.44-1.88 2.75-2.01z" class="st230"/><path d="M91.85 85.11c-3.38.1-6.23.19-8.97-1.37-3.02-1.72-5.94-3.87-5.63-7.38.31-3.53 3.32-6.25 6.67-6.95 5.66-1.2 11.52-1.65 16.96 1.41 4.89 2.76 5.42 7.42 1.2 11.13-3.06 2.68-6.59 3.9-10.23 3.16z" class="st2"/><path d="M195.87 85.15c5.62 1.26 11.39 1.5 17.06 2.48 5.04.88 9.21 2.63 12.45 6.31 5.36 6.09 7.44 18.1 4.35 25.39-3.63 8.58-11.07 11.04-19.3 12.28-1.26.19-2.59-.09-3.87.05-4.7.53-8.13-1.66-9.24-5.87-1.75-6.65-5.66-8.57-12.05-7.6-3.42.52-6.25-1.78-9.08-3.3-1.72-.92-3.37-2.08-5.11-3.05-1.88-1.05-2.64-2.61-2.83-4.87-.38-4.6.75-8.73 2.9-12.69v.01c3.07-2.08 5.03-5.57 8.68-6.87 2.48-.88 4.77-2.41 7.56-2.26.28 2.16-1.67 2.59-2.85 3.56-2.14 1.76-4.33 3.47-3.49 6.69.84 3.22 2.84 5.32 6.24 5.92 4.01.7 7.89.79 11.58-1.46 4.46-2.72 4.88-6.72.92-10.26-.96-.86-2.12-1.48-3.07-2.36-.58-.55-1.22-1.14-.85-2.1z" class="st229"/><path d="M195.87 85.15c.41 1.11 1.49 1.48 2.37 2 3.63 2.13 6.21 5.08 5.24 9.42-.84 3.78-4.68 4.76-7.79 5.8-5.34 1.79-12.04-.21-14.3-3.75-2.66-4.17-2.2-7 1.61-10.07 1.45-1.16 3.35-1.73 4.41-3.39.24-.01.47-.02.71-.02 2.58-.53 5.16-.54 7.75.01z" class="st2"/><path d="M195.87 85.14c-2.59 0-5.17-.01-7.76-.01 2.59-1.03 5.18-1.05 7.76.01z" style="fill:#dabafc"/><path d="M185.44 204.88c-1.65.25-3.21-.33-4.73-.92-2.71-1.05-4.92-2.43-5.35-5.81-.46-3.59 2.39-4.71 4.38-6.08 5.03-3.47 12.88-.38 14.99 3.52 1.11 2.05.96 3.68-.41 5.07-2.38 2.43-5.03 4.63-8.88 4.22zm-136.7-61.95c3.07-.02 8.51 3.35 9.35 5.34 1.11 2.6-1.78 7.24-5.34 7.79-3.75.58-7.6 1.05-11.31-.77-2.49-1.22-3.84-3.1-3.98-5.72-.14-2.6 2.08-3.6 3.96-4.38 2.57-1.06 5.32-1.66 7.32-2.26zm50.9 74.35c-1.96-.43-4.46-.72-6.51-2.14-1.99-1.38-2.9-3.4-2.03-5.82 1.39-3.88 5.17-4.65 8.39-5.56 2.97-.84 7.6 2.07 8.81 4.63 1.5 3.17-1.04 7.74-4.76 8.46-1.13.22-2.31.26-3.9.43z" class="st2"/></g></svg>