<svg xmlns="http://www.w3.org/2000/svg" xml:space="preserve" style="enable-background:new 0 0 232 239" viewBox="0 0 232 239"><style>.st229{fill:#8055e7}</style><g id="Layer_16"><path d="M132.83 40.21c-3.12-.03-5.23-1.65-5.05-4.06.22-2.9 2.1-3.9 4.82-3.85 2.97.06 5.68 1.92 5.52 4.18-.22 3.23-2.61 3.77-5.29 3.73z" class="st229"/><path d="M202.83 91.97c-.11-6.45-1.78-12.59-4.47-18.41-4.05-8.77-9.85-16.1-18.05-21.43-7.61-4.93-15.95-7.68-24.98-8.17-6.82-.38-13.37 1.27-19.87 3.09-.47.04-1.04-.07-1.38.17-3.29 2.34-5.72 1.12-8.23-1.5-3.61-3.75-8.29-6.17-12.96-8.21-12.65-5.58-25.58-4.32-37.29 1.86-21.81 11.5-28.21 26.94-26.49 50.26.17 2.16-.41 3.1-2.19 4.11-6.56 3.74-12.59 8.12-15.81 15.31-.13 4.55-.08 9.13 1.12 13.51 2.71 9.75 7.4 18.49 14.59 25.73 6.54 6.59 13.75 12.04 23.71 10.95 3.63-.41 5.34.58 5.82 4.05.07.56.3 1.13.44 1.69 3.06 12.18 10.61 18.79 23.13 18.96 8.17.11 16.29-1.47 21.98-8.26 2.06-2.46 3.44-2.19 5.8-.59 7.18 4.91 14.85 8.12 23.97 7.73 12.15-.52 23.33-10.53 23.56-22.67.16-8.58-.93-17.09-5.73-24.67-1.92-3.03-1.4-4.39 2.12-4.66 5.65-.41 10.53-2.79 14.9-5.87 6.14-4.3 11.72-9.19 14.45-16.75 1.93-5.38 1.94-10.75 1.86-16.23zm-52.11 39.06c-2.29 6.56-6.75 11.42-13.63 13.59-3.22 1.02-6.27.78-8.95-1.47-1.67-1.41-2.74-1.54-3.91.73-5.36 10.29-16.5 7.79-22.4 1.75-1.03-1.06-1.82-2.24-1.96-3.64-.23-2.34-1.47-3.08-3.54-2.51-4.21 1.13-7.21-.78-9.95-3.64-3.32-3.49-5.25-8.13-5.25-12.94-.68-7.37 5.04-12.59 11.12-14.2 2.87-.76 3.59-2.12 3.67-4.57.1-3.11 1.1-5.94 2.95-8.41 1.52-2.05 3.23-2.61 5.72-1 3.53 2.26 6.56 4.91 8.81 8.41 1.54 2.36 2.82 1.93 4.3.04 1.58-2.02 3.15-4.08 4.84-6.01 6.82-7.78 14.23-4.01 18.55 2.99 2.23 3.6 3.82 7.52 2.46 11.97-.28.96.45 1.43 1.16 1.93 6.08 4.33 8.41 10.07 6.01 16.98z" class="st229"/><path d="M31.1 109.07c1.14 3.12 1.26 6.36 1.54 9.64.5 5.89 2.87 11.39 5.68 16.47 4.28 7.73 9.98 14.45 17.49 19.28 4.81 3.09 10.15 4.9 16.02 3.63 2.83-.61 4.37-.49 5.02 3.14 1.1 6.07 3.35 11.63 8.08 16.3 5.95 5.88 12.96 5.86 20.16 5.03 2.88-.33 5.9-1.03 8.77-2.27 3.73-1.61 6.68-3.77 8.7-7.25 1.13-1.94 2.4-1.29 3.76-.21 4.92 3.87 10.34 6.92 16.47 8.25 8.91 1.93 17.59.85 24.3-5.62 4.73-4.57 7.91-10.64 7.11-17.67-.54-4.73-.41-9.57-2.12-14.16-1.03-2.76-2.11-5.45-3.79-7.9-2.5-3.66-1.6-5.85 2.97-6.03 3.95-.16 7.32-1.48 10.63-3.27 8.78-4.75 15.69-11.13 19.26-20.83 2.13-5.79 1.82-11.71 1.04-17.38-1.65-11.96-6.89-22.55-15.91-30.74-6.91-6.27-14.91-10.68-24.5-11.95-3.33-.44-6.66-1.77-9.99-1.12-4.4.85-8.96.8-13.22 2.42-.93.36-2.08.17-3.12.23 7.89-3.79 16.41-4.33 24.73-3.2 11.48 1.56 21.56 6.78 29.4 15.48 8.65 9.59 13.42 20.81 13.74 33.95.25 10.24-2.02 19.7-7.15 28.45-3.55 6.06-8.58 10.77-14.8 14.05-1.59.84-1.22 1.29-.38 2.24 1.32 1.49 2.52 3.09 3.92 4.5 3.14 3.17 4.33 7.14 4.92 11.39.03.23-.04.49.04.7 2.61 7.08.66 13.85-1.5 20.57-1.56 4.85-4.34 8.98-8.15 12.37-2.87 2.55-5.6 5.16-9.02 7.17-11.86 6.95-23.69 6.83-35.73.89-2.19-1.08-4.6-1.92-6.27-3.79-1.92-2.16-3.44-1.81-5.18.2-3.65 4.2-8 7.54-13 9.98-7.99 3.89-16.32 4.78-24.94 2.52-8.12-2.13-15.77-5.22-21.83-11.3-5.97-5.99-9.25-13.22-9.02-21.74.09-3.52-1.11-4.75-4.65-5.42-9.35-1.76-16.18-7.18-20.89-15.54-3.08-5.46-4.39-11.51-4.56-17.36-.26-8.35 1.07-16.8 5.97-24.1z" style="fill:#6142bf"/><path d="M123.28 51.74c-.02 4.71-2.42 7.64-5.6 9.75-4.95 3.28-10.67 4.53-16.51 5.4-7.01 1.04-13.61-.37-20.25-2.33-5.51-1.62-10.55-7.63-10.58-13.44-.01-2.37 1.53-4.15 3.1-5.73 4.67-4.71 10.56-6.53 16.99-7.51 5.91-.9 11.81-.48 17.31 1.02 5.74 1.57 11.45 4.24 14.55 10.08.53 1 .78 2.18.99 2.76zm31.94 22.17c-7.75.46-14.22-2.58-19.76-7.58-3.21-2.9-2.94-7.85-.02-11.08 5.5-6.08 12.07-9.01 20.5-8.28 5.23.45 10.46.31 15.45 2.34 3.83 1.56 7.24 3.78 8.49 7.79 2.04 6.54 1.12 7.34-7.08 13.27-5.3 3.82-11.54 3.24-17.58 3.54z" style="fill:#fff"/></g></svg>