<svg xmlns="http://www.w3.org/2000/svg" xml:space="preserve" style="enable-background:new 0 0 215 176" viewBox="0 0 215 176"><style>.st2{fill:#fff}.st229{fill:#8055e7}</style><g id="Layer_15"><path d="M185.47 44.14c-3.53-3.88-7.83-6.75-12.72-8.38-8.67-2.89-17.57-4.14-26.61-1.72-4.43 1.17-8.14 1.13-10.61-3.54-.73-1.4-2.23-2.39-3.39-3.54-11.04-11.11-26.44-12.65-39.24-6.52-16.74 8-25.8 21.67-25.73 40.61 0 2.87-1 4.25-3.5 5.19-5.05 1.89-9.26 4.93-12.22 9.54-.8 1.48-.9 3.11-1.07 4.74-.83 7.99 3.05 14.5 7.3 20.44 5.38 7.52 12.76 12.31 22.7 11.91 4.02-.16 7.99-.25 11.79-1.72 1.82-.71 2.92-.58 3.53 1.75 1.79 7 8.33 10.91 15.4 9.46 2.07-.42 4.07-1.16 5.97-2.09 4.19-2.03 4.21-2.05 6.94 1.45 3.29 4.19 7.21 7.37 12.62 8.34 3.61.66 7.28.59 10.9.23 8.09-.79 14.21-4.62 17.3-12.41 2.12-5.36 2.74-10.92 1.28-16.57-.71-2.72.37-4.3 2.92-4.4 4.36-.17 7.83-2.37 11.39-4.38 7.66-4.32 13.28-9.67 13.39-19.66.11-10.62-1.13-20.43-8.34-28.73zm-51.83 38.33c-1.69.86-2.33 1.58-.79 3.02 1.98 1.85 2.13 4.01.55 5.96-1.65 2.05-4.15 1.75-6.11.62-2.05-1.19-3.03-1.51-3.32 1.34-.08.79-1 1.52-1.61 2.22-.92 1.03-2.06 1.67-3.44 1.06-1.33-.58-1.88-1.74-1.74-3.16.27-2.36-.34-3.56-3.13-3.71-2.89-.14-3.81-2.37-3.39-5.14.24-1.96.41-3.95.76-5.91.56-3.11 2.57-3.78 4.97-1.76 3.63 3.08 3.59 3.01 7.47.27 2.27-1.61 4.57-3.35 7.66-2.88 2.37.37 4.32 1.41 4.98 3.8.64 2.3-1.28 3.45-2.86 4.27z" class="st229"/><path d="M51.45 75.76c.01 1.41 0 2.82.03 4.23.26 14.46 7.31 24.85 20.21 30.55 6.44 2.85 13.85 1.91 20.67-.6 3.72-1.37 3.93-1.3 4.27 2.51.52 5.74 7.73 10.43 14.11 8.93 2.94-.69 6-1.46 8.32-3.6 1.89-1.74 3.19-1.04 4.22.78 6.36 11.11 16.23 12.76 27.81 9.58 11.47-3.14 17.47-15.02 13.99-26.45-1.21-3.98-.22-5.68 4.02-6.1 7.66-.77 13.38-5.1 18.81-9.95 4.16-3.72 5.41-8.38 5.49-13.98.1-6.89-1.14-13.41-3.2-19.84-.93-2.89-3.93-4.65-4.75-7.69 2.58 1.95 4.38 4.56 5.64 7.45 3.83 8.75 4.58 18.12 2.57 27.15-2.17 9.76-6.99 18.58-15.52 24.66-2.29 1.63-3.06 3.2-2.06 6.12 4.12 12.01.34 22.49-7.25 31.81-8.54 10.49-20.13 14.3-33.31 14.14-1.88-.02-3.76-.09-5.64-.02-8.16.31-14.68-3.43-20.29-8.75-3.02-2.86-5.62-4.2-10.14-3.55-5.64.81-11.2-.92-14.72-6.22-1.34-2.02-3-2.75-5.53-2.78-12.93-.13-23.8-4.73-31.18-15.76-3.52-5.27-4.96-11.43-4.8-17.69.18-7 1.67-13.83 4.7-20.23.86-1.82 2.01-3.4 3.53-4.7z" style="fill:#6142bf"/><path d="M98.75 146.13c4.83-.03 8.25 1.71 9.02 4.57 1.19 4.43-.74 9.35-4.65 11.83-3.51 2.22-10.33.27-13.44-3.84-2.36-3.12-1.89-7.88 1.16-10.43 2.27-1.92 5.08-2.14 7.91-2.13zm54.4-121.49c-.13 2.27-1.71 3.65-3.46 4.49-2.34 1.13-4.82.62-7-.74-.98-.61-1.79-1.51-2.62-2.34-1.91-1.9-1.71-4.05.5-5.59 2.78-1.94 9.18-1.2 11.52 1.29.79.84 1.11 1.77 1.06 2.89z" class="st229"/><path d="M160.66 61.57c-5.77.9-10.89-1.07-16.07-3.59-3.76-1.83-5.84-4.7-6.08-8.35-.25-3.85 2.35-6.86 5.65-8.71 8.02-4.49 16.5-4.97 25.39-2.85 3.09.73 6.13 1.27 8.9 2.87 3.49 2.02 5.91 4.86 5.54 9.03-.36 4.04-2.9 6.54-6.64 8.3-5.31 2.51-10.69 4.06-16.69 3.3zm-29.47-25.23c-4.53 2.58-8.06 6.87-13.5 7.88-10.41 1.94-20.53 2.41-28.73-6.04-3.26-3.35-3.18-7.67.16-10.88 4.38-4.21 9.51-6.48 15.72-6.49 6.81-.01 13.55-.31 19.63 3.7 3.53 2.33 6.02 5.05 6.05 9.51 0 .78.42 1.56.65 2.34l.02-.02zm54.74 22.54c2.09-.22 3.85.85 4 3.1.14 2.07-1.65 3.3-3.57 3.69-1.75.36-4.42-1.97-4.37-3.6.06-2.37 1.51-3.21 3.94-3.19z" class="st2"/><path d="M131.17 36.36c1.96-.09 3.81-1.08 5.83-.66 1.67.35 2.37 1.23.98 2.58-1.1 1.06-1.8 3.02-3.76 2.64-2.4-.47-2.56-2.69-3.02-4.59l-.03.03z" class="st2"/></g></svg>