<svg xmlns="http://www.w3.org/2000/svg" xml:space="preserve" style="enable-background:new 0 0 249 310" viewBox="0 0 249 310"><path d="M101.27 97.24c-2.53-.19-4.78.36-6.81-1.12-1.04-.75-2.22-.3-3.22.54-3.3 2.77-7.33 4.04-11.35 5.23-3.63 1.07-7.88-1.5-9.46-6.3-2.08-6.3-3.91-12.78-1.01-19.43.74-1.69 2.09-2.85 3.41-3.96 4.55-3.84 9.18-7.43 15.19-9.05 4.97-1.34 9.35.03 12.81 2.88 2.58 2.12 5.11 1.74 7.72 2.06 6.47.81 10.06 4.79 10.11 11.4.07 8.79-7.96 18.87-17.39 17.75zm68.26 142.25c-9.29-.34-13.41-5.82-13.3-14.12.08-5.99 1.07-12.03 4.08-17.54 2.44-4.46 5.65-7.28 11.03-7.17 5.46.11 10.51-2.04 15.75-3.14 6.77-1.42 14.48 2.54 18.07 7.7 2.11 3.03 1.66 6.17-1.08 9.13-2.47 2.67-5 5.32-8.57 6.52-2.6.87-3.75 2.79-4.56 5.22-2.35 7.04-7.68 10.6-14.67 11.91-2.38.46-4.52 2.13-6.75 1.49zM182.3 90.04c2.64.92 5.6.63 8.43 1.71 3.13 1.19 6.54 1.67 9.84 2.41 6.02 1.33 11.04 4.5 13.91 9.8 3.66 6.75 2.49 17.17-5.47 22.21-5.62 3.56-11.26 3.29-17.04 1.61-2.1-.61-3.77-2.6-5.32-4.42-2.07-2.44-4.12-4.47-7.75-5.4-5.95-1.53-10.35-5.57-11.87-12.12-1.37-5.88 4.49-14.66 10.95-15.09 1.41-.11 2.78-.46 4.32-.71zM87.39 214.01c3.93 0 6.87.1 9.8-.02 8.95-.37 17.86 10.09 12.14 20.11-4.77 8.36-11.77 13.58-21.72 13.71-8.8.11-14.24-5.22-18.04-12.41-1.71-3.23-3.28-6.55-3.2-10.53.09-4.57 3.15-7.36 6.85-9.32 4.82-2.55 10.09-1.18 14.17-1.54zm-34-41.48c-.69 8.32-4.91 13.63-11.37 17.19-7.92 4.36-14.75 1.4-17.87-6.95-2.83-7.57-3.33-15.19-2.04-23.07.88-5.42 5.12-9.09 10.7-9 4.6.07 9.46.98 12.15 4.52 3.97 5.22 7.64 10.96 8.43 17.31z" style="fill:#6142bf"/><path d="M89.06 66.84c5.31.66 9.65 2.61 12.3 7.23 1.56 2.72-.92 8.38-4.3 10.16-5.58 2.94-11.24 2.94-16.42-.57-5.29-3.58-6.44-7.11-1.64-12.26 2.96-3.17 6.73-3.34 10.06-4.56zm95.91 38.07c-.01-5 2.96-7.84 8.61-8.46 5.86-.65 11.26 1.22 16.04 4.19 1.9 1.18 4.6 3.37 3.75 6.54-1.11 4.13-5.71 7.69-9.24 7.16-2.12-.32-4.22-.37-6.31-.26-5.03.27-8.52-2.69-12.09-5.49-1.29-1.03-.54-2.66-.76-3.68zM81.83 232.29c-4.58 1-6.98-2.24-9.46-5.23-.65-.78-.91-1.76-.7-2.95.77-4.46 7.44-9.8 12.77-8.54 4.57 1.08 8.08 2.88 9.62 7.52.94 2.83-1.9 8.1-4.84 8.47-2.42.31-4.79 1.27-7.39.73z" style="fill:#8055e7"/></svg>