<svg xmlns="http://www.w3.org/2000/svg" xml:space="preserve" style="enable-background:new 0 0 256 284" viewBox="0 0 256 284"><style>.st229{fill:#8055e7}.st230{fill:#6142bf}</style><g id="Layer_17"><path d="M162.65 192.16c2.02-3.93 5.06-6.77 9.16-8.46 3.8-2.05 8.11-2.75 12.18-2.84 5.67-.12 11.34 1.23 16.58 3.63 1.66.76 3.51.95 5.04 2.25 5.48 4.65 6.6 10.6 3.18 16.97-1.13 2.11-.93 3.73.33 5.49 2.66 3.73 3.9 8.02 4.27 12.47.53 6.44-5.02 12.73-11.52 13.06-4.55.23-9.15.62-13.64-.85-2.38-.78-4.62-.3-6.64 1.26-4.81 3.71-10.4 5.4-16.36 5.8-6.09.41-10.23-3.36-13.62-7.57-3.66-4.53-6.2-9.64-3.99-15.95 1.15-3.29 2.83-4.67 6.4-4.53 6.19.25 6.3.05 6.17-6.15-.12-5.04-.02-10 2.46-14.58zm-76.85 7.77c1.59-2.77 4.21-3.75 7.15-3.57 8.76.56 17.56 1.25 25.26 6.07 5.98 3.74 9.72 8.88 9.39 16.41-.14 3.31-1.81 5.6-4.59 6.31-3.53.91-2.47 2.18-1.03 3.96.66.82 1.28 1.67 1.92 2.5 4.87 6.38 4.28 8.71-3.39 13.94-4.88 3.33-10.54 2.81-16.05 2.64-10.87-.34-20.44-4.03-28.28-11.64-6.25-6.07-7.85-13.64-6.47-22.01.53-3.2 2.89-3.83 5.7-4.09 2.32-.22 5.11 1.52 6.76-.14 1.47-1.49 1.42-4.29 2-6.53.35-1.34 1.18-2.52 1.63-3.85z" class="st229"/><path d="M162.65 192.16c-2.07 5.92-2.45 12.04-2.06 18.24.15 2.44-.31 3.53-3.35 3.09-7-1.02-9.35 1.24-9.36 8.38-.02 7.58 7.93 17.17 15.26 17.97 6.06.66 12.2-1.17 17.08-5.12 3.18-2.58 6-2.29 9.72-1.65 6.56 1.12 13.4 2.45 19.21-3.02 2.83-2.67 4.2-5.56 3.58-9.33-.61-3.69-1.19-7.57-3.57-10.47-2.43-2.96-1.71-5.33-.21-8.19 2.8-5.36.51-13.32-4.88-15.74-4.22-1.89-8.71-3.14-13.32-4.16-6.18-1.37-11.78.06-17.52 1.56-.44.11-.93 0-1.4-.01 5.18-3.4 10.97-4.05 16.86-3.09 5.28.86 10.61 2.04 15.32 4.68 6.69 3.76 9.31 10.29 5.88 17.6-1.27 2.72-1.18 4.47.31 7.03 3.17 5.46 4.13 11.33 3.61 17.87-.75 9.38-4.38 16.98-11.41 22.8-5.2 4.31-11.22 7.48-17.89 9.18-1.47.37-2.93.84-4.42 1.13-3.9.76-7.85.72-11.25-1.41-2.48-1.55-4.97-1.85-7.7-1.78-8.11.19-14.95-2.85-20.26-8.83-8.74-9.83-7.77-29.51 6.31-35.3 3.13-1.29 6.23-.99 9.35-.89 2.63.08 3.48-.73 3.38-3.4-.19-5.12-.77-10.31 1.37-15.26.32-.78.51-1.54 1.36-1.88z" class="st230"/><path d="M28.64 154.81c4.25-6.37 9.74-11.3 17.74-11.15 6.48.12 12.87 1.72 17.59 6.91.34.5.42 1.01.07 1.54-1.77.61-3.22-.32-4.65-1.06-6.81-3.55-13.56-3.09-20.25.26-2.58 1.29-4.29 3.32-4.34 6.33-.06 2.94 2.11 4.24 4.32 5.46.31.17.62.38.96.44 6.15 1.19 12.31 1.68 18.34-.46 3.93-1.39 6.3-4.02 5.67-8.55-.1-.7 0-1.41.57-1.95 4.9 2.08 7.83 15.24 3.11 19.38-2.48 2.17-3.49 4.39-3.05 7.94.97 7.72-5.79 12.93-11.87 14.49-5 1.29-10.28.94-15.39.05-5.19-.9-10.57-7.39-12.07-12.91-2.58-9.46-1.33-18.24 3.25-26.72z" class="st229"/><path d="M85.8 199.93c-.81 3.25-1.59 6.51-2.46 9.74-.31 1.16-1.25 1.61-2.45 1.57-1.29-.04-2.59-.02-3.88-.05-6.48-.18-5.95 1.02-6.55 6.64-.62 5.86.87 11.12 4.41 15.75 3.97 5.19 9.53 8.19 15.41 10.73 7.57 3.26 15.59 3.29 23.5 2.65 5.11-.41 9.3-3.52 12.27-7.95.77-1.15.03-2-.11-2.98-.23-1.67-1.97-2.66-2.03-4.41 7.34 7.81 7.92 18.83-2.22 24.5-8.24 4.61-16.85 5.13-25.83 3.76-13.14-2.01-22.51-9.17-28.27-21.03-2.95-6.07-3.56-12.62-2.85-19.22.68-6.35 7.48-11.05 13.98-9.62 2.66.58 3.25.14 3.84-2.53.56-2.6.95-5.58 3.24-7.55zm-21.9-47.88c.02-.49.05-.98.07-1.47 6.73 5.36 9.29 16.02 4.05 23.41-1.14 1.61-1.25 2.87.06 4.32 3.72 4.1 3.84 9.14 3.52 14.22-.39 6.04-3.05 10.8-7.96 14.48-3.92 2.94-12.42 3.61-17.02 1.7-7.4-3.07-12.83-8.31-16.63-14.97-7-12.28-9.16-25.12-2.18-38.32.14-.27.55-.41.83-.61-.1 3.61-2.64 6.35-3.33 9.87-.91 4.58-1.46 8.95.17 13.37.62 1.68.06 3.47.91 5.14 3.16 6.16 7.61 10 14.98 10.58 3.67.29 7.33.3 10.73-.37 6.5-1.28 13.93-7.45 11.15-15.82-.87-2.62.99-3.63 2.31-4.96 5.59-5.63 5.19-14.36-.99-19.82-.55.06-.8-.17-.67-.75z" class="st230"/><path d="M58.24 100.54c7.24-15.92 18.92-27.48 35.17-33.75 13.42-5.18 27.01-4.76 39.92 2.37 7.62 4.21 12.3 14.4 10.87 23.04-.52 3.17-2.36 5.23-4.8 6.99-2.47.46-3.51 1.23-1.58 3.8 3.99 5.31 1.67 14.17-4.39 16.74-5.3 2.24-10.66 3.04-15.52-1.28-.61-.54-1.41-.86-2.04-1.37-2.4-1.9-4.04-1.27-5.08 1.45-1.8 4.67-5.64 7.43-9.6 9.98-5.88 3.77-16.79 1.36-20.33-4.54-1.57-2.61-3.69-3.46-6.46-3.26-5.06.37-9.5-1.71-12.84-4.89-5.3-5.08-7.28-6.91-3.32-15.28z" class="st229"/><path d="M58.24 100.54c.52 1.81-1.27 2.9-1.38 4.59-.19 3.12 3.08 9.06 6.16 10.79 4.21 2.36 8.44 4.46 13.55 3.75 2.34-.32 3.97 1.01 4.89 3.21 1.8 4.33 5.21 5.62 9.75 6 9.6.81 15.42-3.85 19.19-11.97 1.24-2.68 2.23-3.63 5.1-1.35 4.06 3.22 8.32 6.44 14.29 4.49 2.6-.85 4.88-2.16 7.22-3.43.89-.48 1.69-1.39 1.62-2.57-.23-4.19.87-8.36-2.05-12.43-2.46-3.43 1.46-2.02 2.82-2.44-1.21.79-2.89 1.25-1.34 3.32 3.78 5.05 2.83 10.6.17 15.42-4.86 8.82-12.23 14.59-22.68 15.87-3.24.39-6.38 1.5-9.71 1.31-1.37-.08-2.08.74-2.71 1.85-1.15 2.06-2.67 3.85-4.44 5.42-2.87 2.55-5.95 4.05-10.05 4.14-4.99.11-9.92-.4-14.5-1.85-3.94-1.25-8.26-3.15-9.18-8.25-.27-1.49-1.22-2.18-2.53-3.01-4.67-2.95-7.67-7.12-7.68-12.92-.01-5.26-.45-10.51 1.31-15.67.54-1.59 1.16-2.99 2.18-4.27z" class="st230"/><path d="M161.94 90c6.08-8.39 14.68-9.19 23.95-7.91 5.21.72 10.01 2.9 14.85 4.73 2.16.82 3.81 3 5.69 4.56 5.47 4.97 10.96 9.97 14.89 16.3 4.58 7.37 7.62 15.37 8.32 24.1.41 5.14-3.05 10-8.2 11.71-5.98 1.98-11.86 1.59-17.41-1.36-2.56-1.36-4.21-1.07-6.45.94-5.01 4.49-10.84 5.53-17.37 3.04-5.67-2.16-10.1-5.86-14.17-10.13-1.9-2-1.28-4.61-.47-6.58.97-2.34.39-3.99-1.06-5.38-9.33-8.93-8.68-23.61-2.57-34.02z" class="st229"/><path d="M161.94 90c-.94 4.29-3.36 8.1-3.82 12.57-.76 7.41.7 14.16 5.65 19.89 2 2.32 4.27 4.12 2.03 7.83-1.08 1.78-.98 4.64 2.1 5.76 1.15.42 1.48 1.79 2.31 2.57 4.59 4.4 9.94 7.42 16.41 7.71 4.52.2 8.38-1.57 11.3-5.15 1.43-1.75 2.76-2.25 5.07-.8 6.09 3.83 12.75 4.35 19.45 1.69 5.2-2.06 7.37-7.83 6.18-14.1-2.38-12.57-8.31-23.07-17.68-31.72-1.62-1.49-3.43-2.86-4.51-4.87 4.87 2.79 8.49 6.99 11.84 11.28 8.79 11.25 13.23 24.07 12.05 38.44-.98 11.89-4.41 22.67-15.26 29.59-5.63 3.59-12.18 2.44-16.03-2.97-3.07-4.31-2.97-3.96-8.01-2.43-10.09 3.08-20.17.76-25.69-9.25-2.93-5.31-2.34-11.6-1.7-17.56.37-3.48 1.11-6.92 1.73-10.37.28-1.56-.31-2.83-1.33-3.83-6.14-5.98-7.81-13.5-6.93-21.58.49-4.51 1.36-9.18 4.84-12.7z" class="st230"/><path d="M189.85 204.07c-5.71.74-10.11-1.89-14.21-5.16-2.2-1.76-2.49-5.31-1.1-7.62 5.43-9.04 22.43-9.8 28.53-2.26 3.74 4.63 2.56 8.65-1.85 11.7-3.44 2.37-7.11 4.13-11.37 3.34zm-87.76-3.57c3.47.68 6.9.8 9.66 3.16 4.29 3.67 3.6 7.66-1.71 9.69-4.53 1.73-9.18 2.17-13.97 1.46-2.3-.34-4.02-1.91-5.71-3.14-3.35-2.44-2.08-6.63 2.35-9.22 3-1.75 6.46-.68 9.38-1.95zM63.9 152.05l.69.75c2.85 7.52-2.82 11.31-9.99 12.51-3.77.63-7.74.21-11.61.09-5.12-.16-9.54-4.02-9.35-8.08.17-3.54 2.29-5.7 5.32-7.21 8.71-4.34 16.95-2.84 24.94 1.94zm46.02-61.28c-4.82-.59-9.74-.85-14.31-2.79-2.74-1.16-4.92-3.24-6.71-5.44-2.5-3.09-1.44-7.16 1.99-9.78 3.68-2.82 7.8-4.82 12.36-5.48 8.68-1.26 17.22-.98 25.15 3.51 3.12 1.76 4.7 4.46 5.32 7.84.91 4.94-3.59 6.2-6.23 8.37-2.78 2.28-6.37 3.28-10.22 3.11-2.43-.11-4.88.42-7.35.66zm69.97-5.03c6.27 1.14 13.09.09 18.96 4.33 6.5 4.69 6.34 10.39-.44 14.6-7.72 4.79-15.9 4.96-24.24 2.78-3.08-.8-6.05-2.59-8.44-4.88-4.3-4.11-3.05-10.55 2.47-12.83 3.74-1.55 7.19-4.03 11.69-4z" style="fill:#fff"/></g></svg>