<svg xmlns="http://www.w3.org/2000/svg" xml:space="preserve" style="enable-background:new 0 0 125 125" viewBox="0 0 125 125"><path d="M20.92 51.1c1.61-1.94 5.58-10.27 5.86-12.99.68-6.61 5.5-9.84 10.35-13.09 5.05-3.1 10.43-3.08 15.97-1.74 1.59.38 2.66 1.27 3.26 2.77-2.11 2.01-4.51.79-6.54.18-4.2-1.27-7.89.02-11.52 1.64-2.67 1.19-3.97 3.61-4.07 6.5-.1 2.66 1.95 3.82 3.92 4.9 5.76 3.16 11.62 3.31 17.47.34 4.14-2.1 4.89-5.77 2.19-9.63-.76-1.09-2.19-1.92-1.57-3.62 3.29-1.33 4.47 1.61 6.16 3.21 1.77 1.69 3.52 3.38 6.01 2.21 1.91-.9 3.84-.58 5.73-.97.32-.07.65.2.93.4.59 1.68-.92 1.94-1.8 2.49-1.83 1.12-3.38 2.55-4.72 4.18-2.39 2.93-1.89 7.05 1.03 9.34 6.93 5.42 18.46 5.11 24.98-.66 3.05-2.7 3.04-7.34.1-10.23-1.06-1.04-3.1-1.57-2.4-3.76 5.07.15 7.86 3.9 10.51 7.28 4.75 6.06 6.11 13.27 5.2 20.83-.28 2.34-1.49 4.4-3.64 5.74-6.33 3.94-12.88 7.31-20.55 7.62-2.77.11-3.75 1.5-3.43 4.09.16 1.28.45 2.54.64 3.82 1.37 9.33-8.36 14.56-14.64 12.76-6.09-1.74-9.99-5.58-11.64-11.56-.6-2.2-1.41-2.69-3.64-2.37-8.29 1.2-16.08-.24-23.32-4.66-7.91-4.84-11.48-17.59-6.83-25.02z" style="fill:#8055e7"/><path d="M56.21 26.41c-3.17-4.29-7.81-3.47-12.11-3.22-2.35.13-4.65 1.19-6.97 1.83 5.22-3.99 13.17-4.33 18.71-.93 2.79 1.71 5.51 3.42 7.82 5.82 2.97 3.09 6.46.86 9.58.24 10.66-2.13 20.32-.81 28.18 7.34 8.53 8.84 10.05 24.05 1.93 34-3.58 4.39-8.56 6.96-14.17 7.6-3.21.37-3.33 2.01-3.47 4.45-.59 10.27-4.18 19.03-13.84 23.95-7 3.56-14.46 3.64-22.12 1.87-5.75-1.33-9.84-4.49-13.22-9.12-1.91-2.61-1.36-5.62-2.11-8.4-.48-1.79-1.09-2.97-2.91-3.49-7.81-2.22-11.98-7.59-14.44-15.2-1.56-4.82-1.31-9.52-.9-14.18.26-2.92 2.06-5.9 4.74-7.87-1.25 7.61-2.12 15.27 4.02 21.33 4.72 4.65 10.72 7.16 17.34 7.46 3.67.17 7.47.83 11.1-.88 1.6-.75 1.94.65 2.08 1.91.74 6.86 4.69 10.85 11.18 12.76 6.36 1.87 15.3-4.1 13.16-12.37-.32-1.24-.6-2.5-.78-3.77-.44-3.07.86-4.61 4.01-4.61 8.5 0 15.43-4.14 22.27-8.45 1.35-.85 2-2.59 2.29-4.18 1.74-9.54-3.53-21.15-11.84-26.35-1.12-.7-2.24-1.28-3.61-1.15-1.88.8-3.56.05-5.26-.62-3.59-1.98-7.37-1.29-11.13-.75-.17-.02-.35-.04-.52-.07-2.29.07-4.54-.22-6.77 1.05-1.89 1.08-3.66.16-5.28-1.4-2.01-1.91-3.39-4.96-6.96-4.6z" style="fill:#6142bf"/><path d="M87.22 31.35c1.44 1.17 3.47.35 4.92 1.46.44 1.08 1.57 1.36 2.38 2 4.81 3.75 4.78 9.39-.08 13.08-7.63 5.79-19.08 5.6-26.48-.45-2.43-1.99-2.77-7.42-.66-9.91 2.21-2.61 4.91-4.58 7.93-6.15l.01-.01c3.99-1.18 7.98-.94 11.98-.02zm-31.01-4.93c1.27 2.3 4.02 3.57 4.24 6.66.35 5.06-2.99 8.7-9.62 9.42-4.77.52-9.46.29-13.81-2.62-4.91-3.29-5.57-9.03-.52-12.15 4-2.46 8.44-4.48 13.55-2.37 1.87.77 4.09.72 6.16 1.06 0-.01 0 0 0 0z" style="fill:#fff"/></svg>