<svg xmlns="http://www.w3.org/2000/svg" xml:space="preserve" style="enable-background:new 0 0 320 176" viewBox="0 0 320 176"><style>.st0{fill:#a5e5ba}</style><g id="Layer_5"><path d="M232.48 102.7c0 36.2-28.29-7.37-65.9-7.37s-70.29 43.57-70.29 7.37 30.49-65.54 68.09-65.54 68.1 29.34 68.1 65.54z" class="st0"/><path d="M292.14 130.67c-2.88 3-6.31 5.25-9.96 7.16-10.7 5.58-22.21 8.78-33.9 11.39-1 .23-2.01.34-3.02.5-.39-1.05.32-1.78.77-2.59 1.79-3.21 1.74-4.82-.7-7.69-3.27-3.85-7.74-5.9-12.35-7.53-17.93-6.37-36.59-8.54-55.47-9.18-4.02-.13-8.04-.64-12.03-.5-12.47.45-24.95.62-37.36 2.28-11.92 1.59-23.63 3.8-34.86 8.25-3.31 1.31-6.25 3.21-9.05 5.3-2.81 2.1-3.39 5.74-1.89 9.03.37.81 1.17 1.56.53 2.59-15.18-3.15-30.16-6.9-43.09-16.02-3.74-2.64-6.93-5.92-7.38-10.9-.35-3.89 1.35-6.98 3.96-9.64 5.66-5.76 12.85-8.94 20.23-11.74 12.5-4.74 25.51-7.53 38.67-9.73.84-.14 1.68-.32 2.52-.48.46-.17.92-.37 1.4-.49.07-.02.14-.04.21-.05.17-.04.34-.07.52-.09 2.54-.32 5.05-.76 7.59-1.1.02 0 .04 0 .06-.01.1 0 .2-.01.3-.02.31-.02.63-.06.94-.12.15-.03.29-.05.44-.08.28-.06.55-.13.83-.21 9.23-1.11 18.48-1.84 27.76-2.33 4.69-.25 9.36-.46 14.05-.4 8.11.08 16.22.05 24.33.01 14.32-.05 28.56.99 42.74 2.92.14.05.28.08.43.1.14.03.29.05.44.05.33.03.67.03 1.01.05l.32.03c.03.01.05.01.07.01 3.17.62 6.48.52 9.56 1.69 8.3 1.59 16.64 2.98 24.82 5.15 9.68 2.57 19.21 5.53 28.01 10.45 3.22 1.8 6.23 3.9 8.76 6.63 5.17 5.59 5.09 11.79-.21 17.31z" style="fill:#5ca257"/><path d="M246.12 148.16c-.34.48-.58 1.04-.87 1.57-6.26 1.73-12.68 2.63-19.1 3.49-9.2 1.23-18.44 2.31-27.69 3.15-4.03.37-8.09.51-12.15.57-1.73.03-3.47.03-5.2.03-.68 0-1.2.07-1.59.21-10.85.04-22.91-.06-31.65-.17h-.01c-.19-.02-.4-.03-.62-.04l-4.04-.12c-19.54-.69-38.94-2.74-58.15-6.58-.75-.15-1.48-.39-2.22-.58-.05-1.02-.88-1.64-1.3-2.47-1.68-3.33-.65-8 2.44-10.07 7.82-5.25 16.51-8.27 25.7-10.08 4.09-.8 8.11-1.92 12.25-2.44 5.89-.73 11.77-1.66 17.69-2.05 8.74-.58 17.52-1.29 26.24-.95 10.15.4 20.33.44 30.49 1.74 12.62 1.63 25.1 3.6 37.09 7.93 4.72 1.71 9.38 3.83 12.64 7.89 2.67 3.3 2.54 5.49.05 8.97z" class="st0"/><path d="M164 112.74c-4 0-6.42-2.72-6.7-6.83-.2-3.07 2.95-6.85 6.86-6.92 3.78-.07 7.04 3.32 7.02 7.07-.03 3.94-2.98 6.68-7.18 6.68zm65.32 6.15c-3.93-.03-6.68-2.85-6.67-6.84 0-3.74 3.36-7.05 7.04-6.94 3.6.1 6.77 3.42 6.77 7.07 0 3.92-2.99 6.74-7.14 6.71zm-130.39-.01c-3.94-.01-6.84-2.86-6.83-6.72.01-3.9 2.98-6.79 6.99-6.79 3.95 0 6.93 3.01 6.86 6.94-.06 3.82-3.01 6.58-7.02 6.57zm64.41 14.88c13.4-.06 25.65.66 37.67 3.67 2.48.62 4.92 1.45 7.05 2.94 2.38 1.68 2.45 3.39.12 5.11-2.96 2.18-6.48 3.02-9.99 3.74-15.09 3.06-30.33 3.61-45.67 2.72-8.2-.47-16.33-1.26-24.33-3.21-2.25-.55-4.44-1.24-6.49-2.33-1.43-.76-3.02-1.45-3-3.45.03-1.99 1.65-2.71 3.06-3.43 3.22-1.63 6.71-2.46 10.24-3.14 10.71-2.07 21.53-2.75 31.34-2.62z" style="fill:#fff"/></g></svg>